<?xml version="1.0" standalone="no"?>
<!DOCTYPE svg PUBLIC "-//W3C//DTD SVG 1.1//EN" "http://www.w3.org/Graphics/SVG/1.1/DTD/svg11.dtd" >
<svg xmlns="http://www.w3.org/2000/svg" xmlns:xlink="http://www.w3.org/1999/xlink" version="1.1">
<metadata>
Created by FontForge 20190801 at Wed Oct 12 15:48:05 2011
 By Unknown
Copyright (c) 2009 by Hannes von Doehren. All rights reserved.
</metadata>
<defs>
<font id="BrandonGrotesque-Bold" horiz-adv-x="500" >
  <font-face 
    font-family="Brandon Grotesque Bold"
    font-weight="500"
    font-stretch="normal"
    units-per-em="1000"
    panose-1="2 11 8 3 2 2 3 6 2 2"
    ascent="750"
    descent="-250"
    x-height="400"
    cap-height="700"
    bbox="-144.5 -310 1111.33 980"
    underline-thickness="50"
    underline-position="-100"
    unicode-range="U+0020-2122"
  />
<missing-glyph horiz-adv-x="221" 
 />
    <glyph glyph-name="fi" unicode="fi" horiz-adv-x="557" 
d="M84 19v276h-34q-8 0 -13.5 5.5t-5.5 13.5v67q0 8 5.5 13.5t13.5 5.5h34v109q0 90 56 145.5t141 55.5q76 0 153 -43q6 -4 8 -11.5t-2 -14.5l-34 -63q-9 -18 -27 -9q-56 28 -97 28q-30 0 -51.5 -22.5t-21.5 -66.5v-108h269q8 0 13.5 -5.5t5.5 -13.5v-362q0 -8 -5.5 -13.5
t-13.5 -5.5h-83q-8 0 -13.5 6t-5.5 13v276h-167v-276q0 -6 -3.5 -10.5t-10.5 -6.5t-12 -2h-12h-68q-8 0 -13.5 5.5t-5.5 13.5z" />
    <glyph glyph-name="fl" unicode="fl" horiz-adv-x="570" 
d="M84 19v277h-36q-8 0 -13.5 5t-5.5 13v66q0 8 5.5 14t13.5 6h36v109q0 94 56.5 147.5t140.5 53.5q24 0 47.5 -6t40.5 -14t30 -16t19 -14l6 -6l11 28q8 18 24 18h32q8 0 13.5 -6t5.5 -13v-662q0 -8 -6 -13.5t-13 -5.5h-84q-8 0 -13.5 6t-5.5 13v528q-5 6 -15 16t-33.5 21.5
t-47.5 11.5q-35 0 -59.5 -22t-24.5 -66v-108h84q8 0 13.5 -5.5t5.5 -13.5v-66q0 -8 -5.5 -13.5t-13.5 -5.5h-84v-277q0 -8 -6 -13.5t-13 -5.5h-87q-8 0 -13 5.5t-5 13.5z" />
    <glyph glyph-name="f_f" unicode="ff" horiz-adv-x="642" 
d="M84 19v276h-35q-8 0 -13.5 5.5t-5.5 13.5v67q0 8 5.5 13.5t13.5 5.5h35v89q0 52 17 92.5t46 66t66 39t80 13.5q82 0 139 -46q52 56 137 56q36 0 69 -12t49 -27q4 -4 5.5 -10.5t-1.5 -12.5l-34 -64q-3 -6 -10 -7.5t-14 2.5q-32 20 -59 20q-32 0 -49.5 -23.5t-17.5 -67.5
v-108h100q8 0 13.5 -5.5t5.5 -13.5v-67q0 -8 -5.5 -13.5t-13.5 -5.5h-100v-276q0 -8 -5.5 -13.5t-13.5 -5.5h-87q-8 0 -13.5 6t-5.5 13v276h-173v-276q0 -8 -5.5 -13.5t-13.5 -5.5h-87q-8 0 -13.5 5.5t-5.5 13.5zM209 400h173v108q0 18 4 46q-12 14 -35 24.5t-51 10.5
q-40 0 -65.5 -26.5t-25.5 -73.5v-89z" />
    <glyph glyph-name="f_f_i" unicode="ffi" horiz-adv-x="855" 
d="M84 19v276h-34q-8 0 -13.5 5.5t-5.5 13.5v67q0 8 5.5 13.5t13.5 5.5h34v89q0 88 55 147t155 64q83 0 138 -46q52 56 144 56q44 0 87 -14t69 -29q6 -4 8.5 -11.5t-1.5 -14.5l-36 -67q-9 -14 -26 -5q-56 28 -96 28q-31 0 -52 -22.5t-21 -66.5v-108h268q8 0 13.5 -5.5
t5.5 -13.5v-362q0 -8 -5.5 -13.5t-13.5 -5.5h-83q-8 0 -13.5 6t-5.5 13v276h-166v-276q0 -8 -6 -13.5t-13 -5.5h-87q-8 0 -13.5 6t-5.5 13v276h-174v-276q0 -8 -5.5 -13.5t-13.5 -5.5h-87q-8 0 -13.5 5.5t-5.5 13.5zM209 400h174v108q0 25 3 46q-12 14 -35 24.5t-50 10.5
q-40 0 -66 -26.5t-26 -73.5v-89z" />
    <glyph glyph-name="f_f_l" unicode="ffl" horiz-adv-x="869" 
d="M84 19v276h-35q-8 0 -13.5 5.5t-5.5 13.5v67q0 8 5.5 13.5t13.5 5.5h35v89q0 52 17 92.5t46 66t66 39t80 13.5q82 0 139 -46q52 56 150 56q24 0 47 -6t39 -14t29 -16t19 -14l7 -6l11 28q6 18 24 18h32q8 0 13.5 -6t5.5 -13v-662q0 -8 -5.5 -13.5t-13.5 -5.5h-84
q-8 0 -13.5 6t-5.5 13v528q-5 6 -15 16t-33 21.5t-48 11.5q-35 0 -59.5 -22t-24.5 -66v-108h84q8 0 13.5 -5.5t5.5 -13.5v-66q0 -8 -6 -13.5t-13 -5.5h-84v-277q0 -8 -5.5 -13.5t-13.5 -5.5h-87q-8 0 -13.5 6t-5.5 13v276h-173v-276q0 -8 -5.5 -13.5t-13.5 -5.5h-87
q-8 0 -13.5 5.5t-5.5 13.5zM209 400h173v108q0 18 4 46q-12 14 -35 24.5t-51 10.5q-40 0 -65.5 -26.5t-25.5 -73.5v-89z" />
    <glyph glyph-name="f_f_h" unicode="ffh" horiz-adv-x="1147" 
d="M84 19v276h-35q-8 0 -13.5 5.5t-5.5 13.5v67q0 8 5.5 13.5t13.5 5.5h35v84q0 100 59 158t150 58q82 0 139 -46q52 56 150 56q24 0 47 -6t39 -14t29 -16t19 -14l7 -6l11 28q6 18 24 18h32q8 0 13.5 -6t5.5 -13l1 -304q18 14 46 23.5t60 9.5q46 0 81 -17t56 -45t31.5 -63
t10.5 -74v-192q0 -8 -5.5 -13.5t-13.5 -5.5h-81q-8 0 -13.5 6t-5.5 13v191q0 41 -21.5 65.5t-57.5 24.5q-34 0 -56.5 -19.5t-30.5 -51.5v-210q0 -19 -21 -19h-83q-8 0 -13.5 6t-5.5 13v528q-5 6 -15 16t-33 21.5t-48 11.5q-36 0 -60 -22.5t-24 -68.5v-105h84q8 0 13.5 -5.5
t5.5 -13.5v-66q0 -8 -6 -13.5t-13 -5.5h-84v-277q0 -8 -5.5 -13.5t-13.5 -5.5h-87q-8 0 -13.5 6t-5.5 13v276h-173v-276q0 -8 -5.5 -13.5t-13.5 -5.5h-87q-8 0 -13.5 5.5t-5.5 13.5zM209 400h173v108q0 18 4 46q-12 14 -35 24.5t-51 10.5q-40 0 -65.5 -26.5t-25.5 -73.5v-89
z" />
    <glyph glyph-name="f_k" unicode="fk" horiz-adv-x="817" 
d="M84 19v277h-36q-8 0 -13.5 6t-5.5 13v66q0 8 5.5 13.5t13.5 5.5h36v109q0 48 16 86.5t43 63.5t62.5 38t74.5 13q24 0 48 -6t41 -14t30 -16t19 -14l6 -6l11 28q6 18 24 18h32q8 0 13.5 -6t5.5 -13v-433l139 140q12 12 25 12h91q12 0 16.5 -10.5t-3.5 -18.5l-149 -152
l178 -191q8 -8 3.5 -18t-16.5 -10h-109q-10 0 -16 8l-159 180v-169q0 -8 -6 -13.5t-13 -5.5h-84q-8 0 -13.5 6t-5.5 13v528q-5 6 -15 16t-33.5 21.5t-47.5 11.5q-35 0 -59.5 -22t-24.5 -66v-108h84q8 0 13.5 -5.5t5.5 -13.5v-66q0 -8 -5.5 -13.5t-13.5 -5.5h-84v-277
q0 -8 -6 -13.5t-13 -5.5h-87q-8 0 -13 5.5t-5 13.5z" />
    <glyph glyph-name="f_j" unicode="fj" horiz-adv-x="557" 
d="M84 19v276h-34q-8 0 -13.5 5.5t-5.5 13.5v67q0 8 5.5 13.5t13.5 5.5h34v109q0 90 56 145.5t141 55.5q76 0 153 -43q6 -4 8 -11.5t-2 -14.5l-34 -63q-9 -18 -27 -9q-56 28 -97 28q-30 0 -51.5 -22.5t-21.5 -66.5v-108h269q8 0 13.5 -5.5t5.5 -13.5v-489q0 -96 -52.5 -149
t-134.5 -53q-36 0 -69 12t-49 27q-4 4 -5.5 10.5t1.5 12.5l34 64q3 6 10.5 7.5t13.5 -2.5q32 -20 59 -20q34 0 51.5 23.5t17.5 67.5v403h-165v-276q0 -8 -5.5 -13.5t-13.5 -5.5h-87q-8 0 -13.5 5.5t-5.5 13.5z" />
    <glyph glyph-name="f_f_j" unicode="ffj" horiz-adv-x="855" 
d="M84 19v276h-34q-8 0 -13.5 5.5t-5.5 13.5v67q0 8 5.5 13.5t13.5 5.5h34v84q0 101 58.5 158.5t151.5 57.5q83 0 138 -46q52 56 144 56q44 0 86.5 -14t69.5 -29q6 -4 8.5 -11.5t-1.5 -14.5l-36 -67q-9 -14 -26 -5q-56 28 -96 28q-34 0 -53.5 -25.5t-19.5 -75.5v-96h268
q8 0 13.5 -5.5t5.5 -13.5v-475q0 -24 -3 -47q-8 -82 -58 -125.5t-125 -43.5q-36 0 -67.5 10.5t-46.5 25t-8 26.5l33 64q3 6 10.5 7.5t13.5 -2.5q32 -20 59 -20q34 0 52 23.5t18 67.5v403h-165v-276q0 -8 -6 -13.5t-13 -5.5h-87q-8 0 -13.5 6t-5.5 13v276h-174v-276
q0 -8 -5.5 -13.5t-13.5 -5.5h-87q-8 0 -13.5 5.5t-5.5 13.5zM209 400h174v101q0 32 3 53q-12 14 -35 24.5t-50 10.5q-40 0 -66 -26.5t-26 -73.5v-89z" />
    <glyph glyph-name="f_b" unicode="fb" horiz-adv-x="828" 
d="M84 19v277h-36q-8 0 -13.5 6t-5.5 13v66q0 8 5.5 13.5t13.5 5.5h36v108q0 86 54.5 144t141.5 58q24 0 48 -6t41 -14t30 -16t19 -14l6 -6l11 28q6 18 24 18h32q8 0 13.5 -6t5.5 -13v-290q49 19 85 19q85 0 144 -61t59 -149q0 -87 -55.5 -148.5t-136.5 -61.5q-24 0 -46 6
t-37 15t-26 18t-17 15l-5 6l-10 -31q-5 -19 -19 -19h-39q-8 0 -13.5 6t-5.5 13v528q-5 6 -15 16t-33.5 21.5t-47.5 11.5q-35 0 -59.5 -22t-24.5 -66v-108h84q8 0 13.5 -5.5t5.5 -13.5v-66q0 -8 -5.5 -13.5t-13.5 -5.5h-84v-277q0 -8 -6 -13.5t-13 -5.5h-87q-8 0 -13 5.5
t-5 13.5zM507 159q4 -20 26 -40.5t56 -20.5q40 0 66.5 29.5t26.5 72.5q0 42 -28 71t-69 29q-22 0 -41.5 -6t-27.5 -11l-9 -6v-118z" />
    <glyph glyph-name="f_f_k" unicode="ffk" horiz-adv-x="1116" 
d="M84 19v276h-35q-8 0 -13.5 5.5t-5.5 13.5v67q0 8 5.5 13.5t13.5 5.5h35v89q0 52 17 92.5t46 66t66 39t80 13.5q82 0 139 -46q52 56 148 56q24 0 48 -6t40 -14t29 -16t19 -14l7 -6l13 33q4 13 18 13h36q8 0 13.5 -6t5.5 -13v-433l139 140q12 12 25 12h91q12 0 16.5 -10.5
t-3.5 -18.5l-149 -152l178 -191q8 -8 4 -18t-17 -10h-109q-10 0 -16 8l-159 180v-169q0 -8 -5.5 -13.5t-13.5 -5.5h-84q-8 0 -13.5 6t-5.5 13v528q-5 6 -15 16t-33 21.5t-48 11.5q-35 0 -59.5 -22t-24.5 -66v-108h84q8 0 13.5 -5.5t5.5 -13.5v-66q0 -8 -6 -13.5t-13 -5.5
h-84v-277q0 -8 -5.5 -13.5t-13.5 -5.5h-87q-8 0 -13.5 6t-5.5 13v276h-173v-276q0 -8 -5.5 -13.5t-13.5 -5.5h-87q-8 0 -13.5 5.5t-5.5 13.5zM209 400h173v108q0 18 4 46q-12 14 -35 24.5t-51 10.5q-40 0 -65.5 -26.5t-25.5 -73.5v-89z" />
    <glyph glyph-name="f_h" unicode="fh" horiz-adv-x="848" 
d="M84 19v277h-36q-8 0 -13.5 6t-5.5 13v66q0 8 5.5 13.5t13.5 5.5h36v108q0 88 55 145t144 57q24 0 47.5 -6t39.5 -14t29 -16t19 -14l6 -6l11 28q6 18 24 18h32q8 0 13.5 -6t5.5 -13l1 -304q18 14 46 23.5t60 9.5q46 0 81.5 -17t56 -45t31 -63t10.5 -74v-192q0 -8 -6 -13.5
t-13 -5.5h-81q-8 0 -13.5 6t-5.5 13v191q0 41 -21.5 65.5t-57.5 24.5q-34 0 -56.5 -19.5t-30.5 -51.5v-210q0 -19 -21 -19h-83q-8 0 -13.5 6t-5.5 13v528q-5 6 -15 16t-33.5 21.5t-47.5 11.5q-35 0 -59.5 -22t-24.5 -66v-108h84q8 0 13.5 -5.5t5.5 -13.5v-66
q0 -8 -5.5 -13.5t-13.5 -5.5h-84v-277q0 -8 -6 -13.5t-13 -5.5h-87q-8 0 -13 5.5t-5 13.5z" />
    <glyph glyph-name="f_f_b" unicode="ffb" horiz-adv-x="1127" 
d="M84 19v276h-35q-8 0 -13.5 5.5t-5.5 13.5v67q0 8 5.5 13.5t13.5 5.5h35v88q0 94 57 153t152 59q82 0 139 -46q52 56 148 56q24 0 48 -6t40 -14t29 -16t19 -14l7 -6l11 28q6 18 24 18h32q8 0 13.5 -6t5.5 -13v-290q49 19 85 19q85 0 144 -61t59 -149q0 -87 -55.5 -148.5
t-136.5 -61.5q-24 0 -46 6t-36.5 15t-26.5 18t-17 15l-5 6l-10 -31q-5 -19 -19 -19h-39q-8 0 -13.5 6t-5.5 13v528q-5 6 -15 16t-33 21.5t-48 11.5q-35 0 -59.5 -22t-24.5 -66v-108h84q8 0 13.5 -5.5t5.5 -13.5v-66q0 -8 -6 -13.5t-13 -5.5h-84v-277q0 -8 -5.5 -13.5
t-13.5 -5.5h-87q-8 0 -13.5 6t-5.5 13v276h-173v-276q0 -8 -5.5 -13.5t-13.5 -5.5h-87q-8 0 -13.5 5.5t-5.5 13.5zM209 400h173v108q0 18 4 46q-12 14 -35 24.5t-51 10.5q-40 0 -65.5 -26.5t-25.5 -73.5v-89zM806 159q4 -20 26 -40.5t56 -20.5q40 0 66.5 29.5t26.5 72.5
q0 42 -27.5 71t-69.5 29q-22 0 -42 -6t-28 -11l-8 -6v-118z" />
    <glyph glyph-name=".notdef" horiz-adv-x="221" 
 />
    <glyph glyph-name=".null" horiz-adv-x="0" 
 />
    <glyph glyph-name="nonmarkingreturn" horiz-adv-x="333" 
 />
    <glyph glyph-name="space" unicode=" " horiz-adv-x="221" 
 />
    <glyph glyph-name="space" unicode="&#xa0;" horiz-adv-x="221" 
 />
    <glyph glyph-name="exclam" unicode="!" horiz-adv-x="310" 
d="M139 272q-6 0 -12 5t-7 11l-39 279v114q0 8 5.5 13.5t13.5 5.5h110q8 0 13.5 -6t5.5 -13v-112l-39 -281q-1 -6 -6.5 -11t-12.5 -5h-32zM155 155q34 0 58.5 -24.5t24.5 -58.5t-24.5 -58t-58.5 -24t-58 24t-24 58t24.5 58.5t57.5 24.5z" />
    <glyph glyph-name="quotedbl" unicode="&#x22;" horiz-adv-x="343" 
d="M55 501q-8 0 -13.5 5.5t-5.5 13.5v161q0 8 6 13.5t13 5.5h80q10 0 15.5 -7t2.5 -18l-41 -159q-2 -6 -7 -10.5t-11 -4.5h-39zM226 501q-8 0 -13.5 5.5t-5.5 13.5v161q0 8 6 13.5t13 5.5h80q10 0 15.5 -7t2.5 -18l-41 -159q-2 -6 -7 -10.5t-11 -4.5h-39z" />
    <glyph glyph-name="numbersign" unicode="#" horiz-adv-x="538" 
d="M104 22l23 166h-71q-8 0 -13.5 6t-5.5 13v14q0 8 5.5 13.5t13.5 5.5h78l23 164h-72q-8 0 -13.5 6t-5.5 13v14q0 8 6 13.5t13 5.5h79l32 228q1 6 6.5 11t11.5 5h14q8 0 14 -6.5t4 -15.5l-30 -222h158l33 228q1 6 7 11t12 5h12q9 0 14.5 -6.5t4.5 -15.5l-32 -222h64
q8 0 13.5 -6t5.5 -13v-14q0 -8 -5.5 -13.5t-13.5 -5.5h-71l-23 -164h65q8 0 13.5 -5.5t5.5 -13.5v-14q0 -8 -5.5 -13.5t-13.5 -5.5h-73l-22 -172q-1 -7 -6 -11.5t-13 -4.5h-13q-9 0 -14.5 6.5t-4.5 15.5l22 166h-159l-23 -172q0 -6 -6 -11t-13 -5h-12q-10 0 -15.5 6.5
t-3.5 15.5zM185 240h159l22 164h-158z" />
    <glyph glyph-name="dollar" unicode="$" horiz-adv-x="525" 
d="M46 68q-6 6 -8 9t-2 8.5t5 12.5q3 5 8 14.5t9 16.5t10 15.5t11 14t10 9.5t11 4t12 -5q8 -6 21 -14.5t44.5 -24.5t58.5 -23q0 32 0.5 95.5t0.5 96.5q-33 13 -57 25t-53 31.5t-47 41t-30 54t-12 70.5q0 76 51 129t149 61v32q0 8 6 13.5t13 5.5h13q8 0 13.5 -5.5t5.5 -13.5
v-33q94 -8 174 -65q8 -4 9.5 -14.5t-3.5 -18.5q-2 -4 -6.5 -11t-8 -12t-8 -12t-8.5 -12l-8 -10t-8 -8t-8.5 -5t-9.5 -2q-4 0 -7 3q-1 0 -19 11t-43 23.5t-46 19.5v-180q32 -13 55.5 -25t53.5 -33t50 -43t33.5 -55t13.5 -71q0 -84 -54.5 -137.5t-153.5 -59.5v-104
q0 -8 -5.5 -13t-14.5 -5q-31 0 -31 18v104q-38 3 -72 13t-58 23t-37 22.5t-23 18.5zM235 437v161q-36 -4 -55.5 -22.5t-19.5 -42.5q0 -30 18.5 -53t56.5 -43zM289 99q33 6 54 26.5t21 48.5q0 56 -75 100v-175z" />
    <glyph glyph-name="percent" unicode="%" horiz-adv-x="662" 
d="M186 10q-5 -10 -17 -10h-48q-12 0 -17 9t0 18l343 663q5 10 17 10h50q12 0 17 -9t0 -18zM581 30q-39 -39 -95 -39t-95.5 39.5t-39.5 95.5t39.5 95.5t95.5 39.5t95.5 -39.5t39.5 -95.5t-40 -96zM535 126q0 20 -15 34.5t-34 14.5q-20 0 -35.5 -15t-15.5 -34
q0 -20 15.5 -35.5t35.5 -15.5t34.5 15t14.5 36zM252 479q-39 -39 -95 -39t-95.5 39.5t-39.5 95.5t39.5 95.5t95.5 39.5t95.5 -39.5t39.5 -95.5t-40 -96zM206 575q0 20 -15 34.5t-34 14.5q-20 0 -35.5 -15t-15.5 -34q0 -20 15.5 -35.5t35.5 -15.5t34.5 15t14.5 36z" />
    <glyph glyph-name="ampersand" unicode="&#x26;" horiz-adv-x="689" 
d="M74 178q0 21 4 41t11.5 36.5t16 30.5t20.5 26.5t21 21.5t21 17.5t19 12.5t16 10l9 5v2l-21 23q-34 36 -51.5 69.5t-16.5 74.5q0 29 12.5 57.5t34.5 52t59 38t83 14.5q82 0 135.5 -47t53.5 -116q0 -24 -8 -47.5t-19 -41t-26.5 -34.5t-27.5 -26.5t-25 -19.5t-16 -13
l115 -116q24 50 36 111q4 18 10.5 24t22.5 1l55 -16q4 -1 7.5 -3t5.5 -4t3.5 -4t2 -5t1 -5t0 -5t-1.5 -5v-4l-1 -4q-18 -79 -62 -159l89 -84q8 -8 11 -12.5t1 -13.5t-14 -20l-41 -42q-22 -20 -44 3l-72 73q-9 -10 -24 -22.5t-42 -27.5t-67 -25t-85 -10q-93 0 -152 55
t-59 133zM308 436l8 4q7 5 11.5 7.5t13.5 9t15 12t14 14.5t12 17t7.5 19t3.5 22q0 30 -23.5 52.5t-61.5 22.5q-34 0 -54 -20t-20 -48q0 -12 3 -23t12 -24t15 -19.5t22 -23.5zM193 191q0 -41 30.5 -67.5t74.5 -26.5q77 0 129 59l-149 158l-8 -5l-12 -7.5t-13.5 -9.5
t-15 -13.5t-13.5 -16.5t-12 -20t-7.5 -23.5t-3.5 -27.5z" />
    <glyph glyph-name="quotesingle" unicode="'" horiz-adv-x="172" 
d="M55 501q-8 0 -13.5 5.5t-5.5 13.5v161q0 8 6 13.5t13 5.5h80q10 0 15.5 -7t2.5 -18l-41 -159q-2 -6 -7 -10.5t-11 -4.5h-39z" />
    <glyph glyph-name="parenleft" unicode="(" horiz-adv-x="342" 
d="M291 -79q-38 2 -70.5 13.5t-66 38.5t-57 69t-39 112t-15.5 161q0 66 7.5 120.5t21.5 94t33 70.5t40 50.5t47 32.5t49.5 19t49.5 7q8 0 13.5 -4t5.5 -11l3 -66q1 -6 -3 -11.5t-9 -6.5q-72 -19 -103.5 -92.5t-31.5 -202.5q0 -130 32 -202.5t103 -91.5q6 -2 9.5 -7.5
t2.5 -11.5l-3 -65q-1 -16 -19 -16z" />
    <glyph glyph-name="parenright" unicode=")" horiz-adv-x="343" 
d="M29 2q-1 6 2 12t10 7q72 19 103.5 92t31.5 202t-32 202.5t-103 92.5q-6 1 -9.5 6.5t-2.5 11.5l3 66q0 7 5.5 11.5t13.5 3.5q26 -2 49.5 -7.5t49.5 -18.5t47 -32.5t40 -50.5t33 -70.5t21.5 -94.5t7.5 -120q0 -90 -15.5 -160.5t-39 -112.5t-57 -69t-66.5 -38t-70 -14
q-18 0 -19 16z" />
    <glyph glyph-name="asterisk" unicode="*" horiz-adv-x="350" 
d="M159 370q-8 0 -13.5 6t-5.5 13l2 87l-72 -50q-6 -4 -14 -2.5t-12 7.5l-17 27q-4 6 -2.5 14t7.5 13l83 50l-83 50q-6 4 -8 12.5t2 14.5q4 4 9.5 13t9.5 14q4 6 11.5 7.5t13.5 -3.5l72 -50l-2 88q0 8 6 13.5t13 5.5h32q8 0 13.5 -6t5.5 -13l-2 -88l72 51q6 4 14 2.5
t12 -7.5l17 -27q4 -6 3.5 -14t-8.5 -13l-83 -50l83 -51q7 -4 8.5 -12t-2.5 -14l-19 -27q-4 -6 -11.5 -8t-13.5 2l-72 50l2 -86q0 -8 -6 -13.5t-13 -5.5h-32z" />
    <glyph glyph-name="plus" unicode="+" horiz-adv-x="560" 
d="M233 150v149h-150q-8 0 -13.5 5.5t-5.5 13.5v56q0 8 6 13.5t13 5.5h150v151q0 8 5.5 13t13.5 5h56q8 0 13.5 -5t5.5 -13v-151h151q8 0 13 -5.5t5 -13.5v-56q0 -8 -5 -13.5t-13 -5.5h-151v-149q0 -8 -5.5 -13t-13.5 -5h-56q-8 0 -13.5 5t-5.5 13z" />
    <glyph glyph-name="comma" unicode="," horiz-adv-x="259" 
d="M36 71q0 34 25 58.5t63 24.5q18 0 34.5 -7t32 -21t25 -41t9.5 -62t-8.5 -67t-20.5 -55t-29 -43t-30 -31.5t-26 -19.5q-14 -9 -25 2l-15 16q-12 14 4 27l5 4q6 5 10 8.5t11 10.5t12 14t12 16.5t12 20t9 21.5t6.5 24t2.5 27l-2 -1q-2 -1 -5.5 -2t-8 -2t-10.5 -2t-12 -1
q-33 0 -57 24t-24 57z" />
    <glyph glyph-name="hyphen" unicode="-" horiz-adv-x="369" 
d="M73 192q-8 0 -13.5 5t-5.5 13v67q0 8 5.5 13.5t13.5 5.5h223q8 0 13.5 -5.5t5.5 -13.5v-67q0 -8 -5.5 -13t-13.5 -5h-223z" />
    <glyph glyph-name="period" unicode="." horiz-adv-x="235" 
d="M117 155q34 0 58.5 -24.5t24.5 -58.5t-24.5 -58t-58.5 -24t-58 24t-24 58t24.5 58.5t57.5 24.5z" />
    <glyph glyph-name="slash" unicode="/" horiz-adv-x="353" 
d="M29 25l196 662q2 6 7 9.5t11 3.5h72q10 0 15.5 -7t2.5 -18l-195 -662q-2 -5 -7 -9t-11 -4h-73q-10 0 -15.5 7.5t-2.5 17.5z" />
    <glyph glyph-name="zero" unicode="0" horiz-adv-x="626" 
d="M498 82q-66 -92 -185 -92t-185.5 92.5t-66.5 257.5t66.5 257.5t185.5 92.5t185.5 -92.5t66.5 -257.5t-67 -258zM434 340q0 111 -31.5 171.5t-89.5 60.5t-89.5 -60.5t-31.5 -171.5q0 -112 31.5 -172t89.5 -60t89.5 60t31.5 172z" />
    <glyph glyph-name="one" unicode="1" horiz-adv-x="357" 
d="M141 19v479l-88 -19q-7 -2 -13 2.5t-7 10.5l-6 49q-2 12 5 18l144 121h70q8 0 13 -6t5 -13v-642q0 -8 -5 -13.5t-13 -5.5h-86q-8 0 -13.5 5.5t-5.5 13.5z" />
    <glyph glyph-name="two" unicode="2" horiz-adv-x="518" 
d="M31 19v23q95 115 259 333q51 62 51 111q0 37 -27.5 64t-78.5 27q-58 0 -112 -59q-6 -6 -14 -6q-7 0 -13 6l-48 48q-5 5 -5.5 12.5t4.5 13.5q3 4 9 10.5t26 23.5t41.5 30t54 23.5t66.5 10.5q104 0 163.5 -57t59.5 -142q0 -31 -9.5 -60t-21.5 -48t-36 -54
q-30 -42 -172 -222h216q8 0 13.5 -5.5t5.5 -13.5v-69q0 -8 -5.5 -13.5t-13.5 -5.5h-394q-8 0 -13.5 5.5t-5.5 13.5z" />
    <glyph glyph-name="three" unicode="3" horiz-adv-x="522" 
d="M36 79q-10 12 1 25l51 49q14 12 26 0q3 -4 19 -15.5t46.5 -25t57.5 -13.5q42 0 74 27t32 67q0 42 -36.5 70.5t-101.5 28.5h-56q-8 0 -13.5 5.5t-5.5 14.5v63q0 20 19 20h56q59 0 91.5 26t32.5 66t-28.5 66t-68.5 26q-60 0 -101 -48q-12 -14 -27 -1l-49 46q-6 6 -5.5 13
t5.5 13q3 4 9 10t25 21t39.5 26.5t52 21t62.5 9.5q90 0 151.5 -50.5t61.5 -132.5q0 -53 -32 -95t-71 -61v-3q20 -8 39.5 -22t38.5 -33.5t31 -48t12 -59.5q0 -86 -64 -140.5t-166 -54.5q-132 0 -208 89z" />
    <glyph glyph-name="four" unicode="4" horiz-adv-x="597" 
d="M35 145q-8 0 -13.5 5.5t-5.5 13.5v83l360 438q6 6 15 6h54q8 0 13.5 -5.5t5.5 -13.5v-426h80q8 0 13.5 -5t5.5 -13v-62q0 -8 -5.5 -13.5t-13.5 -5.5h-80l1 -128q0 -8 -5.5 -13.5t-13.5 -5.5h-83q-8 0 -13.5 6t-5.5 13v126h-309zM148 249h200v240z" />
    <glyph glyph-name="five" unicode="5" horiz-adv-x="528" 
d="M57 73q-10 12 -10.5 18.5t8.5 15.5l50 49q12 11 24 1q6 -6 20.5 -16.5t46.5 -25t62 -14.5q50 0 83 34.5t33 83.5t-32 80.5t-89 31.5h-154q-14 0 -22.5 11t-8.5 24v295q0 8 5.5 13.5t13.5 5.5h316q8 0 13.5 -6t5.5 -13v-68q0 -8 -5.5 -13.5t-13.5 -5.5h-222v-133h86
q106 0 167.5 -61.5t61.5 -160.5q0 -94 -70 -161.5t-172 -67.5q-38 0 -72 8.5t-58 22t-40 26.5t-27 26z" />
    <glyph glyph-name="six" unicode="6" horiz-adv-x="539" 
d="M43 266q0 60 14.5 114.5t36.5 95t53 76t61.5 59t64 43.5t57.5 30.5t46 17.5q22 6 28 -14l23 -59q8 -20 -18 -29q-16 -6 -37.5 -15.5t-50.5 -27t-54.5 -38.5t-47 -50.5t-30.5 -60.5q16 10 49.5 19t64.5 9q38 0 74 -14t65.5 -40.5t47 -69t17.5 -93.5q0 -62 -30.5 -114.5
t-82.5 -83.5t-113 -31q-57 0 -103 22t-75 60t-44.5 87.5t-15.5 106.5zM280 104q47 0 80.5 35t33.5 82q0 48 -33.5 82.5t-81.5 34.5q-45 0 -75.5 -27t-40.5 -60q0 -26 7 -51.5t20.5 -47.5t37 -35t52.5 -13z" />
    <glyph glyph-name="seven" unicode="7" horiz-adv-x="484" 
d="M53 19v11l260 542h-264q-8 0 -13.5 6t-5.5 13v70q0 8 6 13.5t13 5.5h416q8 0 13.5 -6t5.5 -13v-7l-298 -627q-12 -27 -34 -27h-74q-25 0 -25 19z" />
    <glyph glyph-name="eight" unicode="8" horiz-adv-x="567" 
d="M47 182q0 30 14.5 60t36 51.5t39.5 35t31 20.5v3q-17 9 -33.5 23t-33 33.5t-26.5 45.5t-10 53q0 82 62.5 132.5t154.5 50.5q96 0 158.5 -50.5t62.5 -132.5q0 -27 -10 -52t-26.5 -44.5t-32.5 -33.5t-34 -24v-4q20 -10 39 -24.5t38 -35t31.5 -49t12.5 -58.5
q0 -84 -65.5 -138t-173.5 -54q-106 0 -170.5 54.5t-64.5 137.5zM284 407q45 10 68 35.5t23 59.5q0 36 -27 60.5t-66 24.5q-36 0 -62.5 -24.5t-26.5 -60.5q0 -35 22.5 -59.5t68.5 -35.5zM180 184q0 -40 31 -66t73 -26t73 26t31 66q0 36 -28 65.5t-76 40.5q-48 -11 -76 -40.5
t-28 -65.5z" />
    <glyph glyph-name="nine" unicode="9" horiz-adv-x="539" 
d="M112 51q-8 20 18 29q16 6 38 15.5t51 27t54 38.5t46.5 50.5t30.5 60.5q-16 -10 -49 -19t-65 -9q-38 0 -74 14t-65 40.5t-47 69t-18 93.5q0 62 31 114.5t83 83.5t112 31q57 0 103 -22t75 -60t44.5 -87.5t15.5 -106.5q0 -60 -14 -114.5t-36.5 -95t-53.5 -76t-61.5 -59
t-64 -43.5t-58 -30.5t-45.5 -17.5q-22 -6 -28 14zM260 342q45 0 75.5 27t40.5 60q0 26 -7 51.5t-21 47.5t-37 35t-52 13q-47 0 -80.5 -35t-33.5 -82q0 -48 33.5 -82.5t81.5 -34.5z" />
    <glyph glyph-name="colon" unicode=":" horiz-adv-x="268" 
d="M185 12q-21 -21 -51 -21t-51 21t-21 51t21 51t51 21t51 -21t21 -51t-21 -51zM185 288q-21 -21 -51 -21t-51 21t-21 51t21 51t51 21t51 -21t21 -51t-21 -51z" />
    <glyph glyph-name="semicolon" unicode=";" horiz-adv-x="247" 
d="M122 124q14 0 28 -5.5t27 -17.5t20.5 -34t7.5 -51q0 -102 -90 -181q-12 -10 -23 1l-14 15q-11 11 2 22q6 4 15 12.5t22 24.5t22 38.5t9 46.5l-4 -1q-4 -1 -11.5 -2.5t-14.5 -1.5q-28 0 -47.5 19.5t-19.5 47.5t20.5 47.5t50.5 19.5zM170 287q-21 -21 -51 -21t-51 21
t-21 51t21 51t51 21t51 -21t21 -51t-21 -51z" />
    <glyph glyph-name="less" unicode="&#x3c;" horiz-adv-x="436" 
d="M29 210q-10 6 -10 17v5q0 11 10 17l347 212q10 6 19 1t9 -17v-70q0 -9 -9 -16l-215 -128l215 -124q9 -7 9 -16v-70q0 -12 -9 -17t-19 1z" />
    <glyph glyph-name="equal" unicode="=" horiz-adv-x="488" 
d="M81 338q-8 0 -13.5 6t-5.5 13v56q0 8 5.5 13.5t13.5 5.5h326q8 0 13.5 -6t5.5 -13v-56q0 -8 -5.5 -13.5t-13.5 -5.5h-326zM81 127q-8 0 -13.5 5.5t-5.5 13.5v57q0 8 5.5 13.5t13.5 5.5h326q8 0 13.5 -6t5.5 -13v-57q0 -8 -5.5 -13.5t-13.5 -5.5h-326z" />
    <glyph glyph-name="greater" unicode="&#x3e;" horiz-adv-x="436" 
d="M32 21v70q0 10 9 16l214 124l-214 128q-9 6 -9 16v70q0 12 9 17t19 -1l347 -212q10 -6 10 -17v-5q0 -11 -10 -17l-347 -205q-10 -6 -19 -1t-9 17z" />
    <glyph glyph-name="question" unicode="?" horiz-adv-x="449" 
d="M165 272q-8 0 -13.5 5.5t-5.5 13.5v42q0 22 10 42.5t26 36t34 31.5t33 29t25.5 29.5t10.5 32.5q0 28 -21.5 47.5t-58.5 19.5q-21 0 -40 -6.5t-29 -14.5t-22 -18t-17 -13q-12 -8 -22 1l-47 46q-6 6 -6 13t6 13q3 4 8.5 10t23.5 21t39 26.5t55 21t70 9.5q80 0 137 -48
t57 -120q0 -34 -16 -63t-38 -49t-44 -37t-38 -34t-16 -33v-33q0 -10 -5 -15.5t-15 -5.5h-81zM205 155q34 0 58.5 -24.5t24.5 -58.5t-24.5 -58t-58.5 -24t-58 24t-24 58t24.5 58.5t57.5 24.5z" />
    <glyph glyph-name="at" unicode="@" horiz-adv-x="986" 
d="M32 223q0 106 35 196t96.5 154.5t150.5 100.5t194 36q102 0 185 -32t137.5 -88.5t84 -134t29.5 -167.5q0 -42 -7 -82t-24.5 -80t-43 -69.5t-64.5 -48t-88 -18.5q-90 0 -119 78h-8q-17 -34 -51 -56t-79 -22q-78 0 -129.5 62t-51.5 149q0 90 52 149.5t132 59.5
q66 0 121 -59q2 6 5 15.5t4.5 12.5t5 8.5t7 7t10 3.5t15.5 2h17q8 0 13.5 -5.5t5.5 -13.5v-183q0 -62 16.5 -84t45.5 -22q32 0 55.5 27t35.5 70t12 94q0 70 -21 128.5t-61 102.5t-103 68.5t-143 24.5q-166 0 -264.5 -103.5t-98.5 -280.5q0 -120 66.5 -213.5t174.5 -138.5
q17 -8 11 -24l-24 -63q-7 -17 -22 -11q-138 50 -226.5 173t-88.5 277zM383 208q-3 -47 23.5 -79t63.5 -32q44 0 64 30.5t21 78.5v37q-4 22 -28.5 44t-57.5 22q-36 0 -60 -28t-26 -73z" />
    <glyph glyph-name="A" unicode="A" horiz-adv-x="663" 
d="M17 0q-11 0 -16 8t-1 18l311 673q6 11 17 11h10q12 0 17 -11l308 -673q4 -10 -1 -18t-16 -8h-87q-11 0 -17 4.5t-12 15.5l-49 108h-299l-49 -108q-8 -20 -29 -20h-87zM231 239h201l-100 220h-3z" />
    <glyph glyph-name="B" unicode="B" horiz-adv-x="617" 
d="M91 19v662q0 8 5.5 13.5t13.5 5.5h229q90 0 150.5 -53t60.5 -132q0 -53 -34 -96t-76 -63q22 -7 43 -20.5t41.5 -32.5t33 -48t12.5 -62q0 -84 -63 -138.5t-155 -54.5h-242q-8 0 -13.5 5.5t-5.5 13.5zM220 406h107q38 0 62 26t24 64t-24 61.5t-62 23.5h-107v-175zM220 118
h121q38 0 64 26t26 65q0 36 -31 61.5t-71 25.5h-109v-178z" />
    <glyph glyph-name="B" unicode="&#xe000;" horiz-adv-x="617" 
d="M91 19v662q0 8 5.5 13.5t13.5 5.5h229q90 0 150.5 -53t60.5 -132q0 -53 -34 -96t-76 -63q22 -7 43 -20.5t41.5 -32.5t33 -48t12.5 -62q0 -84 -63 -138.5t-155 -54.5h-242q-8 0 -13.5 5.5t-5.5 13.5zM220 406h107q38 0 62 26t24 64t-24 61.5t-62 23.5h-107v-175zM220 118
h121q38 0 64 26t26 65q0 36 -31 61.5t-71 25.5h-109v-178z" />
    <glyph glyph-name="C" unicode="C" horiz-adv-x="684" 
d="M401 710q74 0 131.5 -23t110.5 -70q6 -6 6.5 -14t-5.5 -14l-61 -63q-5 -6 -12 -6t-13 6q-32 28 -72 43.5t-82 15.5q-94 0 -158.5 -68.5t-64.5 -164.5q0 -62 29 -115t80.5 -84.5t114.5 -31.5q82 0 153 57q6 5 13 4.5t12 -4.5l62 -64q6 -6 5.5 -14t-6.5 -13
q-100 -97 -243 -97q-98 0 -181.5 48t-131.5 130t-48 181t48 182t131 131t182 48z" />
    <glyph glyph-name="D" unicode="D" horiz-adv-x="738" 
d="M91 19v662q0 8 5.5 13.5t12.5 5.5h237q71 0 136 -28t112 -74.5t75 -111t28 -135.5q0 -96 -47.5 -176.5t-128 -127.5t-175.5 -47h-237q-8 0 -13 5.5t-5 13.5zM220 122h114q98 0 161.5 65t63.5 164q0 98 -64 163t-161 65h-114v-457z" />
    <glyph glyph-name="E" unicode="E" horiz-adv-x="588" 
d="M91 19v662q0 8 5.5 13.5t13.5 5.5h407q8 0 13.5 -6t5.5 -13v-82q0 -8 -5.5 -13.5t-13.5 -5.5h-296v-164h247q8 0 13.5 -6t5.5 -13v-83q0 -8 -5.5 -13.5t-13.5 -5.5h-247v-175h296q8 0 13.5 -6t5.5 -13v-82q0 -8 -5.5 -13.5t-13.5 -5.5h-407q-8 0 -13.5 5.5t-5.5 13.5z
" />
    <glyph glyph-name="E" unicode="&#xe001;" horiz-adv-x="588" 
d="M91 19v662q0 8 5.5 13.5t13.5 5.5h407q8 0 13.5 -6t5.5 -13v-82q0 -8 -5.5 -13.5t-13.5 -5.5h-296v-164h247q8 0 13.5 -6t5.5 -13v-83q0 -8 -5.5 -13.5t-13.5 -5.5h-247v-175h296q8 0 13.5 -6t5.5 -13v-82q0 -8 -5.5 -13.5t-13.5 -5.5h-407q-8 0 -13.5 5.5t-5.5 13.5z
" />
    <glyph glyph-name="F" unicode="F" horiz-adv-x="564" 
d="M91 19v662q0 8 5.5 13.5t13.5 5.5h407q8 0 13.5 -6t5.5 -13v-82q0 -8 -5.5 -13.5t-13.5 -5.5h-296v-188h247q8 0 13.5 -6t5.5 -13v-82q0 -8 -5.5 -13.5t-13.5 -5.5h-247v-253q0 -8 -5.5 -13.5t-13.5 -5.5h-92q-8 0 -13.5 5.5t-5.5 13.5z" />
    <glyph glyph-name="G" unicode="G" horiz-adv-x="712" 
d="M400 710q66 0 129 -24t115 -69q6 -6 6.5 -14t-5.5 -14l-62 -65q-12 -12 -26 0q-66 58 -151 58q-61 0 -112.5 -32t-81.5 -85t-30 -115t30 -114t82 -83.5t113 -31.5q56 0 119 25v85h-80q-8 0 -13.5 5.5t-5.5 12.5v79q0 8 5.5 13.5t13.5 5.5h192q8 0 13 -5.5t5 -13.5v-256
q0 -10 -8 -16q-4 -2 -12 -7t-33.5 -16t-53 -19.5t-68.5 -15.5t-81 -7q-98 0 -180.5 47.5t-130.5 129.5t-48 181t48 182t130.5 131t180.5 48z" />
    <glyph glyph-name="H" unicode="H" horiz-adv-x="769" 
d="M91 19v662q0 8 5.5 13.5t13.5 5.5h93q8 0 13.5 -6t5.5 -13v-265h326v265q0 8 5.5 13.5t13.5 5.5h92q8 0 13.5 -6t5.5 -13v-662q0 -8 -6 -13.5t-13 -5.5h-92q-8 0 -13.5 6t-5.5 13v276h-326v-276q0 -8 -5.5 -13.5t-13.5 -5.5h-93q-8 0 -13.5 5.5t-5.5 13.5z" />
    <glyph glyph-name="I" unicode="I" horiz-adv-x="313" 
d="M91 19v662q0 8 5.5 13.5t13.5 5.5h93q8 0 13.5 -6t5.5 -13v-662q0 -8 -6 -13.5t-13 -5.5h-93q-8 0 -13.5 5.5t-5.5 13.5z" />
    <glyph glyph-name="J" unicode="J" horiz-adv-x="418" 
d="M-16 63q-8 13 2 25l52 53q15 14 30 -1q30 -32 66 -32q32 0 56 26t24 75v472q0 8 5.5 13.5t13.5 5.5h94q8 0 13.5 -6t5.5 -13v-472q0 -102 -60 -160.5t-150 -58.5q-93 0 -152 73z" />
    <glyph glyph-name="K" unicode="K" horiz-adv-x="655" 
d="M91 24v652q0 10 6.5 17t17.5 7h88q10 0 17 -7t7 -17v-270l252 284q8 10 19 10h100q14 0 20 -12.5t-4 -23.5l-261 -294l280 -335q8 -10 2.5 -22.5t-20.5 -12.5h-109q-14 0 -18 7l-261 322v-305q0 -10 -7 -17t-17 -7h-88q-10 0 -17 7t-7 17z" />
    <glyph glyph-name="L" unicode="L" horiz-adv-x="505" 
d="M91 19v662q0 8 5.5 13.5t13.5 5.5h92q8 0 13.5 -6t5.5 -13v-561h255q8 0 13.5 -6t5.5 -13v-82q0 -8 -5.5 -13.5t-13.5 -5.5h-366q-8 0 -13.5 5.5t-5.5 13.5z" />
    <glyph glyph-name="M" unicode="M" horiz-adv-x="873" 
d="M45 23l119 672q2 15 18 15h16q12 0 17 -10l220 -472h3l220 472q5 10 17 10h16q16 0 18 -15l118 -672q2 -10 -3 -16.5t-15 -6.5h-91q-6 0 -12 5t-7 10l-59 379h-3l-175 -393q-4 -11 -17 -11h-18q-12 0 -17 11l-177 393h-3l-58 -379q-1 -6 -6.5 -10.5t-11.5 -4.5h-90
q-10 0 -15.5 6.5t-3.5 16.5z" />
    <glyph glyph-name="N" unicode="N" horiz-adv-x="773" 
d="M91 19v673q0 8 5.5 13t13.5 5h25l416 -442h1v413q0 8 5.5 13.5t13.5 5.5h92q8 0 13.5 -6t5.5 -13v-673q0 -8 -6 -13t-13 -5h-24l-418 459h-1v-430q0 -8 -5.5 -13.5t-13.5 -5.5h-91q-8 0 -13.5 5.5t-5.5 13.5z" />
    <glyph glyph-name="O" unicode="O" horiz-adv-x="800" 
d="M88 168q-47 82 -47 181t47.5 182t130.5 131t181 48t181 -48t131 -131t48 -182t-48 -181t-131 -130t-181 -48t-181 48t-131 130zM171 349q0 -94 67.5 -161.5t161.5 -67.5q62 0 115 31t84 83.5t31 114.5t-31 115.5t-84 84.5t-115 31t-115 -31t-83.5 -84.5t-30.5 -115.5z
" />
    <glyph glyph-name="P" unicode="P" horiz-adv-x="592" 
d="M91 19v662q0 8 5.5 13.5t13.5 5.5h235q92 0 158 -65t66 -156q0 -93 -65.5 -159t-157.5 -66h-125v-235q0 -8 -5.5 -13.5t-13.5 -5.5h-92q-8 0 -13.5 5.5t-5.5 13.5zM221 376h116q42 0 72.5 30t30.5 74q0 41 -30 69t-73 28h-116v-201z" />
    <glyph glyph-name="Q" unicode="Q" horiz-adv-x="801" 
d="M760 349q0 -100 -53 -185.5t-142 -134.5l125 -197q6 -10 1 -20t-17 -10h-106q-4 0 -9 3t-7 7l-107 181q-24 -3 -45 -3q-98 0 -181 48t-130.5 130t-47.5 181t47.5 182t130.5 131t181 48t181 -48t131 -131t48 -182zM171 349q0 -94 67.5 -161.5t161.5 -67.5q62 0 115 31
t84 83.5t31 114.5t-31 115.5t-84 84.5t-115 31t-115 -31t-83.5 -84.5t-30.5 -115.5z" />
    <glyph glyph-name="R" unicode="R" horiz-adv-x="666" 
d="M91 19v662q0 8 5.5 13.5t13.5 5.5h286q90 0 154 -63t64 -152q0 -68 -40.5 -121.5t-107.5 -80.5l137 -254q6 -10 0.5 -19.5t-17.5 -9.5h-105q-12 0 -16 9l-133 265h-111v-255q0 -8 -5.5 -13.5t-13.5 -5.5h-92q-8 0 -13.5 5.5t-5.5 13.5zM222 381h163q40 0 69.5 30t29.5 72
q0 40 -29.5 68.5t-69.5 28.5h-163v-199z" />
    <glyph glyph-name="S" unicode="S" horiz-adv-x="542" 
d="M55 68q-8 8 -9.5 12.5t4.5 17.5l36 62q6 10 17 11.5t17 -4.5l5 -3q5 -4 11.5 -8t16 -10t20.5 -11t23 -11t24.5 -10t26 -6.5t24.5 -2.5q39 0 65 22.5t26 54.5q0 37 -31 65.5t-96 54.5q-31 12 -56 25.5t-50.5 33t-43 41.5t-28 52t-10.5 64q0 35 13.5 67.5t39.5 61.5
t70.5 46t101.5 17q36 0 71 -8t61 -20.5t41.5 -21.5t26.5 -17q8 -4 10 -14.5t-4 -18.5l-38 -57q-6 -10 -16 -13.5t-19 1.5q-88 55 -139 55q-40 0 -64 -22t-24 -48q0 -34 28 -60.5t90 -51.5q34 -14 59.5 -26t55.5 -33t49 -43t32 -54.5t13 -69.5q0 -80 -64 -139t-166 -59
q-44 0 -83.5 9t-67 23t-43.5 25t-26 21z" />
    <glyph glyph-name="S" unicode="&#xe002;" horiz-adv-x="542" 
d="M55 68q-8 8 -9.5 12.5t4.5 17.5l36 62q6 10 17 11.5t17 -4.5l5 -3q5 -4 11.5 -8t16 -10t20.5 -11t23 -11t24.5 -10t26 -6.5t24.5 -2.5q39 0 65 22.5t26 54.5q0 37 -31 65.5t-96 54.5q-31 12 -56 25.5t-50.5 33t-43 41.5t-28 52t-10.5 64q0 35 13.5 67.5t39.5 61.5
t70.5 46t101.5 17q36 0 71 -8t61 -20.5t41.5 -21.5t26.5 -17q8 -4 10 -14.5t-4 -18.5l-38 -57q-6 -10 -16 -13.5t-19 1.5q-88 55 -139 55q-40 0 -64 -22t-24 -48q0 -34 28 -60.5t90 -51.5q34 -14 59.5 -26t55.5 -33t49 -43t32 -54.5t13 -69.5q0 -80 -64 -139t-166 -59
q-44 0 -83.5 9t-67 23t-43.5 25t-26 21z" />
    <glyph glyph-name="T" unicode="T" horiz-adv-x="501" 
d="M185 19v561h-153q-8 0 -13.5 6t-5.5 13v82q0 8 5.5 13.5t13.5 5.5h437q8 0 13.5 -6t5.5 -13v-82q0 -8 -5.5 -13.5t-13.5 -5.5h-153v-561q0 -8 -6 -13.5t-13 -5.5h-93q-8 0 -13.5 5.5t-5.5 13.5z" />
    <glyph glyph-name="U" unicode="U" horiz-adv-x="719" 
d="M81 265v416q0 8 5.5 13.5t13.5 5.5h95q8 0 13.5 -6t5.5 -13v-409q0 -65 40.5 -108.5t104.5 -43.5t105 43.5t41 107.5v410q0 8 5.5 13.5t13.5 5.5h95q8 0 13.5 -6t5.5 -13v-416q0 -75 -36.5 -138t-101 -100t-141.5 -37t-141 37t-100.5 100t-36.5 138z" />
    <glyph glyph-name="V" unicode="V" horiz-adv-x="663" 
d="M309 1l-309 673q-4 10 1 18t16 8h102q12 0 17 -11l192 -430h7l192 430q4 11 17 11h102q11 0 16.5 -8t0.5 -18l-310 -673q-6 -11 -17 -11h-10q-11 0 -17 11z" />
    <glyph glyph-name="W" unicode="W" horiz-adv-x="899" 
d="M218 4l-189 672q-3 10 2 17t16 7h92q6 0 11.5 -4t6.5 -10l104 -399h4l159 412q4 11 17 11h18q14 0 17 -11l160 -412h4l102 399q2 6 7 10t11 4h92q10 0 15.5 -7t2.5 -17l-189 -672q-2 -6 -7 -10t-11 -4h-16q-14 0 -17 11l-179 453h-5l-177 -453q-6 -11 -17 -11h-16
q-6 0 -11 4t-7 10z" />
    <glyph glyph-name="X" unicode="X" horiz-adv-x="632" 
d="M30 28l208 331l-200 313q-6 10 -1 19t18 9h116q9 0 16 -9l128 -212h1l130 212q4 9 16 9h116q12 0 17.5 -9t-0.5 -19l-201 -313l208 -331q6 -10 1 -19t-18 -9h-108q-12 0 -17 9l-143 229h-3l-141 -229q-7 -9 -17 -9h-108q-13 0 -18.5 9t0.5 19z" />
    <glyph glyph-name="Y" unicode="Y" horiz-adv-x="583" 
d="M225 19v318l-228 334q-6 10 -1 19.5t17 9.5h102q9 0 16 -9l160 -230l160 230q6 9 16 9h103q12 0 17 -9.5t-1 -19.5l-231 -333v-319q0 -8 -5.5 -13.5t-13.5 -5.5h-92q-8 0 -13.5 5.5t-5.5 13.5z" />
    <glyph glyph-name="Z" unicode="Z" horiz-adv-x="538" 
d="M25 19v18l298 538v4h-250q-8 0 -13.5 5.5t-5.5 13.5v83q0 8 6 13.5t13 5.5h418q8 0 13.5 -6t5.5 -13v-13l-294 -545v-2h255q8 0 13.5 -5.5t5.5 -13.5v-83q0 -8 -5.5 -13.5t-13.5 -5.5h-427q-8 0 -13.5 5.5t-5.5 13.5z" />
    <glyph glyph-name="bracketleft" unicode="[" horiz-adv-x="349" 
d="M181 -200h130q8 0 13.5 -5t5.5 -13v-63q0 -8 -6 -13.5t-13 -5.5h-226q-8 0 -13.5 6t-5.5 13v962q0 8 6 13.5t13 5.5h226q8 0 13.5 -6t5.5 -13v-62q0 -8 -6 -13.5t-13 -5.5h-130v-800z" />
    <glyph glyph-name="backslash" unicode="\" horiz-adv-x="357" 
d="M215 13l-195 662q-3 10 2.5 17.5t15.5 7.5h76q6 0 11 -4t7 -9l196 -662q3 -10 -2.5 -17.5t-15.5 -7.5h-77q-6 0 -11 4t-7 9z" />
    <glyph glyph-name="bracketright" unicode="]" horiz-adv-x="349" 
d="M38 -200h130v800h-130q-8 0 -13.5 5.5t-5.5 13.5v62q0 8 5.5 13.5t13.5 5.5h226q8 0 13.5 -6t5.5 -13v-962q0 -8 -5.5 -13.5t-13.5 -5.5h-226q-8 0 -13.5 6t-5.5 13v63q0 8 5.5 13t13.5 5z" />
    <glyph glyph-name="asciicircum" unicode="^" horiz-adv-x="524" 
d="M53 385q-12 0 -17 9t1 19l208 291q6 10 17 10h5q11 0 17 -10l203 -291q6 -10 1 -19t-17 -9h-69q-9 0 -16 9l-123 169l-125 -169q-7 -9 -16 -9h-69z" />
    <glyph glyph-name="underscore" unicode="_" horiz-adv-x="415" 
d="M19 -29q0 8 5.5 13.5t13.5 5.5h339q8 0 13.5 -5.5t5.5 -13.5v-39q0 -8 -5.5 -13t-13.5 -5h-339q-8 0 -13.5 5t-5.5 13v39z" />
    <glyph glyph-name="grave" unicode="`" horiz-adv-x="302" 
d="M234 528l-175 77q-16 8 -6 27l28 51q4 6 11.5 6.5t14.5 -3.5l164 -97q5 -2 7 -7.5t-1 -11.5l-18 -36q-6 -14 -25 -6z" />
    <glyph glyph-name="a" unicode="a" horiz-adv-x="427" 
d="M31 127q0 55 42.5 90.5t117.5 35.5q18 0 36.5 -2.5t27.5 -5.5l9 -3q0 38 -12 53.5t-40 15.5q-26 0 -60 -4.5t-52 -10.5q-20 -6 -23 18l-9 52q-4 19 14 25q6 2 24 6.5t50.5 8.5t61.5 4q46 0 77 -11.5t47 -35t23 -53.5t7 -74v-217q0 -8 -6 -13.5t-13 -5.5h-36q-10 0 -17 14
l-12 27q-56 -51 -122 -51q-60 0 -97.5 37t-37.5 100zM141 127q0 -22 14.5 -37t37.5 -15q22 0 42.5 13.5t26.5 25.5v55q-27 12 -56 12t-47 -15t-18 -39z" />
    <glyph glyph-name="b" unicode="b" 
d="M60 19v662q0 8 6 13.5t13 5.5h85q8 0 13.5 -6t5.5 -13v-289q46 18 89 18q88 0 143 -60t55 -150q0 -87 -55.5 -148.5t-136.5 -61.5q-24 0 -46 6t-37 15t-26 18t-17 15l-5 6l-10 -31q-5 -19 -19 -19h-39q-8 0 -13.5 5.5t-5.5 13.5zM179 163q7 -24 28 -44.5t56 -20.5
q39 0 65 30t26 72t-28 72t-69 30q-22 0 -41.5 -6t-27.5 -11l-9 -6v-116z" />
    <glyph glyph-name="b" unicode="&#xe003;" 
d="M60 19v662q0 8 6 13.5t13 5.5h85q8 0 13.5 -6t5.5 -13v-289q46 18 89 18q88 0 143 -60t55 -150q0 -87 -55.5 -148.5t-136.5 -61.5q-24 0 -46 6t-37 15t-26 18t-17 15l-5 6l-10 -31q-5 -19 -19 -19h-39q-8 0 -13.5 5.5t-5.5 13.5zM179 163q7 -24 28 -44.5t56 -20.5
q39 0 65 30t26 72t-28 72t-69 30q-22 0 -41.5 -6t-27.5 -11l-9 -6v-116z" />
    <glyph glyph-name="c" unicode="c" horiz-adv-x="426" 
d="M29 200q0 87 63.5 148.5t149.5 61.5q90 0 148 -71q6 -6 4 -14.5t-9 -13.5l-46 -44q-10 -10 -25 3q-28 32 -69 32t-69.5 -30t-28.5 -72t28.5 -72t68.5 -30q18 0 34 6t24 12t18 17q3 2 4 3q12 12 25 3l43 -37q17 -14 7 -28q-54 -84 -158 -84q-86 0 -149 61t-63 149z" />
    <glyph glyph-name="d" unicode="d" 
d="M30 200q0 90 55 150t143 60q42 0 89 -18v289q0 8 5.5 13.5t13.5 5.5h85q8 0 13.5 -6t5.5 -13v-662q0 -8 -6 -13.5t-13 -5.5h-39q-14 0 -19 19l-10 31q-2 -2 -5.5 -6t-16.5 -14.5t-27 -18.5t-36 -14.5t-46 -6.5q-81 0 -136.5 61.5t-55.5 148.5zM237 98q36 0 56.5 20.5
t27.5 44.5v116l-9 6t-26.5 10.5t-42.5 6.5q-42 0 -69.5 -30t-27.5 -72t26 -72t65 -30z" />
    <glyph glyph-name="e" unicode="e" horiz-adv-x="445" 
d="M30 200q0 86 58 148t146 62q78 0 132.5 -53t54.5 -133q0 -13 -2 -27q0 -8 -6 -12.5t-13 -4.5h-256q2 -34 28.5 -60.5t67.5 -26.5q44 0 78 25q17 10 26 0l41 -47q6 -6 6 -12.5t-7 -13.5q-58 -55 -149 -55q-88 0 -146.5 61t-58.5 149zM153 250h151q-2 28 -23 48t-50 20
q-30 0 -52 -20t-26 -48z" />
    <glyph glyph-name="f" unicode="f" horiz-adv-x="344" 
d="M84 19v276h-34q-8 0 -13.5 5.5t-5.5 13.5v67q0 8 5.5 13.5t13.5 5.5h34v108q0 96 52 149t135 53q36 0 69 -12t49 -27q4 -4 5.5 -10.5t-1.5 -12.5l-34 -64q-3 -6 -10 -7.5t-14 2.5q-32 20 -59 20q-32 0 -49.5 -23.5t-17.5 -67.5v-108h100q8 0 13.5 -5.5t5.5 -13.5v-67
q0 -8 -5.5 -13.5t-13.5 -5.5h-100v-276q0 -8 -5.5 -13.5t-13.5 -5.5h-87q-8 0 -13.5 5.5t-5.5 13.5z" />
    <glyph glyph-name="g" unicode="g" horiz-adv-x="462" 
d="M18 30q0 22 8 41.5t19 32t22 21.5t18 13l8 4q-4 4 -8.5 11t-13 32t-8.5 51q0 71 50.5 122.5t123.5 51.5h182q8 0 13.5 -5.5t5.5 -13.5v-33q0 -14 -11 -17l-56 -18l4.5 -4.5t9.5 -11.5t12 -19.5t9.5 -28.5t4.5 -38q0 -62 -47.5 -109.5t-123.5 -47.5q-22 0 -48.5 4t-31.5 4
q-12 0 -24.5 -11t-12.5 -27t11.5 -25t28.5 -9h128q70 0 117.5 -38t47.5 -102q0 -73 -57.5 -121.5t-161.5 -48.5q-53 0 -94 12t-64 32.5t-34.5 44t-11.5 48.5q0 59 60 95v3q-8 2 -19 8.5t-24.5 18.5t-22.5 32t-9 46zM190 282q-20 -20 -20 -51t20 -51.5t50 -20.5t49.5 20.5
t19.5 51.5t-19.5 51.5t-49.5 20.5t-50 -21zM148 -151q0 -26 24 -42.5t64 -16.5q42 0 67.5 17t25.5 46q0 18 -16.5 33.5t-56.5 15.5q-37 0 -65 -4q-6 -2 -12 -5t-13.5 -9t-12.5 -15t-5 -20z" />
    <glyph glyph-name="h" unicode="h" horiz-adv-x="520" 
d="M60 19v662q0 8 6 13.5t13 5.5h85q8 0 13.5 -6t5.5 -13v-304q18 14 46 23.5t60 9.5q46 0 81.5 -17t56 -45t31 -63t10.5 -74v-192q0 -8 -6 -13.5t-13 -5.5h-81q-8 0 -13.5 6t-5.5 13v193q0 41 -21.5 65.5t-57.5 24.5q-34 0 -56.5 -19.5t-30.5 -51.5v-212q0 -19 -21 -19h-83
q-8 0 -13.5 5.5t-5.5 13.5z" />
    <glyph glyph-name="i" unicode="i" horiz-adv-x="241" 
d="M119 542q-28 0 -48 20t-20 49t19.5 49t48.5 20t49.5 -20t20.5 -49t-20.5 -49t-49.5 -20zM60 19v362q0 8 6 13.5t13 5.5h83q8 0 13.5 -5.5t5.5 -13.5v-362q0 -8 -5.5 -13.5t-13.5 -5.5h-83q-8 0 -13.5 5.5t-5.5 13.5z" />
    <glyph glyph-name="j" unicode="j" horiz-adv-x="242" 
d="M120 542q-28 0 -48 20t-20 49t20 49t48 20q29 0 49.5 -20t20.5 -49t-20.5 -49t-49.5 -20zM60 -108v489q0 8 6 13.5t13 5.5h84q8 0 13.5 -5.5t5.5 -13.5v-489q0 -96 -52 -149t-134 -53q-36 0 -69.5 12.5t-48.5 26.5q-5 4 -6 11t2 12l33 64q3 6 10 7.5t14 -2.5
q32 -20 59 -20q34 0 52 23.5t18 67.5z" />
    <glyph glyph-name="k" unicode="k" horiz-adv-x="489" 
d="M60 19v662q0 8 6 13.5t13 5.5h85q8 0 13.5 -6t5.5 -13v-433l138 140q14 12 25 12h91q12 0 16.5 -10.5t-3.5 -18.5l-149 -152l178 -191q8 -8 3.5 -18t-16.5 -10h-108q-11 0 -17 8l-158 180v-169q0 -8 -5.5 -13.5t-13.5 -5.5h-85q-8 0 -13.5 5.5t-5.5 13.5z" />
    <glyph glyph-name="l" unicode="l" horiz-adv-x="242" 
d="M60 19v662q0 8 6 13.5t13 5.5h84q8 0 13.5 -6t5.5 -13v-662q0 -8 -6 -13.5t-13 -5.5h-84q-8 0 -13.5 5.5t-5.5 13.5z" />
    <glyph glyph-name="m" unicode="m" horiz-adv-x="779" 
d="M60 19v362q0 8 6 13.5t13 5.5h37q14 0 17 -11l14 -38q19 22 53 40.5t81 18.5q79 0 130 -62q8 8 19.5 17t29.5 20t42.5 18t49.5 7q46 0 81 -16t55 -45t29.5 -63.5t9.5 -75.5v-191q0 -8 -5.5 -13.5t-13.5 -5.5h-81q-8 0 -13.5 6t-5.5 13v198q0 40 -19 62.5t-56 22.5
q-16 0 -30.5 -4t-24 -10.5t-16.5 -13t-10 -10.5l-3 -4q1 -20 1 -38v-203q0 -8 -6 -13.5t-13 -5.5h-75q-8 0 -13.5 6t-5.5 13v198q0 40 -18.5 62.5t-55.5 22.5q-34 0 -54.5 -19t-29.5 -44v-220q0 -8 -5.5 -13.5t-13.5 -5.5h-81q-8 0 -13.5 5.5t-5.5 13.5z" />
    <glyph glyph-name="n" unicode="n" horiz-adv-x="519" 
d="M60 19v362q0 8 6 13.5t13 5.5h38q12 0 17 -12l14 -37q8 8 18.5 16.5t28 18.5t42.5 17t52 7q46 0 81 -16t55.5 -44.5t31 -63t10.5 -75.5v-192q0 -8 -5.5 -13.5t-13.5 -5.5h-82q-8 0 -13.5 6t-5.5 13v198q0 40 -19.5 62.5t-55.5 22.5t-60.5 -19.5t-33.5 -43.5v-220
q0 -10 -5.5 -14.5t-19.5 -4.5h-74q-8 0 -13.5 5.5t-5.5 13.5z" />
    <glyph glyph-name="o" unicode="o" horiz-adv-x="468" 
d="M29 201q0 85 60.5 147t144.5 62t144.5 -62t60.5 -147q0 -86 -60.5 -148.5t-144.5 -62.5t-144.5 62.5t-60.5 148.5zM138 201q0 -43 28 -73t68 -30t68 30t28 73q0 42 -28 71.5t-68 29.5t-68 -29.5t-28 -71.5z" />
    <glyph glyph-name="p" unicode="p" 
d="M183 12v-293q0 -19 -24 -19h-80q-8 0 -13.5 6t-5.5 13v662q0 8 6 13.5t13 5.5h39q12 0 17 -12l13 -33q14 19 50 37t79 18q82 0 137.5 -61.5t55.5 -148.5q0 -88 -58 -149t-140 -61q-26 0 -50.5 7t-38.5 15zM178 121l9 -6t26.5 -10.5t42.5 -6.5q42 0 69.5 30t27.5 72
q0 43 -26.5 72.5t-66.5 29.5q-34 0 -55 -20t-27 -41v-120z" />
    <glyph glyph-name="q" unicode="q" 
d="M30 200q0 87 55.5 148.5t137.5 61.5q44 0 79.5 -18t49.5 -37l13 33q4 12 17 12h39q8 0 13.5 -5.5t5.5 -13.5v-662q0 -8 -6 -13.5t-13 -5.5h-80q-24 0 -24 19v293q-14 -8 -38.5 -15t-50.5 -7q-82 0 -140 61t-58 149zM147 198q0 -42 27.5 -71t69.5 -29q22 0 42 6t28 11l8 6
v120q-6 22 -27 41.5t-55 19.5q-40 0 -66.5 -30.5t-26.5 -73.5z" />
    <glyph glyph-name="r" unicode="r" horiz-adv-x="341" 
d="M60 19v362q0 8 6 13.5t13 5.5h38q13 0 18 -13l14 -39q10 14 22 26t37.5 24t53.5 12q38 0 62 -11t15 -29l-37 -65q-4 -7 -10.5 -9.5t-12.5 0.5q-18 6 -29 6q-26 0 -45 -13t-26 -28v-242q0 -19 -23 -19h-77q-8 0 -13.5 5.5t-5.5 13.5z" />
    <glyph glyph-name="s" unicode="s" horiz-adv-x="364" 
d="M44 27q-12 10 -6 21l27 54q3 8 10 9.5t13 -2.5q45 -24 91 -24q34 0 34 25q0 14 -13.5 24t-53.5 26q-58 22 -85.5 54t-27.5 78q0 50 37.5 84t109.5 34q76 0 123 -31q7 -4 10 -11.5t-1 -15.5l-25 -51q-8 -13 -24 -7q-45 21 -83 21q-34 0 -34 -23q0 -14 20 -24q7 -4 28 -12
q5 -2 7 -3q32 -12 54 -23.5t41.5 -28.5t29.5 -39t10 -50q0 -52 -43 -87t-116 -35q-45 0 -79.5 11.5t-53.5 25.5z" />
    <glyph glyph-name="s" unicode="&#xe004;" horiz-adv-x="364" 
d="M44 27q-12 10 -6 21l27 54q3 8 10 9.5t13 -2.5q45 -24 91 -24q34 0 34 25q0 14 -13.5 24t-53.5 26q-58 22 -85.5 54t-27.5 78q0 50 37.5 84t109.5 34q76 0 123 -31q7 -4 10 -11.5t-1 -15.5l-25 -51q-8 -13 -24 -7q-45 21 -83 21q-34 0 -34 -23q0 -14 20 -24q7 -4 28 -12
q5 -2 7 -3q32 -12 54 -23.5t41.5 -28.5t29.5 -39t10 -50q0 -52 -43 -87t-116 -35q-45 0 -79.5 11.5t-53.5 25.5z" />
    <glyph glyph-name="t" unicode="t" horiz-adv-x="345" 
d="M81 119v176h-34q-8 0 -13 5.5t-5 13.5v67q0 8 5.5 13.5t12.5 5.5h34v111q0 8 5.5 13.5t13.5 5.5l82 1q8 0 13 -5.5t5 -13.5v-112h88q8 0 13.5 -5.5t5.5 -13.5v-67q0 -8 -5.5 -13.5t-13.5 -5.5h-88v-160q0 -19 8 -25.5t23 -6.5q19 0 49 11q17 6 22 -11l20 -63
q3 -8 -0.5 -14.5t-10.5 -9.5q-4 -2 -21.5 -8t-46.5 -12t-51 -6q-111 0 -111 129z" />
    <glyph glyph-name="u" unicode="u" horiz-adv-x="503" 
d="M53 187v194q0 8 5.5 13.5t13.5 5.5h82q8 0 13.5 -5.5t5.5 -13.5v-197q0 -40 19.5 -63t53.5 -23q30 0 52.5 23t27.5 52v208q0 11 5 15t17 4h76q8 0 13.5 -5.5t5.5 -13.5v-362q0 -8 -5.5 -13.5t-13.5 -5.5h-37q-14 0 -19 15l-12 33q-1 -1 -7.5 -7t-10 -9t-12 -9.5t-15 -10
t-17 -8t-20.5 -7.5t-24 -5t-28 -2q-45 0 -78.5 16t-52.5 44.5t-28.5 62.5t-9.5 74z" />
    <glyph glyph-name="v" unicode="v" horiz-adv-x="418" 
d="M189 0l-182 376q-4 10 -0.5 17t14.5 7h87q12 0 18 -11l81 -186h2l86 186q6 11 24 11h78q11 0 15 -7t-1 -17l-183 -376q-6 -10 -17 -10h-5q-11 0 -17 10z" />
    <glyph glyph-name="w" unicode="w" horiz-adv-x="616" 
d="M143 1l-125 376q-4 10 1 16.5t16 6.5h72q5 0 11 -3.5t7 -8.5l60 -179h1l102 192q4 9 16 9h8q10 0 16 -9l101 -192h1l60 179q4 12 23 12h65q10 0 16 -7t2 -16l-125 -376q-4 -11 -18 -11h-4q-10 0 -16 9l-126 233h-1l-125 -233q-6 -9 -16 -9h-5q-13 0 -17 11z" />
    <glyph glyph-name="x" unicode="x" horiz-adv-x="451" 
d="M36 0q-12 0 -15.5 9.5t3.5 19.5l130 175l-126 167q-8 10 -3 19.5t18 9.5h83q24 0 33 -14l65 -94h1l66 94q10 14 30 14h90q12 0 16 -9.5t-4 -19.5l-126 -166l127 -176q7 -10 3.5 -19.5t-15.5 -9.5h-88q-17 0 -28 16l-71 100h-1l-76 -108q-6 -8 -16 -8h-96z" />
    <glyph glyph-name="y" unicode="y" horiz-adv-x="463" 
d="M171 28l-163 346q-4 10 1 18t16 8h90q12 0 17 -11l101 -226h1l100 226q4 7 9 9t15 2h80q12 0 17 -8t0 -18l-306 -662q-6 -12 -17 -12h-86q-12 0 -17 8t0 19z" />
    <glyph glyph-name="y" unicode="&#xe006;" horiz-adv-x="463" 
d="M171 28l-163 346q-4 10 1 18t16 8h90q12 0 17 -11l101 -226h1l100 226q4 7 9 9t15 2h80q12 0 17 -8t0 -18l-306 -662q-6 -12 -17 -12h-86q-12 0 -17 8t0 19z" />
    <glyph glyph-name="z" unicode="z" horiz-adv-x="366" 
d="M30 19v10l142 262v2h-114q-8 0 -13 5.5t-5 13.5v69q0 8 5 13.5t13 5.5h264q12 0 17.5 -8.5t-0.5 -18.5l-145 -264v-3h108q8 0 13.5 -5.5t5.5 -13.5v-68q0 -8 -5.5 -13.5t-13.5 -5.5h-253q-8 0 -13.5 5.5t-5.5 13.5z" />
    <glyph glyph-name="braceleft" unicode="{" horiz-adv-x="394" 
d="M103 -36v123q0 20 -12.5 36t-27.5 22.5t-29 9.5q-6 1 -10.5 6t-4.5 12v49q0 13 14 17q8 2 22.5 9t31 23.5t16.5 36.5v127q0 46 8.5 84.5t22.5 65.5t34 49t42 35.5t47 22.5t48 13t46 5q18 2 20 -17l4 -63q0 -8 -4 -12.5t-10 -5.5q-62 -14 -98 -59t-36 -118v-105
q0 -30 -11.5 -55.5t-27.5 -41t-27 -23t-17 -10.5v-4q12 -5 24.5 -13.5t27 -22.5t23 -37t8.5 -52v-107q0 -74 36.5 -118t97.5 -57q16 -4 14 -19l-4 -63q-1 -8 -7 -12.5t-13 -4.5q-24 1 -46.5 4.5t-47.5 12.5t-47 23t-42 35t-34 49t-22.5 66t-8.5 84z" />
    <glyph glyph-name="bar" unicode="|" horiz-adv-x="180" 
d="M65 -282v1023q0 8 5.5 13.5t13.5 5.5h13q8 0 13 -5.5t5 -13.5v-1023q0 -8 -5.5 -13t-13.5 -5h-12q-8 0 -13.5 5t-5.5 13z" />
    <glyph glyph-name="braceright" unicode="}" horiz-adv-x="394" 
d="M167 -36v107q0 28 8.5 51.5t23 37.5t27 22.5t24.5 13.5v4q-6 3 -17 10.5t-27 23t-27.5 41t-11.5 55.5v105q0 74 -36.5 118.5t-97.5 58.5q-6 1 -10.5 5.5t-3.5 12.5l4 63q2 18 20 17q24 -1 46.5 -5t47.5 -13t47 -22.5t42 -35.5t34 -49t22.5 -66t8.5 -84v-127
q0 -20 16.5 -36.5t31 -23.5t22.5 -9q14 -4 14 -17v-49q0 -8 -4.5 -12.5t-10.5 -5.5q-14 -2 -29 -9t-27.5 -22.5t-12.5 -36.5v-123q0 -46 -8.5 -84t-22.5 -66t-34 -49t-42 -35t-47 -23t-48 -12.5t-46 -4.5q-8 0 -13.5 5t-6.5 12l-4 63q-2 14 14 19q62 12 98 56.5t36 118.5z
" />
    <glyph glyph-name="asciitilde" unicode="~" horiz-adv-x="533" 
d="M78 194l-45 44q-12 13 -2 24q3 4 8 11t22 24t34 30t40.5 23.5t45.5 10.5q20 0 40.5 -7.5t30 -13.5t30.5 -20l10 -6q10 -7 12 -8.5t11 -6.5t14 -6t12 -3t14 -2q40 0 74 52q6 8 14 8q9 0 15 -6l42 -44q6 -4 6 -11t-4 -13q-3 -4 -8 -10.5t-21.5 -23.5t-32.5 -30t-40 -23.5
t-45 -10.5q-8 0 -15.5 1t-14.5 2.5t-12.5 3t-13 5t-11.5 5t-12 6.5t-10 6t-11 7t-10 7q-31 21 -46 25q-9 3 -19 3q-22 0 -41.5 -15.5t-32.5 -35.5q-6 -8 -14 -8t-14 6z" />
    <glyph glyph-name="exclamdown" unicode="&#xa1;" horiz-adv-x="266" 
d="M98 112q1 6 6.5 11t12.5 5h32q6 0 12 -5t7 -11l39 -279v-114q0 -8 -5.5 -13.5t-13.5 -5.5h-110q-8 0 -13.5 6t-5.5 13v112zM133 411q34 0 58.5 -24.5t24.5 -58.5t-24.5 -58t-58.5 -24t-58 24t-24 58t24.5 58.5t57.5 24.5z" />
    <glyph glyph-name="cent" unicode="&#xa2;" horiz-adv-x="412" 
d="M154 4q-60 23 -97.5 75.5t-37.5 120.5q0 87 63.5 148.5t149.5 61.5q11 0 31 -2l11 41q2 8 9 11.5t14 1.5l12 -3q8 -2 11.5 -8.5t1.5 -14.5l-12 -42q38 -17 70 -55q6 -6 4 -14.5t-9 -13.5l-46 -44q-10 -10 -25 3q-8 9 -22 18l-51 -189q22 0 39 6.5t23.5 12.5t20.5 18
q12 12 25 3l43 -37q17 -14 7 -28q-54 -84 -158 -84q-11 0 -29 2l-26 -96q-2 -8 -8.5 -11t-14.5 -2l-11 3q-8 2 -12 8t-2 14zM183 113l51 188q-40 0 -68.5 -29.5t-28.5 -71.5q0 -57 46 -87z" />
    <glyph glyph-name="sterling" unicode="&#xa3;" horiz-adv-x="485" 
d="M66 19v18q62 118 37 254h-43q-8 0 -13 5.5t-5 13.5v13q0 8 5 13.5t13 5.5h31q-2 10 -8.5 35t-10.5 40t-7.5 38t-3.5 43q0 97 60.5 154.5t151.5 57.5q26 0 51.5 -6t41.5 -12t34 -19t25 -18t19 -16q6 -4 6.5 -12t-4.5 -14l-49 -59q-5 -7 -13 -7.5t-14 4.5t-16 13t-35 20.5
t-45 12.5q-36 0 -62 -26t-26 -68q0 -29 17.5 -88t20.5 -73h116q8 0 13.5 -6t5.5 -13v-14q0 -8 -5.5 -13t-13.5 -5h-106q12 -96 -14 -180h196q8 0 13 -5.5t5 -13.5v-73q0 -8 -5 -13.5t-13 -5.5h-331q-8 0 -13.5 5.5t-5.5 13.5z" />
    <glyph glyph-name="currency" unicode="&#xa4;" horiz-adv-x="456" 
d="M96 161l-39 40q-5 5 -5 13.5t5 13.5l48 48q-26 58 1 112l-48 48q-5 5 -5 13.5t5 13.5l40 39q5 5 13 5q9 0 14 -5l47 -47q26 13 56 13t56 -13l47 47q5 5 13 5t14 -5l39 -40q6 -6 6 -13t-5 -13l-47 -47q26 -58 1 -114l47 -47q5 -5 5 -13t-5 -14l-40 -39q-6 -6 -14 -6
q-7 0 -12 5l-48 48q-27 -13 -57 -13t-57 13l-48 -48q-5 -5 -14 -5q-8 0 -13 5zM227 384q-22 0 -36.5 -15t-14.5 -37t14.5 -36.5t36.5 -14.5t37 14.5t15 36.5t-14.5 37t-37.5 15z" />
    <glyph glyph-name="yen" unicode="&#xa5;" horiz-adv-x="633" 
d="M139 120q-8 0 -13 6t-5 13v13q0 8 5.5 13.5t12.5 5.5h111v69h-111q-8 0 -13 6t-5 13v13q0 8 5.5 13.5t12.5 5.5h111v46l-228 334q-6 10 -1 19.5t17 9.5h103q9 0 16 -9l160 -230l160 230q7 9 16 9h102q12 0 17 -9.5t-1 -19.5l-231 -333v-47h109q8 0 13.5 -5.5t5.5 -13.5
v-14q0 -8 -5.5 -13t-13.5 -5h-109v-69h109q8 0 13.5 -5.5t5.5 -13.5v-14q0 -8 -5.5 -13t-13.5 -5h-109v-101q0 -8 -6 -13.5t-13 -5.5h-92q-8 0 -13.5 6t-5.5 13v101h-111z" />
    <glyph glyph-name="brokenbar" unicode="&#xa6;" horiz-adv-x="315" 
d="M151 392q-8 0 -13.5 5t-5.5 13v331q0 8 6 13.5t13 5.5h13q8 0 13 -5.5t5 -13.5v-331q0 -8 -6 -13t-13 -5h-12zM132 49q0 8 6 13.5t13 5.5h13q8 0 13 -5.5t5 -13.5v-331q0 -8 -6 -13t-13 -5h-12q-8 0 -13.5 5t-5.5 13v331z" />
    <glyph glyph-name="section" unicode="&#xa7;" horiz-adv-x="512" 
d="M71 -88q14 23 35 8l16 -10t34.5 -20t45 -19t48.5 -9q34 0 59.5 17.5t25.5 50.5q0 20 -10.5 38.5t-29 33t-37 24.5t-43.5 21q-180 74 -180 204q0 76 72 136q-72 66 -72 142q0 34 12.5 65t37.5 57.5t67.5 42.5t97.5 16q34 0 67.5 -8t59 -20t39.5 -20t25 -16q7 -4 9.5 -13
t-2.5 -18l-41 -59q-12 -18 -33 -5q-12 8 -28 17.5t-47 21t-54 11.5q-40 0 -63 -19.5t-23 -44.5q0 -32 27.5 -56.5t85.5 -48.5q34 -14 58 -25.5t53 -31t47.5 -40t31 -50t12.5 -63.5q0 -42 -22 -78t-51 -61q73 -67 73 -146q0 -76 -61 -131t-159 -55q-42 0 -80.5 8.5
t-64.5 22.5t-40.5 24t-23.5 19t-10.5 15t5.5 19zM155 260q0 -20 7.5 -35t29.5 -30t36 -22.5t53 -25.5l21 -9q2 1 4.5 3t9.5 9.5t12.5 15.5t9.5 22t4 30q0 70 -151 117l-4 -3q-4 -4 -6 -6.5t-6.5 -8t-7.5 -11t-6 -12.5t-4.5 -15.5t-1.5 -18.5z" />
    <glyph glyph-name="dieresis" unicode="&#xa8;" horiz-adv-x="414" 
d="M49 615q0 26 18.5 44.5t44.5 18.5t45 -18.5t19 -44.5t-19 -45t-45 -19t-44.5 18.5t-18.5 45.5zM250 615q0 26 18.5 44.5t44.5 18.5t45 -18.5t19 -44.5t-19 -45t-45 -19t-44.5 18.5t-18.5 45.5z" />
    <glyph glyph-name="copyright" unicode="&#xa9;" horiz-adv-x="804" 
d="M70 210q-28 67 -28 140t28.5 139.5t76.5 115t114.5 77t139.5 28.5t139.5 -29t115 -77t77 -114.5t28.5 -139.5t-28.5 -139.5t-77 -114.5t-115 -76.5t-139.5 -28.5t-139.5 28.5t-114.5 76.5t-77 114zM682 350q0 77 -37.5 141.5t-102 102t-141.5 37.5q-76 0 -140.5 -37.5
t-102.5 -102.5t-38 -141t38 -141t102.5 -102.5t140.5 -37.5t141 37.5t102.5 102.5t37.5 141zM223 348q0 78 54.5 133t132.5 55q64 0 112 -38q7 -6 7.5 -14t-5.5 -15l-34 -38q-9 -12 -25 -2q-22 16 -54 16q-39 0 -65.5 -27.5t-26.5 -66.5q0 -40 26.5 -67t65.5 -27q28 0 53 16
q6 4 13 3.5t12 -5.5l36 -40q6 -6 5.5 -14t-6.5 -14q-49 -42 -114 -42q-77 0 -132 55t-55 132z" />
    <glyph glyph-name="ordfeminine" unicode="&#xaa;" horiz-adv-x="311" 
d="M121 398q-44 0 -72 28t-28 74q0 41 31.5 67.5t86.5 26.5q14 0 27.5 -2t19.5 -4l7 -2q0 30 -8.5 42t-33.5 12q-27 0 -78 -12q-14 -3 -17 15l-6 33q-3 14 9 19q7 4 39 9.5t62 5.5q64 0 89 -31t25 -98v-161q0 -6 -4 -10t-10 -4h-27q-9 0 -14 10q-1 4 -4 11t-4 10
q-12 -12 -21.5 -18.5t-28 -13.5t-40.5 -7zM141 462q16 0 31.5 11t19.5 24v33q-5 4 -18.5 7.5t-26.5 3.5q-19 0 -31.5 -11.5t-12.5 -28.5t10.5 -28t27.5 -11z" />
    <glyph glyph-name="guillemotleft" unicode="&#xab;" horiz-adv-x="471" 
d="M130 39l-104 155q-8 12 0 24l109 148q7 12 18 12h57q12 0 16.5 -9.5t-1.5 -21.5l-68 -139l65 -147q6 -12 2 -21t-17 -9h-62q-9 0 -15 8zM330 39l-104 155q-8 12 0 24l109 148q7 12 18 12h57q12 0 16.5 -9.5t-1.5 -21.5l-68 -139l65 -147q6 -12 2 -21t-17 -9h-62
q-9 0 -15 8z" />
    <glyph glyph-name="logicalnot" unicode="&#xac;" horiz-adv-x="504" 
d="M42 300q-8 0 -13.5 6t-5.5 13v56q0 8 5.5 13.5t13.5 5.5h393q8 0 13.5 -6t5.5 -13v-226q0 -8 -6 -13t-13 -5h-56q-8 0 -13.5 5.5t-5.5 12.5v151h-318z" />
    <glyph glyph-name="uni00AD" unicode="&#xad;" horiz-adv-x="347" 
d="M63 192q-8 0 -13.5 5t-5.5 13v67q0 8 5.5 13.5t13.5 5.5h223q8 0 13.5 -5.5t5.5 -13.5v-67q0 -8 -5.5 -13t-13.5 -5h-223z" />
    <glyph glyph-name="registered" unicode="&#xae;" horiz-adv-x="804" 
d="M70 210q-28 67 -28 140t28.5 139.5t76.5 115t114.5 77t139.5 28.5t139.5 -29t115 -77t77 -114.5t28.5 -139.5t-28.5 -139.5t-77 -114.5t-115 -76.5t-139.5 -28.5t-139.5 28.5t-114.5 76.5t-77 114zM682 350q0 77 -37.5 141.5t-102 102t-141.5 37.5q-76 0 -140.5 -37.5
t-102.5 -102.5t-38 -141t38 -141t102.5 -102.5t140.5 -37.5t141 37.5t102.5 102.5t37.5 141zM267 187v328q0 8 5.5 13.5t13.5 5.5h155q50 0 86.5 -34t36.5 -90q0 -76 -71 -111l46 -104q4 -10 -1.5 -18.5t-15.5 -8.5h-54q-12 0 -18 14l-44 112h-52v-107q0 -8 -5.5 -13.5
t-13.5 -5.5h-49q-8 0 -13.5 5.5t-5.5 13.5zM351 368h79q18 0 29.5 12t11.5 29q0 18 -11.5 29.5t-29.5 11.5h-79v-82z" />
    <glyph glyph-name="macron" unicode="&#xaf;" horiz-adv-x="414" 
d="M79 570q-8 0 -13.5 5t-5.5 13v34q0 8 5.5 13.5t13.5 5.5h256q8 0 13.5 -5.5t5.5 -13.5v-34q0 -8 -5.5 -13t-13.5 -5h-256z" />
    <glyph glyph-name="degree" unicode="&#xb0;" horiz-adv-x="310" 
d="M250 479q-39 -39 -95 -39t-95.5 39.5t-39.5 95.5t39.5 95.5t95.5 39.5t95.5 -39.5t39.5 -95.5t-40 -96zM204 575q0 20 -15 34.5t-34 14.5q-20 0 -35.5 -15t-15.5 -34q0 -20 15.5 -35.5t35.5 -15.5t34.5 15t14.5 36z" />
    <glyph glyph-name="plusminus" unicode="&#xb1;" horiz-adv-x="560" 
d="M233 260v103h-150q-8 0 -13.5 5.5t-5.5 13.5v56q0 8 6 13.5t13 5.5h150v148q0 8 5.5 13t13.5 5h56q8 0 13.5 -5.5t5.5 -12.5v-148h150q8 0 13 -5.5t5 -13.5v-56q0 -8 -5.5 -13.5t-12.5 -5.5h-150v-103q0 -8 -5.5 -13t-13.5 -5h-56q-8 0 -13.5 5t-5.5 13zM83 47
q-8 0 -13.5 6t-5.5 13v56q0 8 6 13.5t13 5.5h394q8 0 13 -6t5 -13v-56q0 -8 -5.5 -13.5t-12.5 -5.5h-394z" />
    <glyph glyph-name="twosuperior" unicode="&#xb2;" horiz-adv-x="277" 
d="M37 504q-10 0 -10 9v17l110 126q25 28 25 50q0 15 -11 25t-29 10q-12 0 -24.5 -6.5t-19.5 -13.5q-10 -6 -16 3l-22 31q-5 6 -4.5 10.5t7.5 10.5q41 34 94 34q48 0 77 -25.5t29 -66.5t-37 -86l-54 -64h80q4 0 6.5 -2.5t2.5 -6.5v-46q0 -9 -9 -9h-195z" />
    <glyph glyph-name="threesuperior" unicode="&#xb3;" horiz-adv-x="265" 
d="M122 494q-58 0 -95 33q-8 8 -1 18l22 29q6 9 17 2l3 -2q2 -2 6.5 -4t10 -4t12.5 -4t15 -2q20 0 31 8t11 23t-12 24t-35 9h-29q-15 0 -15 14v31q0 14 15 14h29q18 0 29.5 8.5t11.5 22.5t-11 22t-27 8q-21 0 -39 -16q-4 -3 -7.5 -2.5t-7.5 5.5l-24 29q-4 4 -4 9.5t5 8.5
q2 2 4.5 4t11 7t18 9.5t24.5 8t31 3.5q48 0 78 -22.5t30 -60.5q0 -24 -15 -42.5t-36 -27.5v-1q23 -9 41.5 -27.5t18.5 -48.5q0 -40 -33.5 -63t-83.5 -23z" />
    <glyph glyph-name="acute" unicode="&#xb4;" horiz-adv-x="302" 
d="M89 528q-18 -8 -26 6l-17 36q-6 11 6 19l163 97q6 4 14 4q9 0 12 -7l29 -51q9 -20 -6 -27z" />
    <glyph glyph-name="mu" unicode="&#xb5;" horiz-adv-x="524" 
d="M181 -4v-277q0 -8 -5.5 -13.5t-13.5 -5.5h-82q-8 0 -13.5 6t-5.5 13v662q0 8 5.5 13.5t13.5 5.5h82q8 0 13.5 -5.5t5.5 -13.5v-199q2 -37 21 -57.5t52 -20.5q30 0 52.5 23t27.5 52v202q0 11 5 15t17 4h76q8 0 13.5 -5.5t5.5 -13.5v-362q0 -8 -5.5 -13.5t-13.5 -5.5h-37
q-14 0 -19 15l-12 33q-1 -1 -7.5 -7t-10 -9t-12 -9.5t-15 -10t-17 -8t-20.5 -7.5t-24 -5t-28 -2q-27 0 -49 6z" />
    <glyph glyph-name="paragraph" unicode="&#xb6;" horiz-adv-x="701" 
d="M227 281q-56 0 -103.5 27.5t-76 76t-28.5 106.5q0 86 56.5 147.5t137.5 61.5l456 -1q8 0 13.5 -5.5t5.5 -13.5v-46q0 -8 -6 -13.5t-13 -5.5h-78v-896q0 -8 -5.5 -13.5t-13.5 -5.5h-54q-8 0 -13.5 6t-5.5 13v896h-136v-896q0 -8 -5.5 -13.5t-13.5 -5.5h-54q-8 0 -13.5 6
t-5.5 13v562h-44z" />
    <glyph glyph-name="periodcentered" unicode="&#xb7;" horiz-adv-x="258" 
d="M128 167q-36 0 -62.5 26.5t-26.5 62.5q0 38 26.5 65t62.5 27q38 0 65 -27t27 -65q0 -36 -27 -62.5t-65 -26.5z" />
    <glyph glyph-name="cedilla" unicode="&#xb8;" horiz-adv-x="247" 
d="M54 0h66v-52q46 -6 71.5 -33.5t25.5 -69.5q0 -44 -31 -74.5t-75 -30.5q-22 0 -42.5 10t-33.5 25q-12 14 3 28l20 17q4 4 10 4q7 0 11 -5q10 -12 30 -12q15 0 25 11t10 26q0 20 -18 33t-55 16q-17 2 -17 18v89z" />
    <glyph glyph-name="onesuperior" unicode="&#xb9;" horiz-adv-x="196" 
d="M83 504q-10 0 -10 9v193l-49 -4q-9 0 -9 9l-2 31q0 6 7 11l74 47h51q4 0 6.5 -2.5t2.5 -6.5v-278q0 -4 -2.5 -6.5t-6.5 -2.5h-62z" />
    <glyph glyph-name="ordmasculine" unicode="&#xba;" horiz-adv-x="302" 
d="M152 394q-62 0 -94.5 42t-32.5 116q0 75 32.5 116.5t94.5 41.5q61 0 93 -41.5t32 -116.5q0 -74 -32.5 -116t-92.5 -42zM152 464q20 0 32 23t12 65t-12 65t-32 23q-21 0 -32.5 -23t-11.5 -65t11.5 -65t32.5 -23z" />
    <glyph glyph-name="guillemotright" unicode="&#xbb;" horiz-adv-x="471" 
d="M63 31q-12 0 -16.5 9t1.5 21l65 147l-68 139q-6 12 -1.5 21.5t16.5 9.5h57q11 0 18 -12l109 -148q8 -12 0 -24l-104 -155q-6 -8 -15 -8h-62zM263 31q-12 0 -16.5 9t1.5 21l65 147l-68 139q-6 12 -1.5 21.5t16.5 9.5h57q11 0 18 -12l109 -148q8 -12 0 -24l-104 -155
q-6 -8 -15 -8h-62z" />
    <glyph glyph-name="onequarter" unicode="&#xbc;" horiz-adv-x="664" 
d="M507 1q-4 0 -7 3t-3 6v48h-137q-4 0 -6.5 2.5t-2.5 5.5v51l163 177q3 3 8 3h41q4 0 6.5 -2.5t2.5 -6.5v-170h40q4 0 6.5 -2.5t2.5 -5.5v-43q0 -4 -2.5 -6.5t-6.5 -2.5h-40v-48q0 -4 -2.5 -6.5t-6.5 -2.5h-56zM424 117h74v83zM171 10q-5 -10 -17 -10h-48q-12 0 -17 9t0 18
l343 663q5 10 17 10h50q12 0 17 -9t0 -18zM91 405q-10 0 -10 9v193l-49 -4q-9 0 -9 9l-2 31q0 6 7 11l74 47h51q4 0 6.5 -2.5t2.5 -6.5v-278q0 -4 -2.5 -6.5t-6.5 -2.5h-62z" />
    <glyph glyph-name="onehalf" unicode="&#xbd;" horiz-adv-x="661" 
d="M171 10q-5 -10 -17 -10h-48q-12 0 -17 9t0 18l343 663q5 10 17 10h50q12 0 17 -9t0 -18zM91 405q-10 0 -10 9v193l-49 -4q-9 0 -9 9l-2 31q0 6 7 11l74 47h51q4 0 6.5 -2.5t2.5 -6.5v-278q0 -4 -2.5 -6.5t-6.5 -2.5h-62zM401 1q-10 0 -10 9v17l110 126q25 28 25 50
q0 15 -11 25t-29 10q-12 0 -24.5 -6.5t-19.5 -13.5q-10 -6 -16 3l-22 31q-5 6 -4.5 10.5t7.5 10.5q41 34 94 34q48 0 77 -25.5t29 -66.5t-37 -86l-54 -64h80q4 0 6.5 -2.5t2.5 -6.5v-46q0 -9 -9 -9h-195z" />
    <glyph glyph-name="threequarters" unicode="&#xbe;" horiz-adv-x="701" 
d="M544 1q-4 0 -7 3t-3 6v48h-137q-4 0 -6.5 2.5t-2.5 5.5v51l163 177q3 3 8 3h41q4 0 6.5 -2.5t2.5 -6.5v-170h40q4 0 6.5 -2.5t2.5 -5.5v-43q0 -4 -2.5 -6.5t-6.5 -2.5h-40v-48q0 -4 -2.5 -6.5t-6.5 -2.5h-56zM461 117h74v83zM208 10q-5 -10 -17 -10h-48q-12 0 -17 9t0 18
l343 663q5 10 17 10h50q12 0 17 -9t0 -18zM128 395q-58 0 -95 33q-8 8 -1 18l22 29q6 9 17 2l3 -2q2 -2 6.5 -4t10 -4t12.5 -4t15 -2q20 0 31 8t11 23t-12 24t-35 9h-29q-15 0 -15 14v31q0 14 15 14h29q18 0 29.5 8.5t11.5 22.5t-11 22t-27 8q-21 0 -39 -16q-4 -3 -7.5 -2.5
t-7.5 5.5l-24 29q-4 4 -4 9.5t5 8.5q2 2 4.5 4t11 7t18 9.5t24.5 8t31 3.5q48 0 78 -22.5t30 -60.5q0 -24 -15 -42.5t-36 -27.5v-1q23 -9 41.5 -27.5t18.5 -48.5q0 -40 -33.5 -63t-83.5 -23z" />
    <glyph glyph-name="questiondown" unicode="&#xbf;" horiz-adv-x="434" 
d="M19 -142q0 34 15.5 63t38 49t45 37t38 34t15.5 33v33q0 10 5.5 15.5t14.5 5.5h81q8 0 13.5 -5.5t5.5 -13.5v-42q0 -22 -10.5 -42.5t-25.5 -36t-33 -31.5t-34 -29t-26 -29.5t-10 -32.5q0 -28 22 -47.5t58 -19.5q21 0 40 6.5t29.5 14.5t22.5 18t16 13q12 8 22 -1l47 -46
q6 -6 5.5 -13t-5.5 -13q-3 -4 -8 -10t-24 -21t-40 -26.5t-54.5 -21t-69.5 -9.5q-80 0 -137 48t-57 120zM231 411q34 0 58.5 -24.5t24.5 -58.5t-24.5 -58t-58.5 -24t-58 24t-24 58t24.5 58.5t57.5 24.5z" />
    <glyph glyph-name="Agrave" unicode="&#xc0;" horiz-adv-x="663" 
d="M402 768l-175 77q-7 3 -9 10.5t3 16.5l28 52q4 6 12 6.5t14 -3.5l164 -98q4 -2 6.5 -7.5t-0.5 -11.5l-18 -35q-7 -15 -25 -7zM17 0q-11 0 -16 8t-1 18l311 673q6 11 17 11h10q12 0 17 -11l308 -673q4 -10 -1 -18t-16 -8h-87q-11 0 -17 4.5t-12 15.5l-49 108h-299
l-49 -108q-8 -20 -29 -20h-87zM231 239h201l-100 220h-3z" />
    <glyph glyph-name="Aacute" unicode="&#xc1;" horiz-adv-x="663" 
d="M261 768q-18 -8 -25 7l-18 35q-2 6 -0.5 11t6.5 8l164 98q18 12 26 -3l28 -52q5 -9 3 -16.5t-9 -10.5zM17 0q-11 0 -16 8t-1 18l311 673q6 11 17 11h10q12 0 17 -11l308 -673q4 -10 -1 -18t-16 -8h-87q-11 0 -17 4.5t-12 15.5l-49 108h-299l-49 -108q-8 -20 -29 -20h-87z
M231 239h201l-100 220h-3z" />
    <glyph glyph-name="Acircumflex" unicode="&#xc2;" horiz-adv-x="663" 
d="M211 769l-26 37q-3 6 -1 11t7 8l130 101q10 8 21 0l130 -101q5 -4 7 -8.5t-1 -10.5l-26 -37q-8 -12 -23 -3l-97 61l-98 -61q-15 -9 -23 3zM17 0q-11 0 -16 8t-1 18l311 673q6 11 17 11h10q12 0 17 -11l308 -673q4 -10 -1 -18t-16 -8h-87q-11 0 -17 4.5t-12 15.5l-49 108
h-299l-49 -108q-8 -20 -29 -20h-87zM231 239h201l-100 220h-3z" />
    <glyph glyph-name="Atilde" unicode="&#xc3;" horiz-adv-x="663" 
d="M211 789l-29 21q-5 4 -7 11t1 12q23 42 45 60q28 24 59 24q18 0 33.5 -8.5t25.5 -19t23 -19t25 -8.5t21 9.5t14 19t13 15t17 -2.5l28 -20q13 -10 1 -31q0 -1 -2 -4q-7 -12 -13 -20.5t-18.5 -22.5t-28.5 -21.5t-35 -7.5q-18 0 -34.5 8.5t-27.5 19.5t-23.5 19.5t-23.5 8.5
q-12 0 -21 -9.5t-13 -19.5t-12 -15.5t-18 1.5zM17 0q-11 0 -16 8t-1 18l311 673q6 11 17 11h10q12 0 17 -11l308 -673q4 -10 -1 -18t-16 -8h-87q-11 0 -17 4.5t-12 15.5l-49 108h-299l-49 -108q-8 -20 -29 -20h-87zM231 239h201l-100 220h-3z" />
    <glyph glyph-name="Adieresis" unicode="&#xc4;" horiz-adv-x="663" 
d="M391 839q0 26 18.5 44.5t44.5 18.5t45 -18.5t19 -44.5t-19 -45t-45 -19t-44.5 18.5t-18.5 45.5zM144 839q0 26 18.5 44.5t44.5 18.5t45 -18.5t19 -44.5t-19 -45t-45 -19t-44.5 18.5t-18.5 45.5zM17 0q-11 0 -16 8t-1 18l311 673q6 11 17 11h10q12 0 17 -11l308 -673
q4 -10 -1 -18t-16 -8h-87q-11 0 -17 4.5t-12 15.5l-49 108h-299l-49 -108q-8 -20 -29 -20h-87zM231 239h201l-100 220h-3z" />
    <glyph glyph-name="Aring" unicode="&#xc5;" horiz-adv-x="663" 
d="M331 754q-47 0 -80 33t-33 80t33 80t80 33q46 0 79.5 -33t33.5 -80t-33.5 -80t-79.5 -33zM296 832q16 -15 35 -15t33.5 15.5t14.5 34.5t-14.5 33.5t-33.5 14.5t-34.5 -14.5t-15.5 -33.5t15 -35zM17 0q-11 0 -16 8t-1 18l311 673q6 11 17 11h10q12 0 17 -11l308 -673
q4 -10 -1 -18t-16 -8h-87q-11 0 -17 4.5t-12 15.5l-49 108h-299l-49 -108q-8 -20 -29 -20h-87zM231 239h201l-100 220h-3z" />
    <glyph glyph-name="AE" unicode="&#xc6;" horiz-adv-x="900" 
d="M2 0q-11 0 -14.5 8t2.5 18l401 643q13 20 19 25q9 6 25 6h395q8 0 13.5 -6t5.5 -13v-82q0 -8 -5.5 -13.5t-13.5 -5.5h-299v-164h250q8 0 13.5 -6t5.5 -13v-83q0 -8 -5.5 -13.5t-13.5 -5.5h-250v-175h299q8 0 13.5 -6t5.5 -13v-82q0 -8 -5.5 -13.5t-13.5 -5.5h-408
q-8 0 -13.5 6t-5.5 13v109h-210l-71 -113q-10 -15 -25 -15h-95zM263 239h140v226z" />
    <glyph glyph-name="Ccedilla" unicode="&#xc7;" horiz-adv-x="686" 
d="M338 -4q-62 11 -117 42.5t-95 77.5t-62.5 107t-22.5 126q0 98 48.5 181.5t131.5 131.5t181 48q74 0 132 -23t110 -70q6 -6 6.5 -14t-5.5 -14l-61 -63q-5 -6 -12 -6t-13 6q-32 28 -72.5 43.5t-81.5 15.5q-94 0 -158.5 -68.5t-64.5 -164.5q0 -62 29 -115t81 -84.5
t114 -31.5q82 0 153 57q6 5 13.5 4.5t11.5 -4.5l62 -64q6 -6 5 -14t-6 -13q-98 -96 -241 -97v-42q46 -6 71.5 -33.5t25.5 -69.5q0 -44 -31 -74.5t-75 -30.5q-22 0 -42.5 10t-33.5 25q-12 14 3 28l20 17q4 4 10 4q7 0 11 -5q10 -12 30 -12q15 0 25 11t10 26q0 20 -18 33
t-55 16q-17 2 -17 18v85z" />
    <glyph glyph-name="Egrave" unicode="&#xc8;" horiz-adv-x="588" 
d="M390 768l-175 77q-7 3 -9 10.5t3 16.5l28 52q4 6 12 6.5t14 -3.5l164 -98q4 -2 6.5 -7.5t-0.5 -11.5l-18 -35q-7 -15 -25 -7zM91 19v662q0 8 5.5 13.5t13.5 5.5h407q8 0 13.5 -6t5.5 -13v-82q0 -8 -5.5 -13.5t-13.5 -5.5h-296v-164h247q8 0 13.5 -6t5.5 -13v-83
q0 -8 -5.5 -13.5t-13.5 -5.5h-247v-175h296q8 0 13.5 -6t5.5 -13v-82q0 -8 -5.5 -13.5t-13.5 -5.5h-407q-8 0 -13.5 5.5t-5.5 13.5z" />
    <glyph glyph-name="Eacute" unicode="&#xc9;" horiz-adv-x="588" 
d="M250 768q-18 -8 -25 7l-18 35q-2 6 -0.5 11t6.5 8l164 98q18 12 26 -3l28 -52q5 -9 3 -16.5t-9 -10.5zM91 19v662q0 8 5.5 13.5t13.5 5.5h407q8 0 13.5 -6t5.5 -13v-82q0 -8 -5.5 -13.5t-13.5 -5.5h-296v-164h247q8 0 13.5 -6t5.5 -13v-83q0 -8 -5.5 -13.5t-13.5 -5.5
h-247v-175h296q8 0 13.5 -6t5.5 -13v-82q0 -8 -5.5 -13.5t-13.5 -5.5h-407q-8 0 -13.5 5.5t-5.5 13.5z" />
    <glyph glyph-name="Ecircumflex" unicode="&#xca;" horiz-adv-x="588" 
d="M194 769l-26 37q-3 6 -1 11t7 8l130 101q10 8 21 0l130 -101q5 -4 7 -8.5t-1 -10.5l-26 -37q-8 -12 -23 -3l-97 61l-98 -61q-15 -9 -23 3zM91 19v662q0 8 5.5 13.5t13.5 5.5h407q8 0 13.5 -6t5.5 -13v-82q0 -8 -5.5 -13.5t-13.5 -5.5h-296v-164h247q8 0 13.5 -6t5.5 -13
v-83q0 -8 -5.5 -13.5t-13.5 -5.5h-247v-175h296q8 0 13.5 -6t5.5 -13v-82q0 -8 -5.5 -13.5t-13.5 -5.5h-407q-8 0 -13.5 5.5t-5.5 13.5z" />
    <glyph glyph-name="Edieresis" unicode="&#xcb;" horiz-adv-x="588" 
d="M379 839q0 26 18.5 44.5t44.5 18.5t45 -18.5t19 -44.5t-19 -45t-45 -19t-44.5 18.5t-18.5 45.5zM132 839q0 26 18.5 44.5t44.5 18.5t45 -18.5t19 -44.5t-19 -45t-45 -19t-44.5 18.5t-18.5 45.5zM91 19v662q0 8 5.5 13.5t13.5 5.5h407q8 0 13.5 -6t5.5 -13v-82
q0 -8 -5.5 -13.5t-13.5 -5.5h-296v-164h247q8 0 13.5 -6t5.5 -13v-83q0 -8 -5.5 -13.5t-13.5 -5.5h-247v-175h296q8 0 13.5 -6t5.5 -13v-82q0 -8 -5.5 -13.5t-13.5 -5.5h-407q-8 0 -13.5 5.5t-5.5 13.5z" />
    <glyph glyph-name="Igrave" unicode="&#xcc;" horiz-adv-x="313" 
d="M226 768l-175 77q-7 3 -9 10.5t3 16.5l28 52q4 6 12 6.5t14 -3.5l164 -98q4 -2 6.5 -7.5t-0.5 -11.5l-18 -35q-7 -15 -25 -7zM91 19v662q0 8 5.5 13.5t13.5 5.5h93q8 0 13.5 -6t5.5 -13v-662q0 -8 -6 -13.5t-13 -5.5h-93q-8 0 -13.5 5.5t-5.5 13.5z" />
    <glyph glyph-name="Iacute" unicode="&#xcd;" horiz-adv-x="313" 
d="M86 768q-18 -8 -25 7l-18 35q-2 6 -0.5 11t6.5 8l164 98q18 12 26 -3l28 -52q5 -9 3 -16.5t-9 -10.5zM91 19v662q0 8 5.5 13.5t13.5 5.5h93q8 0 13.5 -6t5.5 -13v-662q0 -8 -6 -13.5t-13 -5.5h-93q-8 0 -13.5 5.5t-5.5 13.5z" />
    <glyph glyph-name="Icircumflex" unicode="&#xce;" horiz-adv-x="313" 
d="M35 769l-26 37q-3 6 -1 11t7 8l130 101q10 8 21 0l130 -101q5 -4 7 -8.5t-1 -10.5l-26 -37q-8 -12 -23 -3l-97 61l-98 -61q-15 -9 -23 3zM91 19v662q0 8 5.5 13.5t13.5 5.5h93q8 0 13.5 -6t5.5 -13v-662q0 -8 -6 -13.5t-13 -5.5h-93q-8 0 -13.5 5.5t-5.5 13.5z" />
    <glyph glyph-name="Idieresis" unicode="&#xcf;" horiz-adv-x="313" 
d="M217 839q0 26 18.5 44.5t44.5 18.5t45 -18.5t19 -44.5t-19 -45t-45 -19t-44.5 18.5t-18.5 45.5zM-30 839q0 26 18.5 44.5t44.5 18.5t45 -18.5t19 -44.5t-19 -45t-45 -19t-44.5 18.5t-18.5 45.5zM91 19v662q0 8 5.5 13.5t13.5 5.5h93q8 0 13.5 -6t5.5 -13v-662
q0 -8 -6 -13.5t-13 -5.5h-93q-8 0 -13.5 5.5t-5.5 13.5z" />
    <glyph glyph-name="Eth" unicode="&#xd0;" horiz-adv-x="743" 
d="M96 19v302h-29q-8 0 -13 5.5t-5 13.5v13q0 8 5.5 13.5t12.5 5.5h29v309q0 8 5 13.5t13 5.5h237q71 0 136 -28t112 -74.5t75 -111t28 -135.5q0 -96 -47 -176.5t-128 -127.5t-176 -47h-237q-8 0 -13 5.5t-5 13.5zM225 122h114q98 0 161.5 65t63.5 164q0 98 -64 163t-161 65
h-114v-207h165q8 0 13.5 -6t5.5 -13v-14q0 -8 -5.5 -13t-13.5 -5h-165v-199z" />
    <glyph glyph-name="Ntilde" unicode="&#xd1;" horiz-adv-x="773" 
d="M266 789l-29 21q-5 4 -7 11t1 12q23 42 45 60q28 24 59 24q18 0 33.5 -8.5t25.5 -19t23 -19t25 -8.5t21 9.5t14 19t13 15t17 -2.5l28 -20q13 -10 1 -31q0 -1 -2 -4q-7 -12 -13 -20.5t-18.5 -22.5t-28.5 -21.5t-35 -7.5q-18 0 -34.5 8.5t-27.5 19.5t-23.5 19.5t-23.5 8.5
q-12 0 -21 -9.5t-13 -19.5t-12 -15.5t-18 1.5zM91 19v673q0 8 5.5 13t13.5 5h25l416 -442h1v413q0 8 5.5 13.5t13.5 5.5h92q8 0 13.5 -6t5.5 -13v-673q0 -8 -6 -13t-13 -5h-24l-418 459h-1v-430q0 -8 -5.5 -13.5t-13.5 -5.5h-91q-8 0 -13.5 5.5t-5.5 13.5z" />
    <glyph glyph-name="Ograve" unicode="&#xd2;" horiz-adv-x="800" 
d="M473 768l-175 77q-7 3 -9 10.5t3 16.5l28 52q4 6 12 6.5t14 -3.5l164 -98q4 -2 6.5 -7.5t-0.5 -11.5l-18 -35q-7 -15 -25 -7zM88 168q-47 82 -47 181t47.5 182t130.5 131t181 48t181 -48t131 -131t48 -182t-48 -181t-131 -130t-181 -48t-181 48t-131 130zM171 349
q0 -94 67.5 -161.5t161.5 -67.5q62 0 115 31t84 83.5t31 114.5t-31 115.5t-84 84.5t-115 31t-115 -31t-83.5 -84.5t-30.5 -115.5z" />
    <glyph glyph-name="Oacute" unicode="&#xd3;" horiz-adv-x="800" 
d="M331 768q-18 -8 -25 7l-18 35q-2 6 -0.5 11t6.5 8l164 98q18 12 26 -3l28 -52q5 -9 3 -16.5t-9 -10.5zM88 168q-47 82 -47 181t47.5 182t130.5 131t181 48t181 -48t131 -131t48 -182t-48 -181t-131 -130t-181 -48t-181 48t-131 130zM171 349q0 -94 67.5 -161.5
t161.5 -67.5q62 0 115 31t84 83.5t31 114.5t-31 115.5t-84 84.5t-115 31t-115 -31t-83.5 -84.5t-30.5 -115.5z" />
    <glyph glyph-name="Ocircumflex" unicode="&#xd4;" horiz-adv-x="800" 
d="M279 769l-26 37q-3 6 -1 11t7 8l130 101q10 8 21 0l130 -101q5 -4 7 -8.5t-1 -10.5l-26 -37q-8 -12 -23 -3l-97 61l-98 -61q-15 -9 -23 3zM88 168q-47 82 -47 181t47.5 182t130.5 131t181 48t181 -48t131 -131t48 -182t-48 -181t-131 -130t-181 -48t-181 48t-131 130z
M171 349q0 -94 67.5 -161.5t161.5 -67.5q62 0 115 31t84 83.5t31 114.5t-31 115.5t-84 84.5t-115 31t-115 -31t-83.5 -84.5t-30.5 -115.5z" />
    <glyph glyph-name="Otilde" unicode="&#xd5;" horiz-adv-x="800" 
d="M281 789l-29 21q-5 4 -7 11t1 12q23 42 45 60q28 24 59 24q18 0 33.5 -8.5t25.5 -19t23 -19t25 -8.5t21 9.5t14 19t13 15t17 -2.5l28 -20q13 -10 1 -31q0 -1 -2 -4q-7 -12 -13 -20.5t-18.5 -22.5t-28.5 -21.5t-35 -7.5q-18 0 -34.5 8.5t-27.5 19.5t-23.5 19.5t-23.5 8.5
q-12 0 -21 -9.5t-13 -19.5t-12 -15.5t-18 1.5zM88 168q-47 82 -47 181t47.5 182t130.5 131t181 48t181 -48t131 -131t48 -182t-48 -181t-131 -130t-181 -48t-181 48t-131 130zM171 349q0 -94 67.5 -161.5t161.5 -67.5q62 0 115 31t84 83.5t31 114.5t-31 115.5t-84 84.5
t-115 31t-115 -31t-83.5 -84.5t-30.5 -115.5z" />
    <glyph glyph-name="Odieresis" unicode="&#xd6;" horiz-adv-x="800" 
d="M460 839q0 26 18.5 44.5t44.5 18.5t45 -18.5t19 -44.5t-19 -45t-45 -19t-44.5 18.5t-18.5 45.5zM213 839q0 26 18.5 44.5t44.5 18.5t45 -18.5t19 -44.5t-19 -45t-45 -19t-44.5 18.5t-18.5 45.5zM88 168q-47 82 -47 181t47.5 182t130.5 131t181 48t181 -48t131 -131
t48 -182t-48 -181t-131 -130t-181 -48t-181 48t-131 130zM171 349q0 -94 67.5 -161.5t161.5 -67.5q62 0 115 31t84 83.5t31 114.5t-31 115.5t-84 84.5t-115 31t-115 -31t-83.5 -84.5t-30.5 -115.5z" />
    <glyph glyph-name="multiply" unicode="&#xd7;" horiz-adv-x="464" 
d="M100 175l-40 40q-5 5 -5 13t5 13l106 106l-106 106q-5 5 -5 13.5t5 13.5l39 40q5 5 13 5q9 0 14 -5l106 -106l106 107q6 5 13 5t13 -6l40 -40q6 -6 6 -13t-5 -13l-106 -107l106 -106q5 -6 5 -13.5t-6 -13.5l-40 -39q-6 -6 -13 -6t-13 5l-106 107l-106 -106q-5 -5 -13 -5
t-13 5z" />
    <glyph glyph-name="Oslash" unicode="&#xd8;" horiz-adv-x="799" 
d="M63 23q-6 6 -6 13.5t5 12.5l65 64q-86 100 -86 236q0 98 47.5 181.5t130.5 131.5t181 48q66 0 127 -23t109 -65l68 67q5 5 13 5t13 -5l10 -10q5 -5 5 -12.5t-5 -13.5l-68 -68q42 -48 65 -108.5t23 -126.5q0 -98 -48 -181t-131 -131t-181 -48q-138 0 -236 87l-65 -65
q-6 -5 -13.5 -4.5t-12.5 5.5zM221 207l323 322q-66 51 -144 51q-62 0 -115 -31t-83.5 -84.5t-30.5 -115.5q0 -79 50 -142zM257 170q63 -50 143 -50q94 0 162 68t68 162q0 82 -51 142z" />
    <glyph glyph-name="Ugrave" unicode="&#xd9;" horiz-adv-x="721" 
d="M430 768l-175 77q-7 3 -9 10.5t3 16.5l28 52q4 6 12 6.5t14 -3.5l164 -98q4 -2 6.5 -7.5t-0.5 -11.5l-18 -35q-7 -15 -25 -7zM82 265v416q0 8 5.5 13.5t13.5 5.5h95q8 0 13.5 -6t5.5 -13v-409q0 -65 40.5 -108.5t104.5 -43.5t105 43.5t41 107.5v410q0 8 5.5 13.5
t13.5 5.5h95q8 0 13.5 -6t5.5 -13v-416q0 -75 -36.5 -138t-101 -100t-141.5 -37t-141 37t-100.5 100t-36.5 138z" />
    <glyph glyph-name="Uacute" unicode="&#xda;" horiz-adv-x="721" 
d="M292 768q-18 -8 -25 7l-18 35q-2 6 -0.5 11t6.5 8l164 98q18 12 26 -3l28 -52q5 -9 3 -16.5t-9 -10.5zM82 265v416q0 8 5.5 13.5t13.5 5.5h95q8 0 13.5 -6t5.5 -13v-409q0 -65 40.5 -108.5t104.5 -43.5t105 43.5t41 107.5v410q0 8 5.5 13.5t13.5 5.5h95q8 0 13.5 -6
t5.5 -13v-416q0 -75 -36.5 -138t-101 -100t-141.5 -37t-141 37t-100.5 100t-36.5 138z" />
    <glyph glyph-name="Ucircumflex" unicode="&#xdb;" horiz-adv-x="721" 
d="M240 769l-26 37q-3 6 -1 11t7 8l130 101q10 8 21 0l130 -101q5 -4 7 -8.5t-1 -10.5l-26 -37q-8 -12 -23 -3l-97 61l-98 -61q-15 -9 -23 3zM82 265v416q0 8 5.5 13.5t13.5 5.5h95q8 0 13.5 -6t5.5 -13v-409q0 -65 40.5 -108.5t104.5 -43.5t105 43.5t41 107.5v410
q0 8 5.5 13.5t13.5 5.5h95q8 0 13.5 -6t5.5 -13v-416q0 -75 -36.5 -138t-101 -100t-141.5 -37t-141 37t-100.5 100t-36.5 138z" />
    <glyph glyph-name="Udieresis" unicode="&#xdc;" horiz-adv-x="721" 
d="M420 839q0 26 18.5 44.5t44.5 18.5t45 -18.5t19 -44.5t-19 -45t-45 -19t-44.5 18.5t-18.5 45.5zM173 839q0 26 18.5 44.5t44.5 18.5t45 -18.5t19 -44.5t-19 -45t-45 -19t-44.5 18.5t-18.5 45.5zM82 265v416q0 8 5.5 13.5t13.5 5.5h95q8 0 13.5 -6t5.5 -13v-409
q0 -65 40.5 -108.5t104.5 -43.5t105 43.5t41 107.5v410q0 8 5.5 13.5t13.5 5.5h95q8 0 13.5 -6t5.5 -13v-416q0 -75 -36.5 -138t-101 -100t-141.5 -37t-141 37t-100.5 100t-36.5 138z" />
    <glyph glyph-name="Yacute" unicode="&#xdd;" horiz-adv-x="583" 
d="M221 768q-18 -8 -25 7l-18 35q-2 6 -0.5 11t6.5 8l164 98q18 12 26 -3l28 -52q5 -9 3 -16.5t-9 -10.5zM225 19v318l-228 334q-6 10 -1 19.5t17 9.5h102q9 0 16 -9l160 -230l160 230q6 9 16 9h103q12 0 17 -9.5t-1 -19.5l-231 -333v-319q0 -8 -5.5 -13.5t-13.5 -5.5h-92
q-8 0 -13.5 5.5t-5.5 13.5z" />
    <glyph glyph-name="Thorn" unicode="&#xde;" horiz-adv-x="591" 
d="M91 19v662q0 8 5.5 13.5t13.5 5.5h92q8 0 13.5 -6t5.5 -13v-108h124q92 0 158 -65t66 -156q0 -93 -65.5 -159t-157.5 -66h-125v-108q0 -8 -5.5 -13.5t-13.5 -5.5h-92q-8 0 -13.5 5.5t-5.5 13.5zM221 249h116q42 0 72.5 30t30.5 74q0 41 -30 69t-73 28h-116v-201z" />
    <glyph glyph-name="germandbls" unicode="&#xdf;" horiz-adv-x="517" 
d="M60 19v393q0 146 63 222t174 76q32 0 61.5 -9.5t53.5 -28t38.5 -49.5t14.5 -70q0 -30 -12.5 -62.5t-27.5 -54t-27 -46t-12 -40.5q0 -12 10.5 -27.5t25.5 -33t30 -38.5t25.5 -49t10.5 -58q0 -32 -9.5 -58t-25.5 -44t-37.5 -30t-44.5 -17t-47 -5q-41 0 -44 20l-9 67
q-1 7 4 13t13 6q30 -2 52.5 11.5t22.5 39.5q0 18 -10.5 36.5t-26 34.5t-31 33t-26 38.5t-10.5 42.5q0 23 12.5 53t27.5 54.5t28 54.5t13 54t-16 39t-39 15q-19 0 -36 -10t-32.5 -31t-24.5 -60t-9 -91v-391q0 -8 -5.5 -13.5t-13.5 -5.5h-85q-8 0 -13.5 5.5t-5.5 13.5z" />
    <glyph glyph-name="agrave" unicode="&#xe0;" horiz-adv-x="426" 
d="M31 127q0 55 42.5 90.5t117.5 35.5q18 0 36.5 -2.5t27.5 -5.5l9 -3q0 38 -12 53.5t-40 15.5q-26 0 -60 -4.5t-52 -10.5q-20 -6 -23 18l-9 52q-4 19 14 25q6 2 24 6.5t50.5 8.5t61.5 4q46 0 77 -11.5t47 -35t23 -53.5t7 -74v-217q0 -8 -6 -13.5t-13 -5.5h-36q-10 0 -17 14
l-12 27q-56 -51 -122 -51q-60 0 -97.5 37t-37.5 100zM141 127q0 -22 14.5 -37t37.5 -15q22 0 42.5 13.5t26.5 25.5v55q-27 12 -56 12t-47 -15t-18 -39zM297 528l-175 77q-16 8 -6 27l28 51q4 6 11.5 6.5t14.5 -3.5l164 -97q5 -2 7 -7.5t-1 -11.5l-18 -36q-6 -14 -25 -6z" />
    <glyph glyph-name="aacute" unicode="&#xe1;" horiz-adv-x="426" 
d="M156 528q-18 -8 -26 6l-17 36q-6 11 6 19l163 97q6 4 14 4q9 0 12 -7l29 -51q9 -20 -6 -27zM31 127q0 55 42.5 90.5t117.5 35.5q18 0 36.5 -2.5t27.5 -5.5l9 -3q0 38 -12 53.5t-40 15.5q-26 0 -60 -4.5t-52 -10.5q-20 -6 -23 18l-9 52q-4 19 14 25q6 2 24 6.5t50.5 8.5
t61.5 4q46 0 77 -11.5t47 -35t23 -53.5t7 -74v-217q0 -8 -6 -13.5t-13 -5.5h-36q-10 0 -17 14l-12 27q-56 -51 -122 -51q-60 0 -97.5 37t-37.5 100zM141 127q0 -22 14.5 -37t37.5 -15q22 0 42.5 13.5t26.5 25.5v55q-27 12 -56 12t-47 -15t-18 -39z" />
    <glyph glyph-name="acircumflex" unicode="&#xe2;" horiz-adv-x="426" 
d="M94 529l-26 37q-3 6 -1 11t7 8l130 101q10 8 21 0l130 -101q5 -4 7 -8.5t-1 -10.5l-26 -37q-8 -12 -23 -3l-97 61l-98 -61q-15 -9 -23 3zM31 127q0 55 42.5 90.5t117.5 35.5q18 0 36.5 -2.5t27.5 -5.5l9 -3q0 38 -12 53.5t-40 15.5q-26 0 -60 -4.5t-52 -10.5
q-20 -6 -23 18l-9 52q-4 19 14 25q6 2 24 6.5t50.5 8.5t61.5 4q46 0 77 -11.5t47 -35t23 -53.5t7 -74v-217q0 -8 -6 -13.5t-13 -5.5h-36q-10 0 -17 14l-12 27q-56 -51 -122 -51q-60 0 -97.5 37t-37.5 100zM141 127q0 -22 14.5 -37t37.5 -15q22 0 42.5 13.5t26.5 25.5v55
q-27 12 -56 12t-47 -15t-18 -39z" />
    <glyph glyph-name="atilde" unicode="&#xe3;" horiz-adv-x="426" 
d="M97 562l-29 21q-5 4 -7 11t1 12q23 42 45 60q28 24 59 24q18 0 33.5 -8.5t25.5 -19t23 -19t25 -8.5t21 9.5t14 19t13 15t17 -2.5l28 -20q13 -10 1 -31q0 -1 -2 -4q-7 -12 -13 -20.5t-18.5 -22.5t-28.5 -21.5t-35 -7.5q-18 0 -34.5 8.5t-27.5 19.5t-23.5 19.5t-23.5 8.5
q-12 0 -21 -9.5t-13 -19.5t-12 -15.5t-18 1.5zM31 127q0 55 42.5 90.5t117.5 35.5q18 0 36.5 -2.5t27.5 -5.5l9 -3q0 38 -12 53.5t-40 15.5q-26 0 -60 -4.5t-52 -10.5q-20 -6 -23 18l-9 52q-4 19 14 25q6 2 24 6.5t50.5 8.5t61.5 4q46 0 77 -11.5t47 -35t23 -53.5t7 -74
v-217q0 -8 -6 -13.5t-13 -5.5h-36q-10 0 -17 14l-12 27q-56 -51 -122 -51q-60 0 -97.5 37t-37.5 100zM141 127q0 -22 14.5 -37t37.5 -15q22 0 42.5 13.5t26.5 25.5v55q-27 12 -56 12t-47 -15t-18 -39z" />
    <glyph glyph-name="adieresis" unicode="&#xe4;" horiz-adv-x="426" 
d="M55 615q0 26 18.5 44.5t44.5 18.5t45 -18.5t19 -44.5t-19 -45t-45 -19t-44.5 18.5t-18.5 45.5zM256 615q0 26 18.5 44.5t44.5 18.5t45 -18.5t19 -44.5t-19 -45t-45 -19t-44.5 18.5t-18.5 45.5zM31 127q0 55 42.5 90.5t117.5 35.5q18 0 36.5 -2.5t27.5 -5.5l9 -3
q0 38 -12 53.5t-40 15.5q-26 0 -60 -4.5t-52 -10.5q-20 -6 -23 18l-9 52q-4 19 14 25q6 2 24 6.5t50.5 8.5t61.5 4q46 0 77 -11.5t47 -35t23 -53.5t7 -74v-217q0 -8 -6 -13.5t-13 -5.5h-36q-10 0 -17 14l-12 27q-56 -51 -122 -51q-60 0 -97.5 37t-37.5 100zM141 127
q0 -22 14.5 -37t37.5 -15q22 0 42.5 13.5t26.5 25.5v55q-27 12 -56 12t-47 -15t-18 -39z" />
    <glyph glyph-name="aring" unicode="&#xe5;" horiz-adv-x="426" 
d="M220 484q-47 0 -80 33t-33 80t33 80t80 33q46 0 79.5 -33t33.5 -80t-33.5 -80t-79.5 -33zM185 562q16 -15 35 -15t33.5 15.5t14.5 34.5t-14.5 33.5t-33.5 14.5t-34.5 -14.5t-15.5 -33.5t15 -35zM31 127q0 55 42.5 90.5t117.5 35.5q18 0 36.5 -2.5t27.5 -5.5l9 -3
q0 38 -12 53.5t-40 15.5q-26 0 -60 -4.5t-52 -10.5q-20 -6 -23 18l-9 52q-4 19 14 25q6 2 24 6.5t50.5 8.5t61.5 4q46 0 77 -11.5t47 -35t23 -53.5t7 -74v-217q0 -8 -6 -13.5t-13 -5.5h-36q-10 0 -17 14l-12 27q-56 -51 -122 -51q-60 0 -97.5 37t-37.5 100zM141 127
q0 -22 14.5 -37t37.5 -15q22 0 42.5 13.5t26.5 25.5v55q-27 12 -56 12t-47 -15t-18 -39z" />
    <glyph glyph-name="ae" unicode="&#xe6;" horiz-adv-x="670" 
d="M30 127q0 56 42 91t114 35q18 0 37 -2t29 -4l10 -2q-2 40 -13 56.5t-42 16.5q-48 0 -109 -16q-8 -1 -15 3.5t-8 12.5l-9 54q0 7 4.5 12.5t11.5 7.5q74 18 136 18q89 0 121 -41q52 41 120 41q78 0 132.5 -52.5t54.5 -133.5q0 -10 -0.5 -15.5t-2 -13t-6.5 -11.5t-12 -4
h-255q4 -34 30 -61t65 -27q41 0 79 26q17 12 26 0l40 -47q12 -16 -1 -26q-58 -55 -149 -55q-96 0 -150 65q-18 -23 -55.5 -44t-86.5 -21q-62 0 -100 37.5t-38 99.5zM379 251h150q-2 28 -23.5 47.5t-49.5 19.5q-30 0 -51.5 -19.5t-25.5 -47.5zM196 76q12 0 23.5 4t19 10.5
t13.5 13.5q6 6 8 10l2 4v52q-27 13 -62 13q-25 0 -42.5 -14.5t-17.5 -38.5t16 -39t40 -15z" />
    <glyph glyph-name="ccedilla" unicode="&#xe7;" horiz-adv-x="428" 
d="M180 0q-66 19 -108 73.5t-42 126.5q0 87 64 148.5t149 61.5q90 0 148 -71q6 -6 4.5 -14.5t-9.5 -13.5l-46 -44q-10 -10 -25 3q-28 32 -69 32q-40 0 -69 -30t-29 -72t28 -72t69 -30q18 0 33.5 6t23.5 12t19 17q3 2 4 3q12 12 25 3l43 -37q17 -14 7 -28q-54 -82 -154 -84
v-41q46 -6 71.5 -33.5t25.5 -69.5q0 -44 -31 -74.5t-75 -30.5q-22 0 -42.5 9.5t-33.5 25.5q-12 14 3 28l20 17q4 4 10.5 3.5t10.5 -4.5q10 -12 30 -12q15 0 25 11t10 26q0 20 -18 33t-55 16q-17 2 -17 18v88z" />
    <glyph glyph-name="egrave" unicode="&#xe8;" horiz-adv-x="445" 
d="M30 200q0 86 58 148t146 62q78 0 132.5 -53t54.5 -133q0 -13 -2 -27q0 -8 -6 -12.5t-13 -4.5h-256q2 -34 28.5 -60.5t67.5 -26.5q44 0 78 25q17 10 26 0l41 -47q6 -6 6 -12.5t-7 -13.5q-58 -55 -149 -55q-88 0 -146.5 61t-58.5 149zM153 250h151q-2 28 -23 48t-50 20
q-30 0 -52 -20t-26 -48zM302 528l-175 77q-16 8 -6 27l28 51q4 6 11.5 6.5t14.5 -3.5l164 -97q5 -2 7 -7.5t-1 -11.5l-18 -36q-6 -14 -25 -6z" />
    <glyph glyph-name="eacute" unicode="&#xe9;" horiz-adv-x="445" 
d="M160 528q-18 -8 -26 6l-17 36q-6 11 6 19l163 97q6 4 14 4q9 0 12 -7l29 -51q9 -20 -6 -27zM30 200q0 86 58 148t146 62q78 0 132.5 -53t54.5 -133q0 -13 -2 -27q0 -8 -6 -12.5t-13 -4.5h-256q2 -34 28.5 -60.5t67.5 -26.5q44 0 78 25q17 10 26 0l41 -47q6 -6 6 -12.5
t-7 -13.5q-58 -55 -149 -55q-88 0 -146.5 61t-58.5 149zM153 250h151q-2 28 -23 48t-50 20q-30 0 -52 -20t-26 -48z" />
    <glyph glyph-name="ecircumflex" unicode="&#xea;" horiz-adv-x="445" 
d="M111 529l-26 37q-3 6 -1 11t7 8l130 101q10 8 21 0l130 -101q5 -4 7 -8.5t-1 -10.5l-26 -37q-8 -12 -23 -3l-97 61l-98 -61q-15 -9 -23 3zM30 200q0 86 58 148t146 62q78 0 132.5 -53t54.5 -133q0 -13 -2 -27q0 -8 -6 -12.5t-13 -4.5h-256q2 -34 28.5 -60.5t67.5 -26.5
q44 0 78 25q17 10 26 0l41 -47q6 -6 6 -12.5t-7 -13.5q-58 -55 -149 -55q-88 0 -146.5 61t-58.5 149zM153 250h151q-2 28 -23 48t-50 20q-30 0 -52 -20t-26 -48z" />
    <glyph glyph-name="edieresis" unicode="&#xeb;" horiz-adv-x="445" 
d="M68 615q0 26 18.5 44.5t44.5 18.5t45 -18.5t19 -44.5t-19 -45t-45 -19t-44.5 18.5t-18.5 45.5zM269 615q0 26 18.5 44.5t44.5 18.5t45 -18.5t19 -44.5t-19 -45t-45 -19t-44.5 18.5t-18.5 45.5zM30 200q0 86 58 148t146 62q78 0 132.5 -53t54.5 -133q0 -13 -2 -27
q0 -8 -6 -12.5t-13 -4.5h-256q2 -34 28.5 -60.5t67.5 -26.5q44 0 78 25q17 10 26 0l41 -47q6 -6 6 -12.5t-7 -13.5q-58 -55 -149 -55q-88 0 -146.5 61t-58.5 149zM153 250h151q-2 28 -23 48t-50 20q-30 0 -52 -20t-26 -48z" />
    <glyph glyph-name="igrave" unicode="&#xec;" horiz-adv-x="241" 
d="M60 19v362q0 8 6 13.5t13 5.5h83q8 0 13.5 -5.5t5.5 -13.5v-362q0 -8 -5.5 -13.5t-13.5 -5.5h-83q-8 0 -13.5 5.5t-5.5 13.5zM190 528l-175 77q-16 8 -6 27l28 51q4 6 11.5 6.5t14.5 -3.5l164 -97q5 -2 7 -7.5t-1 -11.5l-18 -36q-6 -14 -25 -6z" />
    <glyph glyph-name="iacute" unicode="&#xed;" horiz-adv-x="241" 
d="M60 19v362q0 8 6 13.5t13 5.5h83q8 0 13.5 -5.5t5.5 -13.5v-362q0 -8 -5.5 -13.5t-13.5 -5.5h-83q-8 0 -13.5 5.5t-5.5 13.5zM49 528q-18 -8 -26 6l-17 36q-6 11 6 19l163 97q6 4 14 4q9 0 12 -7l29 -51q9 -20 -6 -27z" />
    <glyph glyph-name="icircumflex" unicode="&#xee;" horiz-adv-x="241" 
d="M-1 529l-26 37q-3 6 -1 11t7 8l130 101q10 8 21 0l130 -101q5 -4 7 -8.5t-1 -10.5l-26 -37q-8 -12 -23 -3l-97 61l-98 -61q-15 -9 -23 3zM60 19v362q0 8 6 13.5t13 5.5h83q8 0 13.5 -5.5t5.5 -13.5v-362q0 -8 -5.5 -13.5t-13.5 -5.5h-83q-8 0 -13.5 5.5t-5.5 13.5z" />
    <glyph glyph-name="idieresis" unicode="&#xef;" horiz-adv-x="241" 
d="M60 19v362q0 8 6 13.5t13 5.5h83q8 0 13.5 -5.5t5.5 -13.5v-362q0 -8 -5.5 -13.5t-13.5 -5.5h-83q-8 0 -13.5 5.5t-5.5 13.5zM-43 615q0 26 18.5 44.5t44.5 18.5t45 -18.5t19 -44.5t-19 -45t-45 -19t-44.5 18.5t-18.5 45.5zM158 615q0 26 18.5 44.5t44.5 18.5t45 -18.5
t19 -44.5t-19 -45t-45 -19t-44.5 18.5t-18.5 45.5z" />
    <glyph glyph-name="eth" unicode="&#xf0;" horiz-adv-x="528" 
d="M29 219q0 52 17.5 94t47 68.5t65.5 40.5t74 14q32 0 65 -9t49 -19q-21 72 -105 132l-81 -47q-7 -4 -14 -2t-11 8l-7 13q-4 6 -2.5 14t8.5 11l58 33q-32 18 -66 30q-26 8 -18 29l23 59q6 20 28 14q78 -31 137 -71l69 40q8 4 15 1.5t11 -9.5l7 -11q4 -6 2.5 -14t-8.5 -12
l-52 -30q152 -129 152 -330q0 -57 -15.5 -106.5t-44.5 -87.5t-75 -60t-103 -22q-60 0 -112.5 31t-83 83.5t-30.5 114.5zM256 104q29 0 52.5 13t37 35t20.5 47t7 52q-10 32 -40.5 59.5t-75.5 27.5q-48 0 -81.5 -34.5t-33.5 -82.5t33.5 -82.5t80.5 -34.5z" />
    <glyph glyph-name="ntilde" unicode="&#xf1;" horiz-adv-x="519" 
d="M148 562l-29 21q-5 4 -7 11t1 12q23 42 45 60q28 24 59 24q18 0 33.5 -8.5t25.5 -19t23 -19t25 -8.5t21 9.5t14 19t13 15t17 -2.5l28 -20q13 -10 1 -31q0 -1 -2 -4q-7 -12 -13 -20.5t-18.5 -22.5t-28.5 -21.5t-35 -7.5q-18 0 -34.5 8.5t-27.5 19.5t-23.5 19.5t-23.5 8.5
q-12 0 -21 -9.5t-13 -19.5t-12 -15.5t-18 1.5zM60 19v362q0 8 6 13.5t13 5.5h38q12 0 17 -12l14 -37q8 8 18.5 16.5t28 18.5t42.5 17t52 7q46 0 81 -16t55.5 -44.5t31 -63t10.5 -75.5v-192q0 -8 -5.5 -13.5t-13.5 -5.5h-82q-8 0 -13.5 6t-5.5 13v198q0 40 -19.5 62.5
t-55.5 22.5t-60.5 -19.5t-33.5 -43.5v-220q0 -10 -5.5 -14.5t-19.5 -4.5h-74q-8 0 -13.5 5.5t-5.5 13.5z" />
    <glyph glyph-name="ograve" unicode="&#xf2;" horiz-adv-x="468" 
d="M29 201q0 85 60.5 147t144.5 62t144.5 -62t60.5 -147q0 -86 -60.5 -148.5t-144.5 -62.5t-144.5 62.5t-60.5 148.5zM138 201q0 -43 28 -73t68 -30t68 30t28 73q0 42 -28 71.5t-68 29.5t-68 -29.5t-28 -71.5zM306 528l-175 77q-16 8 -6 27l28 51q4 6 11.5 6.5t14.5 -3.5
l164 -97q5 -2 7 -7.5t-1 -11.5l-18 -36q-6 -14 -25 -6z" />
    <glyph glyph-name="oacute" unicode="&#xf3;" horiz-adv-x="468" 
d="M163 528q-18 -8 -26 6l-17 36q-6 11 6 19l163 97q6 4 14 4q9 0 12 -7l29 -51q9 -20 -6 -27zM29 201q0 85 60.5 147t144.5 62t144.5 -62t60.5 -147q0 -86 -60.5 -148.5t-144.5 -62.5t-144.5 62.5t-60.5 148.5zM138 201q0 -43 28 -73t68 -30t68 30t28 73q0 42 -28 71.5
t-68 29.5t-68 -29.5t-28 -71.5z" />
    <glyph glyph-name="ocircumflex" unicode="&#xf4;" horiz-adv-x="468" 
d="M112 529l-26 37q-3 6 -1 11t7 8l130 101q10 8 21 0l130 -101q5 -4 7 -8.5t-1 -10.5l-26 -37q-8 -12 -23 -3l-97 61l-98 -61q-15 -9 -23 3zM29 201q0 85 60.5 147t144.5 62t144.5 -62t60.5 -147q0 -86 -60.5 -148.5t-144.5 -62.5t-144.5 62.5t-60.5 148.5zM138 201
q0 -43 28 -73t68 -30t68 30t28 73q0 42 -28 71.5t-68 29.5t-68 -29.5t-28 -71.5z" />
    <glyph glyph-name="otilde" unicode="&#xf5;" horiz-adv-x="468" 
d="M113 562l-29 21q-5 4 -7 11t1 12q23 42 45 60q28 24 59 24q18 0 33.5 -8.5t25.5 -19t23 -19t25 -8.5t21 9.5t14 19t13 15t17 -2.5l28 -20q13 -10 1 -31q0 -1 -2 -4q-7 -12 -13 -20.5t-18.5 -22.5t-28.5 -21.5t-35 -7.5q-18 0 -34.5 8.5t-27.5 19.5t-23.5 19.5t-23.5 8.5
q-12 0 -21 -9.5t-13 -19.5t-12 -15.5t-18 1.5zM29 201q0 85 60.5 147t144.5 62t144.5 -62t60.5 -147q0 -86 -60.5 -148.5t-144.5 -62.5t-144.5 62.5t-60.5 148.5zM138 201q0 -43 28 -73t68 -30t68 30t28 73q0 42 -28 71.5t-68 29.5t-68 -29.5t-28 -71.5z" />
    <glyph glyph-name="odieresis" unicode="&#xf6;" horiz-adv-x="468" 
d="M69 615q0 26 18.5 44.5t44.5 18.5t45 -18.5t19 -44.5t-19 -45t-45 -19t-44.5 18.5t-18.5 45.5zM270 615q0 26 18.5 44.5t44.5 18.5t45 -18.5t19 -44.5t-19 -45t-45 -19t-44.5 18.5t-18.5 45.5zM29 201q0 85 60.5 147t144.5 62t144.5 -62t60.5 -147q0 -86 -60.5 -148.5
t-144.5 -62.5t-144.5 62.5t-60.5 148.5zM138 201q0 -43 28 -73t68 -30t68 30t28 73q0 42 -28 71.5t-68 29.5t-68 -29.5t-28 -71.5z" />
    <glyph glyph-name="divide" unicode="&#xf7;" horiz-adv-x="505" 
d="M298 491q-20 -20 -48 -20t-48.5 20.5t-20.5 48.5t20.5 48.5t48.5 20.5t48.5 -20.5t20.5 -48.5t-21 -49zM200 111q-19 21 -19 49t19.5 48t48.5 20t49 -20t20 -48t-20 -48.5t-49 -20.5t-49 20zM56 299q-8 0 -13.5 6t-5.5 13v56q0 8 6 13.5t13 5.5h394q8 0 13 -6t5 -13v-56
q0 -8 -5.5 -13.5t-12.5 -5.5h-394z" />
    <glyph glyph-name="oslash" unicode="&#xf8;" horiz-adv-x="468" 
d="M51 24q-6 6 -6 13t5 13l22 22q-42 56 -42 130q0 85 60 146.5t145 61.5q70 0 126 -46l26 26q6 6 13 6q8 0 13 -6l10 -10q6 -6 6 -13t-6 -13l-26 -26q42 -56 42 -126q0 -86 -59.5 -149t-144.5 -63q-71 0 -127 45l-21 -22q-5 -6 -13.5 -5.5t-13.5 6.5zM150 152l134 135
q-21 15 -49 15q-40 0 -68 -29t-28 -71q0 -28 11 -50zM185 112q22 -14 50 -14q40 0 67.5 30.5t27.5 73.5q0 25 -11 47z" />
    <glyph glyph-name="ugrave" unicode="&#xf9;" horiz-adv-x="503" 
d="M53 187v194q0 8 5.5 13.5t13.5 5.5h82q8 0 13.5 -5.5t5.5 -13.5v-197q0 -40 19.5 -63t53.5 -23q30 0 52.5 23t27.5 52v208q0 11 5 15t17 4h76q8 0 13.5 -5.5t5.5 -13.5v-362q0 -8 -5.5 -13.5t-13.5 -5.5h-37q-14 0 -19 15l-12 33q-1 -1 -7.5 -7t-10 -9t-12 -9.5t-15 -10
t-17 -8t-20.5 -7.5t-24 -5t-28 -2q-45 0 -78.5 16t-52.5 44.5t-28.5 62.5t-9.5 74zM324 528l-175 77q-16 8 -6 27l28 51q4 6 11.5 6.5t14.5 -3.5l164 -97q5 -2 7 -7.5t-1 -11.5l-18 -36q-6 -14 -25 -6z" />
    <glyph glyph-name="uacute" unicode="&#xfa;" horiz-adv-x="503" 
d="M182 528q-18 -8 -26 6l-17 36q-6 11 6 19l163 97q6 4 14 4q9 0 12 -7l29 -51q9 -20 -6 -27zM53 187v194q0 8 5.5 13.5t13.5 5.5h82q8 0 13.5 -5.5t5.5 -13.5v-197q0 -40 19.5 -63t53.5 -23q30 0 52.5 23t27.5 52v208q0 11 5 15t17 4h76q8 0 13.5 -5.5t5.5 -13.5v-362
q0 -8 -5.5 -13.5t-13.5 -5.5h-37q-14 0 -19 15l-12 33q-1 -1 -7.5 -7t-10 -9t-12 -9.5t-15 -10t-17 -8t-20.5 -7.5t-24 -5t-28 -2q-45 0 -78.5 16t-52.5 44.5t-28.5 62.5t-9.5 74z" />
    <glyph glyph-name="ucircumflex" unicode="&#xfb;" horiz-adv-x="503" 
d="M129 529l-26 37q-3 6 -1 11t7 8l130 101q10 8 21 0l130 -101q5 -4 7 -8.5t-1 -10.5l-26 -37q-8 -12 -23 -3l-97 61l-98 -61q-15 -9 -23 3zM53 187v194q0 8 5.5 13.5t13.5 5.5h82q8 0 13.5 -5.5t5.5 -13.5v-197q0 -40 19.5 -63t53.5 -23q30 0 52.5 23t27.5 52v208
q0 11 5 15t17 4h76q8 0 13.5 -5.5t5.5 -13.5v-362q0 -8 -5.5 -13.5t-13.5 -5.5h-37q-14 0 -19 15l-12 33q-1 -1 -7.5 -7t-10 -9t-12 -9.5t-15 -10t-17 -8t-20.5 -7.5t-24 -5t-28 -2q-45 0 -78.5 16t-52.5 44.5t-28.5 62.5t-9.5 74z" />
    <glyph glyph-name="udieresis" unicode="&#xfc;" horiz-adv-x="503" 
d="M93 615q0 26 18.5 44.5t44.5 18.5t45 -18.5t19 -44.5t-19 -45t-45 -19t-44.5 18.5t-18.5 45.5zM294 615q0 26 18.5 44.5t44.5 18.5t45 -18.5t19 -44.5t-19 -45t-45 -19t-44.5 18.5t-18.5 45.5zM53 187v194q0 8 5.5 13.5t13.5 5.5h82q8 0 13.5 -5.5t5.5 -13.5v-197
q0 -40 19.5 -63t53.5 -23q30 0 52.5 23t27.5 52v208q0 11 5 15t17 4h76q8 0 13.5 -5.5t5.5 -13.5v-362q0 -8 -5.5 -13.5t-13.5 -5.5h-37q-14 0 -19 15l-12 33q-1 -1 -7.5 -7t-10 -9t-12 -9.5t-15 -10t-17 -8t-20.5 -7.5t-24 -5t-28 -2q-45 0 -78.5 16t-52.5 44.5t-28.5 62.5
t-9.5 74z" />
    <glyph glyph-name="yacute" unicode="&#xfd;" horiz-adv-x="463" 
d="M164 528q-18 -8 -26 6l-17 36q-6 11 6 19l163 97q6 4 14 4q9 0 12 -7l29 -51q9 -20 -6 -27zM171 28l-163 346q-4 10 1 18t16 8h90q12 0 17 -11l101 -226h1l100 226q4 7 9 9t15 2h80q12 0 17 -8t0 -18l-306 -662q-6 -12 -17 -12h-86q-12 0 -17 8t0 19z" />
    <glyph glyph-name="thorn" unicode="&#xfe;" 
d="M183 12v-294q0 -8 -5.5 -13.5t-13.5 -5.5h-85q-8 0 -13.5 5.5t-5.5 13.5v963q0 8 6 13.5t13 5.5h85q8 0 13.5 -6t5.5 -13v-300q45 28 94 28q82 0 137.5 -61.5t55.5 -147.5q0 -89 -59 -149.5t-144 -60.5q-40 0 -84 22zM183 126q8 -10 28.5 -18.5t45.5 -8.5q42 0 69.5 29
t27.5 72q0 42 -26.5 72t-68.5 30q-30 0 -51 -13t-25 -25v-138z" />
    <glyph glyph-name="ydieresis" unicode="&#xff;" horiz-adv-x="463" 
d="M69 615q0 26 18.5 44.5t44.5 18.5t45 -18.5t19 -44.5t-19 -45t-45 -19t-44.5 18.5t-18.5 45.5zM270 615q0 26 18.5 44.5t44.5 18.5t45 -18.5t19 -44.5t-19 -45t-45 -19t-44.5 18.5t-18.5 45.5zM171 28l-163 346q-4 10 1 18t16 8h90q12 0 17 -11l101 -226h1l100 226
q4 7 9 9t15 2h80q12 0 17 -8t0 -18l-306 -662q-6 -12 -17 -12h-86q-12 0 -17 8t0 19z" />
    <glyph glyph-name="OE" unicode="&#x152;" horiz-adv-x="975" 
d="M400 710q24 0 48 -2q24 -4 37 -6l12 -2h407q8 0 13.5 -6t5.5 -13v-82q0 -8 -5.5 -13.5t-13.5 -5.5h-296v-164h247q8 0 13.5 -6t5.5 -13v-83q0 -8 -6 -13.5t-13 -5.5h-247v-175h296q8 0 13.5 -6t5.5 -13v-82q0 -8 -5.5 -13.5t-13.5 -5.5h-407q-56 -10 -97 -10
q-98 0 -181 48t-130.5 130t-47.5 181t47.5 182t130.5 131t181 48zM400 118q46 0 78 13v437q-39 14 -78 14q-62 0 -115 -32t-83.5 -85.5t-30.5 -115.5t30.5 -115.5t83.5 -84.5t115 -31z" />
    <glyph glyph-name="oe" unicode="&#x153;" horiz-adv-x="732" 
d="M29 202q0 85 60.5 146.5t144.5 61.5q41 0 78 -17t65 -46q56 63 144 63q78 0 132.5 -52.5t54.5 -133.5q0 -13 -2 -27q0 -8 -6 -12.5t-13 -4.5h-255q4 -34 30 -61t65 -27q41 0 79 26q17 12 26 0l40 -47q12 -16 -1 -26q-57 -55 -149 -55q-87 0 -145 63q-28 -30 -64.5 -46.5
t-78.5 -16.5q-84 0 -144.5 63t-60.5 149zM441 250h150q-2 28 -23.5 47.5t-49.5 19.5q-30 0 -51.5 -19.5t-25.5 -47.5zM138 202q0 -43 28 -73.5t68 -30.5t68 30.5t28 73.5q0 42 -28 71t-68 29t-68 -29t-28 -71z" />
    <glyph glyph-name="Ydieresis" unicode="&#x178;" horiz-adv-x="583" 
d="M351 839q0 26 18.5 44.5t44.5 18.5t45 -18.5t19 -44.5t-19 -45t-45 -19t-44.5 18.5t-18.5 45.5zM104 839q0 26 18.5 44.5t44.5 18.5t45 -18.5t19 -44.5t-19 -45t-45 -19t-44.5 18.5t-18.5 45.5zM225 19v318l-228 334q-6 10 -1 19.5t17 9.5h102q9 0 16 -9l160 -230
l160 230q6 9 16 9h103q12 0 17 -9.5t-1 -19.5l-231 -333v-319q0 -8 -5.5 -13.5t-13.5 -5.5h-92q-8 0 -13.5 5.5t-5.5 13.5z" />
    <glyph glyph-name="tilde" unicode="&#x2dc;" horiz-adv-x="380" 
d="M70 562l-29 21q-5 4 -7 11t1 12q23 42 45 60q28 24 59 24q18 0 33.5 -8.5t25.5 -19t23 -19t25 -8.5t21 9.5t14 19t13 15t17 -2.5l28 -20q13 -10 1 -31q0 -1 -2 -4q-7 -12 -13 -20.5t-18.5 -22.5t-28.5 -21.5t-35 -7.5q-18 0 -34.5 8.5t-27.5 19.5t-23.5 19.5t-23.5 8.5
q-12 0 -21 -9.5t-13 -19.5t-12 -15.5t-18 1.5z" />
    <glyph glyph-name="endash" unicode="&#x2013;" horiz-adv-x="539" 
d="M72 210q-8 0 -13.5 5t-5.5 13v37q0 8 5.5 13.5t13.5 5.5h395q8 0 13.5 -5.5t5.5 -13.5v-37q0 -8 -5.5 -13t-13.5 -5h-395z" />
    <glyph glyph-name="emdash" unicode="&#x2014;" horiz-adv-x="759" 
d="M72 210q-8 0 -13.5 5t-5.5 13v37q0 8 5.5 13.5t13.5 5.5h615q8 0 13.5 -5.5t5.5 -13.5v-37q0 -8 -5.5 -13t-13.5 -5h-615z" />
    <glyph glyph-name="quoteleft" unicode="&#x2018;" horiz-adv-x="198" 
d="M106 414q-14 0 -28 5.5t-26.5 17.5t-20 33.5t-7.5 51.5q0 102 90 181q13 10 22 -1l15 -15q4 -5 3.5 -11t-6.5 -11l-5 -5q-5 -4 -8 -7l-9 -9t-10.5 -11.5t-10 -13t-9.5 -16.5l-8 -18t-6 -20t-2 -22l4 1q5 2 12.5 3t14.5 1q27 0 47 -20t20 -47t-21 -47t-51 -20z" />
    <glyph glyph-name="quoteright" unicode="&#x2019;" horiz-adv-x="196" 
d="M62 423l-14 14q-5 6 -4.5 12.5t6.5 10.5q7 4 15.5 12.5t21.5 24t22 38.5t9 47h-2q-2 0 -5 -1l-6 -2t-8 -1.5t-9 -0.5q-28 0 -47.5 19.5t-19.5 46.5q0 28 20.5 47.5t50.5 19.5q14 0 28 -5.5t27 -17t20.5 -33.5t7.5 -51q0 -102 -90 -181q-13 -9 -23 1z" />
    <glyph glyph-name="quotedblleft" unicode="&#x201c;" horiz-adv-x="392" 
d="M299 416q-14 0 -28 5.5t-26.5 17t-20.5 33.5t-8 51q0 102 90 181q14 10 23 -1l15 -14q4 -6 3 -12.5t-6 -10.5q-67 -55 -68 -122h2q2 0 4.5 1t6.5 2t8.5 1.5t9.5 0.5q28 0 47.5 -19.5t19.5 -46.5q0 -28 -21 -47.5t-51 -19.5zM106 416q-14 0 -28 5.5t-26.5 17t-20 33.5
t-7.5 51q0 102 90 181q13 10 22 -1l15 -14q4 -5 3.5 -12t-6.5 -11q-67 -55 -68 -122l4 1l12.5 2.5t14.5 1.5q28 0 47.5 -19.5t19.5 -46.5q0 -28 -21 -47.5t-51 -19.5z" />
    <glyph glyph-name="quotedblright" unicode="&#x201d;" horiz-adv-x="389" 
d="M62 423l-14 14q-5 6 -4.5 12.5t6.5 10.5q7 4 15.5 12.5t21.5 24t22 38.5t9 47h-2q-2 0 -5 -1l-6 -2t-8 -1.5t-9 -0.5q-28 0 -47.5 19.5t-19.5 46.5q0 28 20.5 47.5t50.5 19.5q14 0 28 -5.5t27 -17t20.5 -33.5t7.5 -51q0 -102 -90 -181q-13 -9 -23 1zM255 423l-14 14
q-5 6 -4.5 12.5t6.5 10.5q7 4 15.5 12.5t21.5 24t22 38.5t9 47h-2q-2 0 -5 -1l-6 -2t-8 -1.5t-9 -0.5q-28 0 -47.5 19.5t-19.5 46.5q0 28 20.5 47.5t50.5 19.5q14 0 28 -5.5t27 -17t20.5 -33.5t7.5 -51q0 -102 -90 -181q-13 -9 -23 1z" />
    <glyph glyph-name="quotedblbase" unicode="&#x201e;" horiz-adv-x="421" 
d="M110 124q14 0 28 -5.5t26.5 -17.5t20.5 -34t8 -51q0 -102 -90 -181q-14 -10 -23 1l-15 15q-10 11 3 22q6 4 15 12.5t22 24.5t21.5 38.5t9.5 46.5l-2 -1q-2 0 -4.5 -1t-6.5 -1.5t-8.5 -1t-9.5 -0.5q-27 0 -47 20t-20 47t20.5 47t51.5 20zM302 124q14 0 28 -5.5t26.5 -17.5
t20.5 -34t8 -51q0 -102 -90 -181q-14 -10 -23 1l-15 15q-10 11 3 22q6 4 15 12.5t22 24.5t21.5 38.5t9.5 46.5l-2 -1q-2 0 -4.5 -1t-6.5 -1.5t-8.5 -1t-9.5 -0.5q-27 0 -47 20t-20 47t20.5 47t51.5 20z" />
    <glyph glyph-name="bullet" unicode="&#x2022;" horiz-adv-x="389" 
d="M192 95q-52 0 -90.5 38.5t-38.5 90.5q0 54 38.5 93.5t90.5 39.5q55 0 94 -39t39 -94q0 -52 -39.5 -90.5t-93.5 -38.5z" />
    <glyph glyph-name="ellipsis" unicode="&#x2026;" horiz-adv-x="668" 
d="M169 12q-21 -21 -51 -21t-51 21t-21 51t21 51t51 21t51 -21t21 -51t-21 -51zM386 12q-21 -21 -51 -21t-51 21t-21 51t21 51t51 21t51 -21t21 -51t-21 -51zM600 12q-21 -21 -51 -21t-51 21t-21 51t21 51t51 21t51 -21t21 -51t-21 -51z" />
    <glyph glyph-name="guilsinglleft" unicode="&#x2039;" horiz-adv-x="271" 
d="M130 39l-104 155q-8 12 0 24l109 148q7 12 18 12h57q12 0 16.5 -9.5t-1.5 -21.5l-68 -139l65 -147q6 -12 2 -21t-17 -9h-62q-9 0 -15 8z" />
    <glyph glyph-name="guilsinglright" unicode="&#x203a;" horiz-adv-x="271" 
d="M63 31q-12 0 -16.5 9t1.5 21l65 147l-68 139q-6 12 -1.5 21.5t16.5 9.5h57q11 0 18 -12l109 -148q8 -12 0 -24l-104 -155q-6 -8 -15 -8h-62z" />
    <glyph glyph-name="Euro" unicode="&#x20ac;" horiz-adv-x="718" 
d="M38 250q-8 0 -13 6t-5 13v13q0 8 5 13.5t13 5.5h39q-3 24 -3 48q0 14 1 21h-37q-8 0 -13 6t-5 13v13q0 8 5 13.5t13 5.5h43q25 125 124.5 207t229.5 82q74 0 131.5 -23t110.5 -70q6 -6 6.5 -14t-5.5 -14l-60 -62q-5 -6 -13 -6t-14 6q-64 58 -153 58q-76 0 -134 -46
t-79 -118h233q8 0 13.5 -5.5t5.5 -13.5v-15q0 -8 -5.5 -13t-13.5 -5h-243v-17q0 -30 5 -51h198q8 0 13.5 -5.5t5.5 -13.5v-14q0 -8 -5.5 -13t-13.5 -5h-180q27 -58 80.5 -93.5t120.5 -35.5q82 0 153 57q6 5 13 4.5t12 -4.5l62 -64q6 -6 5.5 -14t-6.5 -13q-100 -97 -243 -97
q-122 0 -218.5 73t-128.5 187h-50z" />
    <glyph glyph-name="trademark" unicode="&#x2122;" horiz-adv-x="721" 
d="M338 385q-10 0 -15 7t-4 16l52 282q2 15 19 15h4q12 0 17 -11l87 -185l89 185q4 11 17 11h4q8 0 13 -4.5t6 -10.5l53 -283q2 -9 -4 -15.5t-15 -6.5h-39q-6 0 -12 5t-7 12l-22 125l-64 -136q-4 -9 -16 -9h-6q-12 0 -17 10l-61 135l-24 -126q0 -6 -6.5 -11t-12.5 -5h-36z
M145 385q-8 0 -13.5 5.5t-5.5 13.5v222h-64q-8 0 -13.5 5.5t-5.5 13.5v36q0 8 5.5 13.5t13.5 5.5h205q8 0 13.5 -6t5.5 -13v-36q0 -8 -5.5 -13.5t-13.5 -5.5h-64v-222q0 -8 -5.5 -13.5t-13.5 -5.5h-39z" />
    <glyph glyph-name="dotlessi" horiz-adv-x="241" 
d="M60 19v362q0 8 6 13.5t13 5.5h83q8 0 13.5 -5.5t5.5 -13.5v-362q0 -8 -5.5 -13.5t-13.5 -5.5h-83q-8 0 -13.5 5.5t-5.5 13.5z" />
    <glyph glyph-name="circumflex" horiz-adv-x="373" 
d="M63 529l-26 37q-3 6 -1 11t7 8l130 101q10 8 21 0l130 -101q5 -4 7 -8.5t-1 -10.5l-26 -37q-8 -12 -23 -3l-97 61l-98 -61q-15 -9 -23 3z" />
    <glyph glyph-name="dotaccent" horiz-adv-x="219" 
d="M160 557q-21 -21 -51 -21t-51 21t-21 51t21 51t51 21t51 -21t21 -51t-21 -51z" />
    <glyph glyph-name="ring" horiz-adv-x="290" 
d="M145 484q-47 0 -80 33t-33 80t33 80t80 33q46 0 79.5 -33t33.5 -80t-33.5 -80t-79.5 -33zM110 562q16 -15 35 -15t33.5 15.5t14.5 34.5t-14.5 33.5t-33.5 14.5t-34.5 -14.5t-15.5 -33.5t15 -35z" />
    <glyph glyph-name="quotesinglbase" horiz-adv-x="228" 
d="M109 124q14 0 28 -5.5t26.5 -17.5t20.5 -34t8 -51q0 -102 -90 -181q-14 -10 -23 1l-15 15q-10 11 3 22q6 4 15 12.5t22 24.5t21.5 38.5t9.5 46.5l-2 -1q-2 0 -4.5 -1t-6.5 -1.5t-8.5 -1t-9.5 -0.5q-27 0 -47 20t-20 47t20.5 47t51.5 20z" />
    <glyph glyph-name="fraction" horiz-adv-x="123" 
d="M-60 10q-5 -10 -17 -10h-48q-12 0 -17 9t0 18l343 663q5 10 17 10h50q12 0 17 -9t0 -18z" />
    <glyph glyph-name="zerosuperior" horiz-adv-x="357" 
d="M179 494q-62 0 -94.5 42t-32.5 116q0 75 32.5 116.5t94.5 41.5q61 0 93 -41.5t32 -116.5q0 -74 -32.5 -116t-92.5 -42zM179 564q20 0 32 23t12 65t-12 65t-32 23q-21 0 -32.5 -23t-11.5 -65t11.5 -65t32.5 -23z" />
    <glyph glyph-name="foursuperior" horiz-adv-x="370" 
d="M206 504q-4 0 -7 3t-3 6v48h-137q-4 0 -6.5 2.5t-2.5 5.5v51l163 177q3 3 8 3h41q4 0 6.5 -2.5t2.5 -6.5v-170h40q4 0 6.5 -2.5t2.5 -5.5v-43q0 -4 -2.5 -6.5t-6.5 -2.5h-40v-48q0 -4 -2.5 -6.5t-6.5 -2.5h-56zM123 620h74v83z" />
    <glyph glyph-name="fivesuperior" horiz-adv-x="326" 
d="M152 494q-34 0 -59 12t-37 26q-8 8 -1 15l27 33q7 10 15 2q2 -2 7.5 -6t20 -9.5t29.5 -5.5q18 0 31.5 11t13.5 27t-13 26.5t-35 10.5h-74q-7 0 -11 5t-4 11v139q0 4 2.5 6.5t6.5 2.5h160q4 0 6.5 -2.5t2.5 -6.5v-44q0 -4 -2.5 -6.5t-6.5 -2.5h-103v-39h35q54 0 84 -26.5
t30 -72.5t-34.5 -76t-90.5 -30z" />
    <glyph glyph-name="sixsuperior" horiz-adv-x="334" 
d="M170 494q-56 0 -88 35t-32 89q0 37 14 69.5t33.5 53t45 37t42.5 24.5t31 12q12 4 18 -8l13 -34q4 -12 -9 -16q-28 -8 -61 -28t-43 -46q26 13 55 13q38 0 66.5 -25.5t28.5 -71.5q0 -42 -34 -73t-80 -31zM170 563q16 0 28 11.5t12 26.5q0 16 -12 27.5t-28 11.5
q-15 0 -27.5 -10t-17.5 -20q1 -18 14 -32.5t31 -14.5z" />
    <glyph glyph-name="sevensuperior" horiz-adv-x="322" 
d="M68 504q-11 0 -11 8v6l116 218h-109q-4 0 -7 2.5t-3 5.5v47q0 4 3 6.5t7 2.5h199q4 0 6.5 -2.5t2.5 -6.5v-14l-132 -264q-5 -9 -15 -9h-57z" />
    <glyph glyph-name="eightsuperior" horiz-adv-x="342" 
d="M50 580q0 16 8 31t19.5 24t19.5 14t13 7v1q-19 8 -35 26t-16 44q0 38 32 60.5t79 22.5q48 0 80.5 -23t32.5 -60q0 -26 -16.5 -44.5t-35.5 -25.5v-1q22 -6 41.5 -26t19.5 -50q0 -38 -34 -62t-88 -24t-87 24.5t-33 61.5zM171 686q14 2 23 11t9 20q0 12 -9.5 21.5t-23.5 9.5
q-13 0 -22.5 -9.5t-9.5 -21.5q0 -13 8.5 -21t24.5 -10zM171 624q-17 -2 -28 -12.5t-11 -23.5q0 -14 12 -23t27 -9t26.5 9t11.5 23t-10.5 24t-27.5 12z" />
    <glyph glyph-name="ninesuperior" horiz-adv-x="334" 
d="M118 488q-13 -4 -18 8l-13 34q-4 12 9 16q28 8 61 28t43 46q-26 -13 -55 -13q-38 0 -66.5 25.5t-28.5 71.5q0 42 34 73t80 31q56 0 88 -35t32 -89q0 -37 -14 -69.5t-33.5 -53t-45 -37t-42.5 -24.5t-31 -12zM164 662q15 0 27.5 10t17.5 20q-1 18 -14 32.5t-31 14.5
q-16 0 -28 -11.5t-12 -26.5q0 -16 12 -27.5t28 -11.5z" />
    <glyph glyph-name="zeroinferior" horiz-adv-x="357" 
d="M179 -159q-62 0 -94.5 42t-32.5 116q0 75 32.5 116.5t94.5 41.5q61 0 93 -41.5t32 -116.5q0 -74 -32.5 -116t-92.5 -42zM179 -89q20 0 32 23t12 65t-12 65t-32 23q-21 0 -32.5 -23t-11.5 -65t11.5 -65t32.5 -23z" />
    <glyph glyph-name="oneinferior" horiz-adv-x="241" 
d="M120 -149q-10 0 -10 9v193l-49 -4q-9 0 -9 9l-2 31q0 6 7 11l74 47h51q4 0 6.5 -2.5t2.5 -6.5v-278q0 -4 -2.5 -6.5t-6.5 -2.5h-62z" />
    <glyph glyph-name="twoinferior" horiz-adv-x="316" 
d="M60 -149q-10 0 -10 9v17l110 126q25 28 25 50q0 15 -11 25t-29 10q-12 0 -24.5 -6.5t-19.5 -13.5q-10 -6 -16 3l-22 31q-5 6 -4.5 10.5t7.5 10.5q41 34 94 34q48 0 77 -25.5t29 -66.5t-37 -86l-54 -64h80q4 0 6.5 -2.5t2.5 -6.5v-46q0 -9 -9 -9h-195z" />
    <glyph glyph-name="threeinferior" horiz-adv-x="317" 
d="M150 -159q-58 0 -95 33q-8 8 -1 18l22 29q6 9 17 2l3 -2q2 -2 6.5 -4t10 -4t12.5 -4t15 -2q20 0 31 8t11 23t-12 24t-35 9h-29q-15 0 -15 14v31q0 14 15 14h29q18 0 29.5 8.5t11.5 22.5t-11 22t-27 8q-21 0 -39 -16q-4 -3 -7.5 -2.5t-7.5 5.5l-24 29q-4 4 -4 9.5t5 8.5
q2 2 4.5 4t11 7t18 9.5t24.5 8t31 3.5q48 0 78 -22.5t30 -60.5q0 -24 -15 -42.5t-36 -27.5v-1q23 -9 41.5 -27.5t18.5 -48.5q0 -40 -33.5 -63t-83.5 -23z" />
    <glyph glyph-name="fourinferior" horiz-adv-x="370" 
d="M206 -149q-4 0 -7 3t-3 6v48h-137q-4 0 -6.5 2.5t-2.5 5.5v51l163 177q3 3 8 3h41q4 0 6.5 -2.5t2.5 -6.5v-170h40q4 0 6.5 -2.5t2.5 -5.5v-43q0 -4 -2.5 -6.5t-6.5 -2.5h-40v-48q0 -4 -2.5 -6.5t-6.5 -2.5h-56zM123 -33h74v83z" />
    <glyph glyph-name="fiveinferior" horiz-adv-x="326" 
d="M152 -159q-34 0 -59 12t-37 26q-8 8 -1 15l27 33q7 10 15 2q2 -2 7.5 -6t20 -9.5t29.5 -5.5q18 0 31.5 11t13.5 27t-13 26.5t-35 10.5h-74q-7 0 -11 5t-4 11v139q0 4 2.5 6.5t6.5 2.5h160q4 0 6.5 -2.5t2.5 -6.5v-44q0 -4 -2.5 -6.5t-6.5 -2.5h-103v-39h35q54 0 84 -26.5
t30 -72.5t-34.5 -76t-90.5 -30z" />
    <glyph glyph-name="sixinferior" horiz-adv-x="334" 
d="M170 -159q-56 0 -88 35t-32 89q0 37 14 69.5t33.5 53t45 37t42.5 24.5t31 12q12 4 18 -8l13 -34q4 -12 -9 -16q-28 -8 -61 -28t-43 -46q26 13 55 13q38 0 66.5 -25.5t28.5 -71.5q0 -42 -34 -73t-80 -31zM170 -90q16 0 28 11.5t12 26.5q0 16 -12 27.5t-28 11.5
q-15 0 -27.5 -10t-17.5 -20q1 -18 14 -32.5t31 -14.5z" />
    <glyph glyph-name="seveninferior" horiz-adv-x="322" 
d="M68 -149q-11 0 -11 8v6l116 218h-109q-4 0 -7 2.5t-3 5.5v47q0 4 3 6.5t7 2.5h199q4 0 6.5 -2.5t2.5 -6.5v-14l-132 -264q-5 -9 -15 -9h-57z" />
    <glyph glyph-name="eightinferior" horiz-adv-x="342" 
d="M50 -73q0 16 8 31t19.5 24t19.5 14t13 7v1q-19 8 -35 26t-16 44q0 38 32 60.5t79 22.5q48 0 80.5 -23t32.5 -60q0 -26 -16.5 -44.5t-35.5 -25.5v-1q22 -6 41.5 -26t19.5 -50q0 -38 -34 -62t-88 -24t-87 24.5t-33 61.5zM171 33q14 2 23 11t9 20q0 12 -9.5 21.5t-23.5 9.5
q-13 0 -22.5 -9.5t-9.5 -21.5q0 -13 8.5 -21t24.5 -10zM171 -29q-17 -2 -28 -12.5t-11 -23.5q0 -14 12 -23t27 -9t26.5 9t11.5 23t-10.5 24t-27.5 12z" />
    <glyph glyph-name="nineinferior" horiz-adv-x="334" 
d="M118 -165q-13 -4 -18 8l-13 34q-4 12 9 16q28 8 61 28t43 46q-26 -13 -55 -13q-38 0 -66.5 25.5t-28.5 71.5q0 42 34 73t80 31q56 0 88 -35t32 -89q0 -37 -14 -69.5t-33.5 -53t-45 -37t-42.5 -24.5t-31 -12zM164 9q15 0 27.5 10t17.5 20q-1 18 -14 32.5t-31 14.5
q-16 0 -28 -11.5t-12 -26.5q0 -16 12 -27.5t28 -11.5z" />
    <glyph glyph-name="grave.cap" horiz-adv-x="302" 
d="M224 768l-175 77q-7 3 -9 10.5t3 16.5l28 52q4 6 12 6.5t14 -3.5l164 -98q4 -2 6.5 -7.5t-0.5 -11.5l-18 -35q-7 -15 -25 -7z" />
    <glyph glyph-name="acute.cap" horiz-adv-x="302" 
d="M84 768q-18 -8 -25 7l-18 35q-2 6 -0.5 11t6.5 8l164 98q18 12 26 -3l28 -52q5 -9 3 -16.5t-9 -10.5z" />
    <glyph glyph-name="dieresis.cap" horiz-adv-x="474" 
d="M297 839q0 26 18.5 44.5t44.5 18.5t45 -18.5t19 -44.5t-19 -45t-45 -19t-44.5 18.5t-18.5 45.5zM50 839q0 26 18.5 44.5t44.5 18.5t45 -18.5t19 -44.5t-19 -45t-45 -19t-44.5 18.5t-18.5 45.5z" />
    <glyph glyph-name="brokenbar.case" horiz-adv-x="315" 
d="M151 512q-8 0 -13.5 5t-5.5 13v331q0 8 6 13.5t13 5.5h13q8 0 13 -5.5t5 -13.5v-331q0 -8 -6 -13t-13 -5h-12zM132 169q0 8 6 13.5t13 5.5h13q8 0 13 -5.5t5 -13.5v-331q0 -8 -6 -13t-13 -5h-12q-8 0 -13.5 5t-5.5 13v331z" />
    <glyph glyph-name="zero.tf" horiz-adv-x="604" 
d="M488 82q-66 -92 -185 -92t-185.5 92.5t-66.5 257.5t66.5 257.5t185.5 92.5t185.5 -92.5t66.5 -257.5t-67 -258zM424 340q0 111 -31.5 171.5t-89.5 60.5t-89.5 -60.5t-31.5 -171.5q0 -112 31.5 -172t89.5 -60t89.5 60t31.5 172z" />
    <glyph glyph-name="one.tf" horiz-adv-x="604" 
d="M130 0q-8 0 -13.5 5t-5.5 13v71q0 8 5.5 13.5t13.5 5.5h128v390l-88 -19q-7 -2 -13.5 2.5t-6.5 10.5l-6 49q-2 12 5 18l144 121h70q8 0 13 -6t5 -13v-553h108q8 0 13.5 -5.5t5.5 -13.5v-71q0 -8 -5.5 -13t-13.5 -5h-359z" />
    <glyph glyph-name="two.tf" horiz-adv-x="604" 
d="M71 19v23q95 115 259 333q51 62 51 111q0 37 -27.5 64t-78.5 27q-58 0 -112 -59q-6 -6 -14 -6q-7 0 -13 6l-48 48q-5 5 -5.5 12.5t4.5 13.5q3 4 9 10.5t26 23.5t41.5 30t54 23.5t66.5 10.5q104 0 163.5 -57t59.5 -142q0 -31 -9.5 -60t-21.5 -48t-36 -54
q-30 -42 -172 -222h216q8 0 13.5 -5.5t5.5 -13.5v-69q0 -8 -5.5 -13.5t-13.5 -5.5h-394q-8 0 -13.5 5.5t-5.5 13.5z" />
    <glyph glyph-name="three.tf" horiz-adv-x="604" 
d="M75 79q-10 12 1 25l51 49q14 12 26 0q3 -4 19 -15.5t46.5 -25t57.5 -13.5q42 0 74 27t32 67q0 42 -36.5 70.5t-101.5 28.5h-56q-8 0 -13.5 5.5t-5.5 14.5v63q0 20 19 20h56q59 0 91.5 26t32.5 66t-28.5 66t-68.5 26q-60 0 -101 -48q-12 -14 -27 -1l-49 46q-6 6 -5.5 13
t5.5 13q3 4 9 10t25 21t39.5 26.5t52 21t62.5 9.5q90 0 151.5 -50.5t61.5 -132.5q0 -53 -32 -95t-71 -61v-3q20 -8 39.5 -22t38.5 -33.5t31 -48t12 -59.5q0 -86 -64 -140.5t-166 -54.5q-132 0 -208 89z" />
    <glyph glyph-name="four.tf" horiz-adv-x="604" 
d="M43 145q-8 0 -13.5 5.5t-5.5 13.5v83l360 438q6 6 15 6h54q8 0 13.5 -5.5t5.5 -13.5v-426h80q8 0 13.5 -5t5.5 -13v-62q0 -8 -5.5 -13.5t-13.5 -5.5h-80l1 -128q0 -8 -5.5 -13.5t-13.5 -5.5h-83q-8 0 -13.5 6t-5.5 13v126h-309zM156 249h200v240z" />
    <glyph glyph-name="five.tf" horiz-adv-x="604" 
d="M95 73q-10 12 -10.5 18.5t8.5 15.5l50 49q12 11 24 1q6 -6 20.5 -16.5t46.5 -25t62 -14.5q50 0 83 34.5t33 83.5t-32 80.5t-89 31.5h-154q-14 0 -22.5 11t-8.5 24v295q0 8 5.5 13.5t13.5 5.5h316q8 0 13.5 -6t5.5 -13v-68q0 -8 -5.5 -13.5t-13.5 -5.5h-222v-133h86
q106 0 167.5 -61.5t61.5 -160.5q0 -94 -70 -161.5t-172 -67.5q-38 0 -72 8.5t-58 22t-40 26.5t-27 26z" />
    <glyph glyph-name="six.tf" horiz-adv-x="604" 
d="M74 266q0 60 14.5 114.5t36.5 95t53 76t61.5 59t64 43.5t57.5 30.5t46 17.5q22 6 28 -14l23 -59q8 -20 -18 -29q-16 -6 -37.5 -15.5t-50.5 -27t-54.5 -38.5t-47 -50.5t-30.5 -60.5q16 10 49.5 19t64.5 9q38 0 74 -14t65.5 -40.5t47 -69t17.5 -93.5q0 -62 -30.5 -114.5
t-82.5 -83.5t-113 -31q-57 0 -103 22t-75 60t-44.5 87.5t-15.5 106.5zM311 104q47 0 80.5 35t33.5 82q0 48 -33.5 82.5t-81.5 34.5q-45 0 -75.5 -27t-40.5 -60q0 -26 7 -51.5t20.5 -47.5t37 -35t52.5 -13z" />
    <glyph glyph-name="seven.tf" horiz-adv-x="604" 
d="M113 19v11l260 542h-264q-8 0 -13.5 6t-5.5 13v70q0 8 6 13.5t13 5.5h416q8 0 13.5 -6t5.5 -13v-7l-298 -627q-12 -27 -34 -27h-74q-25 0 -25 19z" />
    <glyph glyph-name="eight.tf" horiz-adv-x="604" 
d="M64 182q0 30 14.5 60t36 51.5t39.5 35t31 20.5v3q-17 9 -33.5 23t-33 33.5t-26.5 45.5t-10 53q0 82 62.5 132.5t154.5 50.5q96 0 158.5 -50.5t62.5 -132.5q0 -27 -10 -52t-26.5 -44.5t-32.5 -33.5t-34 -24v-4q20 -10 39 -24.5t38 -35t31.5 -49t12.5 -58.5
q0 -84 -65.5 -138t-173.5 -54q-106 0 -170.5 54.5t-64.5 137.5zM301 407q45 10 68 35.5t23 59.5q0 36 -27 60.5t-66 24.5q-36 0 -62.5 -24.5t-26.5 -60.5q0 -35 22.5 -59.5t68.5 -35.5zM197 184q0 -40 31 -66t73 -26t73 26t31 66q0 36 -28 65.5t-76 40.5q-48 -11 -76 -40.5
t-28 -65.5z" />
    <glyph glyph-name="nine.tf" horiz-adv-x="604" 
d="M145 51q-8 20 18 29q16 6 38 15.5t51 27t54 38.5t46.5 50.5t30.5 60.5q-16 -10 -49 -19t-65 -9q-38 0 -74 14t-65 40.5t-47 69t-18 93.5q0 62 31 114.5t83 83.5t112 31q57 0 103 -22t75 -60t44.5 -87.5t15.5 -106.5q0 -60 -14 -114.5t-36.5 -95t-53.5 -76t-61.5 -59
t-64 -43.5t-58 -30.5t-45.5 -17.5q-22 -6 -28 14zM293 342q45 0 75.5 27t40.5 60q0 26 -7 51.5t-21 47.5t-37 35t-52 13q-47 0 -80.5 -35t-33.5 -82q0 -48 33.5 -82.5t81.5 -34.5z" />
    <glyph glyph-name="zero.denom" horiz-adv-x="357" 
d="M179 -9q-62 0 -94.5 42t-32.5 116q0 75 32.5 116.5t94.5 41.5q61 0 93 -41.5t32 -116.5q0 -74 -32.5 -116t-92.5 -42zM179 61q20 0 32 23t12 65t-12 65t-32 23q-21 0 -32.5 -23t-11.5 -65t11.5 -65t32.5 -23z" />
    <glyph glyph-name="one.denom" horiz-adv-x="241" 
d="M120 1q-10 0 -10 9v193l-49 -4q-9 0 -9 9l-2 31q0 6 7 11l74 47h51q4 0 6.5 -2.5t2.5 -6.5v-278q0 -4 -2.5 -6.5t-6.5 -2.5h-62z" />
    <glyph glyph-name="two.denom" horiz-adv-x="316" 
d="M60 1q-10 0 -10 9v17l110 126q25 28 25 50q0 15 -11 25t-29 10q-12 0 -24.5 -6.5t-19.5 -13.5q-10 -6 -16 3l-22 31q-5 6 -4.5 10.5t7.5 10.5q41 34 94 34q48 0 77 -25.5t29 -66.5t-37 -86l-54 -64h80q4 0 6.5 -2.5t2.5 -6.5v-46q0 -9 -9 -9h-195z" />
    <glyph glyph-name="three.denom" horiz-adv-x="317" 
d="M150 -9q-58 0 -95 33q-8 8 -1 18l22 29q6 9 17 2l3 -2q2 -2 6.5 -4t10 -4t12.5 -4t15 -2q20 0 31 8t11 23t-12 24t-35 9h-29q-15 0 -15 14v31q0 14 15 14h29q18 0 29.5 8.5t11.5 22.5t-11 22t-27 8q-21 0 -39 -16q-4 -3 -7.5 -2.5t-7.5 5.5l-24 29q-4 4 -4 9.5t5 8.5
q2 2 4.5 4t11 7t18 9.5t24.5 8t31 3.5q48 0 78 -22.5t30 -60.5q0 -24 -15 -42.5t-36 -27.5v-1q23 -9 41.5 -27.5t18.5 -48.5q0 -40 -33.5 -63t-83.5 -23z" />
    <glyph glyph-name="four.denom" horiz-adv-x="370" 
d="M206 1q-4 0 -7 3t-3 6v48h-137q-4 0 -6.5 2.5t-2.5 5.5v51l163 177q3 3 8 3h41q4 0 6.5 -2.5t2.5 -6.5v-170h40q4 0 6.5 -2.5t2.5 -5.5v-43q0 -4 -2.5 -6.5t-6.5 -2.5h-40v-48q0 -4 -2.5 -6.5t-6.5 -2.5h-56zM123 117h74v83z" />
    <glyph glyph-name="five.denom" horiz-adv-x="326" 
d="M152 -9q-34 0 -59 12t-37 26q-8 8 -1 15l27 33q7 10 15 2q2 -2 7.5 -6t20 -9.5t29.5 -5.5q18 0 31.5 11t13.5 27t-13 26.5t-35 10.5h-74q-7 0 -11 5t-4 11v139q0 4 2.5 6.5t6.5 2.5h160q4 0 6.5 -2.5t2.5 -6.5v-44q0 -4 -2.5 -6.5t-6.5 -2.5h-103v-39h35q54 0 84 -26.5
t30 -72.5t-34.5 -76t-90.5 -30z" />
    <glyph glyph-name="six.denom" horiz-adv-x="334" 
d="M170 -9q-56 0 -88 35t-32 89q0 37 14 69.5t33.5 53t45 37t42.5 24.5t31 12q12 4 18 -8l13 -34q4 -12 -9 -16q-28 -8 -61 -28t-43 -46q26 13 55 13q38 0 66.5 -25.5t28.5 -71.5q0 -42 -34 -73t-80 -31zM170 60q16 0 28 11.5t12 26.5q0 16 -12 27.5t-28 11.5
q-15 0 -27.5 -10t-17.5 -20q1 -18 14 -32.5t31 -14.5z" />
    <glyph glyph-name="seven.denom" horiz-adv-x="322" 
d="M68 1q-11 0 -11 8v6l116 218h-109q-4 0 -7 2.5t-3 5.5v47q0 4 3 6.5t7 2.5h199q4 0 6.5 -2.5t2.5 -6.5v-14l-132 -264q-5 -9 -15 -9h-57z" />
    <glyph glyph-name="eight.denom" horiz-adv-x="342" 
d="M50 77q0 16 8 31t19.5 24t19.5 14t13 7v1q-19 8 -35 26t-16 44q0 38 32 60.5t79 22.5q48 0 80.5 -23t32.5 -60q0 -26 -16.5 -44.5t-35.5 -25.5v-1q22 -6 41.5 -26t19.5 -50q0 -38 -34 -62t-88 -24t-87 24.5t-33 61.5zM171 183q14 2 23 11t9 20q0 12 -9.5 21.5t-23.5 9.5
q-13 0 -22.5 -9.5t-9.5 -21.5q0 -13 8.5 -21t24.5 -10zM171 121q-17 -2 -28 -12.5t-11 -23.5q0 -14 12 -23t27 -9t26.5 9t11.5 23t-10.5 24t-27.5 12z" />
    <glyph glyph-name="nine.denom" horiz-adv-x="334" 
d="M118 -15q-13 -4 -18 8l-13 34q-4 12 9 16q28 8 61 28t43 46q-26 -13 -55 -13q-38 0 -66.5 25.5t-28.5 71.5q0 42 34 73t80 31q56 0 88 -35t32 -89q0 -37 -14 -69.5t-33.5 -53t-45 -37t-42.5 -24.5t-31 -12zM164 159q15 0 27.5 10t17.5 20q-1 18 -14 32.5t-31 14.5
q-16 0 -28 -11.5t-12 -26.5q0 -16 12 -27.5t28 -11.5z" />
    <glyph glyph-name="zero.num" horiz-adv-x="357" 
d="M179 394q-62 0 -94.5 42t-32.5 116q0 75 32.5 116.5t94.5 41.5q61 0 93 -41.5t32 -116.5q0 -74 -32.5 -116t-92.5 -42zM179 464q20 0 32 23t12 65t-12 65t-32 23q-21 0 -32.5 -23t-11.5 -65t11.5 -65t32.5 -23z" />
    <glyph glyph-name="one.num" horiz-adv-x="241" 
d="M120 405q-10 0 -10 9v193l-49 -4q-9 0 -9 9l-2 31q0 6 7 11l74 47h51q4 0 6.5 -2.5t2.5 -6.5v-278q0 -4 -2.5 -6.5t-6.5 -2.5h-62z" />
    <glyph glyph-name="two.num" horiz-adv-x="316" 
d="M60 405q-10 0 -10 9v17l110 126q25 28 25 50q0 15 -11 25t-29 10q-12 0 -24.5 -6.5t-19.5 -13.5q-10 -6 -16 3l-22 31q-5 6 -4.5 10.5t7.5 10.5q41 34 94 34q48 0 77 -25.5t29 -66.5t-37 -86l-54 -64h80q4 0 6.5 -2.5t2.5 -6.5v-46q0 -9 -9 -9h-195z" />
    <glyph glyph-name="three.num" horiz-adv-x="317" 
d="M150 395q-58 0 -95 33q-8 8 -1 18l22 29q6 9 17 2l3 -2q2 -2 6.5 -4t10 -4t12.5 -4t15 -2q20 0 31 8t11 23t-12 24t-35 9h-29q-15 0 -15 14v31q0 14 15 14h29q18 0 29.5 8.5t11.5 22.5t-11 22t-27 8q-21 0 -39 -16q-4 -3 -7.5 -2.5t-7.5 5.5l-24 29q-4 4 -4 9.5t5 8.5
q2 2 4.5 4t11 7t18 9.5t24.5 8t31 3.5q48 0 78 -22.5t30 -60.5q0 -24 -15 -42.5t-36 -27.5v-1q23 -9 41.5 -27.5t18.5 -48.5q0 -40 -33.5 -63t-83.5 -23z" />
    <glyph glyph-name="four.num" horiz-adv-x="370" 
d="M206 405q-4 0 -7 3t-3 6v48h-137q-4 0 -6.5 2.5t-2.5 5.5v51l163 177q3 3 8 3h41q4 0 6.5 -2.5t2.5 -6.5v-170h40q4 0 6.5 -2.5t2.5 -5.5v-43q0 -4 -2.5 -6.5t-6.5 -2.5h-40v-48q0 -4 -2.5 -6.5t-6.5 -2.5h-56zM123 521h74v83z" />
    <glyph glyph-name="five.num" horiz-adv-x="326" 
d="M152 395q-34 0 -59 12t-37 26q-8 8 -1 15l27 33q7 10 15 2q2 -2 7.5 -6t20 -9.5t29.5 -5.5q18 0 31.5 11t13.5 27t-13 26.5t-35 10.5h-74q-7 0 -11 5t-4 11v139q0 4 2.5 6.5t6.5 2.5h160q4 0 6.5 -2.5t2.5 -6.5v-44q0 -4 -2.5 -6.5t-6.5 -2.5h-103v-39h35q54 0 84 -26.5
t30 -72.5t-34.5 -76t-90.5 -30z" />
    <glyph glyph-name="six.num" horiz-adv-x="334" 
d="M170 395q-56 0 -88 35t-32 89q0 37 14 69.5t33.5 53t45 37t42.5 24.5t31 12q12 4 18 -8l13 -34q4 -12 -9 -16q-28 -8 -61 -28t-43 -46q26 13 55 13q38 0 66.5 -25.5t28.5 -71.5q0 -42 -34 -73t-80 -31zM170 464q16 0 28 11.5t12 26.5q0 16 -12 27.5t-28 11.5
q-15 0 -27.5 -10t-17.5 -20q1 -18 14 -32.5t31 -14.5z" />
    <glyph glyph-name="seven.num" horiz-adv-x="322" 
d="M68 405q-11 0 -11 8v6l116 218h-109q-4 0 -7 2.5t-3 5.5v47q0 4 3 6.5t7 2.5h199q4 0 6.5 -2.5t2.5 -6.5v-14l-132 -264q-5 -9 -15 -9h-57z" />
    <glyph glyph-name="eight.num" horiz-adv-x="342" 
d="M50 481q0 16 8 31t19.5 24t19.5 14t13 7v1q-19 8 -35 26t-16 44q0 38 32 60.5t79 22.5q48 0 80.5 -23t32.5 -60q0 -26 -16.5 -44.5t-35.5 -25.5v-1q22 -6 41.5 -26t19.5 -50q0 -38 -34 -62t-88 -24t-87 24.5t-33 61.5zM171 587q14 2 23 11t9 20q0 12 -9.5 21.5t-23.5 9.5
q-13 0 -22.5 -9.5t-9.5 -21.5q0 -13 8.5 -21t24.5 -10zM171 525q-17 -2 -28 -12.5t-11 -23.5q0 -14 12 -23t27 -9t26.5 9t11.5 23t-10.5 24t-27.5 12z" />
    <glyph glyph-name="nine.num" horiz-adv-x="334" 
d="M118 389q-13 -4 -18 8l-13 34q-4 12 9 16q28 8 61 28t43 46q-26 -13 -55 -13q-38 0 -66.5 25.5t-28.5 71.5q0 42 34 73t80 31q56 0 88 -35t32 -89q0 -37 -14 -69.5t-33.5 -53t-45 -37t-42.5 -24.5t-31 -12zM164 563q15 0 27.5 10t17.5 20q-1 18 -14 32.5t-31 14.5
q-16 0 -28 -11.5t-12 -26.5q0 -16 12 -27.5t28 -11.5z" />
    <glyph glyph-name="parenright.case" horiz-adv-x="343" 
d="M29 32q-1 6 2 12t10 7q72 19 103.5 92t31.5 202t-32 202.5t-103 92.5q-6 1 -9.5 6.5t-2.5 11.5l3 66q0 7 5.5 11.5t13.5 3.5q26 -2 49.5 -7.5t49.5 -18.5t47 -32.5t40 -50.5t33 -70.5t21.5 -94.5t7.5 -120q0 -90 -15.5 -160.5t-39 -112.5t-57 -69t-66.5 -38t-70 -14
q-18 0 -19 16z" />
    <glyph glyph-name="hyphen.case" horiz-adv-x="369" 
d="M73 282q-8 0 -13.5 5t-5.5 13v67q0 8 5.5 13.5t13.5 5.5h223q8 0 13.5 -5.5t5.5 -13.5v-67q0 -8 -5.5 -13t-13.5 -5h-223z" />
    <glyph glyph-name="bracketleft.case" horiz-adv-x="349" 
d="M181 -80h130q8 0 13.5 -5t5.5 -13v-63q0 -8 -6 -13.5t-13 -5.5h-226q-8 0 -13.5 6t-5.5 13v962q0 8 6 13.5t13 5.5h226q8 0 13.5 -6t5.5 -13v-62q0 -8 -6 -13.5t-13 -5.5h-130v-800z" />
    <glyph glyph-name="bracketright.case" horiz-adv-x="349" 
d="M38 -80h130v800h-130q-8 0 -13.5 5.5t-5.5 13.5v62q0 8 5.5 13.5t13.5 5.5h226q8 0 13.5 -6t5.5 -13v-962q0 -8 -5.5 -13.5t-13.5 -5.5h-226q-8 0 -13.5 6t-5.5 13v63q0 8 5.5 13t13.5 5z" />
    <glyph glyph-name="braceleft.case" horiz-adv-x="394" 
d="M103 84v123q0 20 -12.5 36t-27.5 22.5t-29 9.5q-6 1 -10.5 6t-4.5 12v49q0 13 14 17q8 2 22.5 9t31 23.5t16.5 36.5v127q0 46 8.5 84.5t22.5 65.5t34 49t42 35.5t47 22.5t48 13t46 5q18 2 20 -17l4 -63q0 -8 -4 -12.5t-10 -5.5q-62 -14 -98 -59t-36 -118v-105
q0 -30 -11.5 -55.5t-27.5 -41t-27 -23t-17 -10.5v-4q12 -5 24.5 -13.5t27 -22.5t23 -37t8.5 -52v-107q0 -74 36.5 -118t97.5 -57q16 -4 14 -19l-4 -63q-1 -8 -7 -12.5t-13 -4.5q-24 1 -46.5 4.5t-47.5 12.5t-47 23t-42 35t-34 49t-22.5 66t-8.5 84z" />
    <glyph glyph-name="bar.case" horiz-adv-x="180" 
d="M65 -162v1023q0 8 5.5 13.5t13.5 5.5h13q8 0 13 -5.5t5 -13.5v-1023q0 -8 -5.5 -13t-13.5 -5h-12q-8 0 -13.5 5t-5.5 13z" />
    <glyph glyph-name="braceright.case" horiz-adv-x="394" 
d="M167 84v107q0 28 8.5 51.5t23 37.5t27 22.5t24.5 13.5v4q-6 3 -17 10.5t-27 23t-27.5 41t-11.5 55.5v105q0 74 -36.5 118.5t-97.5 58.5q-6 1 -10.5 5.5t-3.5 12.5l4 63q2 18 20 17q24 -1 46.5 -5t47.5 -13t47 -22.5t42 -35.5t34 -49t22.5 -66t8.5 -84v-127
q0 -20 16.5 -36.5t31 -23.5t22.5 -9q14 -4 14 -17v-49q0 -8 -4.5 -12.5t-10.5 -5.5q-14 -2 -29 -9t-27.5 -22.5t-12.5 -36.5v-123q0 -46 -8.5 -84t-22.5 -66t-34 -49t-42 -35t-47 -23t-48 -12.5t-46 -4.5q-8 0 -13.5 5t-6.5 12l-4 63q-2 14 14 19q62 12 98 56.5t36 118.5z
" />
    <glyph glyph-name="guilsinglleft.case" horiz-adv-x="271" 
d="M130 159l-104 155q-8 12 0 24l109 148q7 12 18 12h57q12 0 16.5 -9.5t-1.5 -21.5l-68 -139l65 -147q6 -12 2 -21t-17 -9h-62q-9 0 -15 8z" />
    <glyph glyph-name="guilsinglright.case" horiz-adv-x="271" 
d="M63 151q-12 0 -16.5 9t1.5 21l65 147l-68 139q-6 12 -1.5 21.5t16.5 9.5h57q11 0 18 -12l109 -148q8 -12 0 -24l-104 -155q-6 -8 -15 -8h-62z" />
    <glyph glyph-name="guillemotleft.case" horiz-adv-x="471" 
d="M130 159l-104 155q-8 12 0 24l109 148q7 12 18 12h57q12 0 16.5 -9.5t-1.5 -21.5l-68 -139l65 -147q6 -12 2 -21t-17 -9h-62q-9 0 -15 8zM330 159l-104 155q-8 12 0 24l109 148q7 12 18 12h57q12 0 16.5 -9.5t-1.5 -21.5l-68 -139l65 -147q6 -12 2 -21t-17 -9h-62
q-9 0 -15 8z" />
    <glyph glyph-name="guillemotright.case" horiz-adv-x="471" 
d="M63 151q-12 0 -16.5 9t1.5 21l65 147l-68 139q-6 12 -1.5 21.5t16.5 9.5h57q11 0 18 -12l109 -148q8 -12 0 -24l-104 -155q-6 -8 -15 -8h-62zM263 151q-12 0 -16.5 9t1.5 21l65 147l-68 139q-6 12 -1.5 21.5t16.5 9.5h57q11 0 18 -12l109 -148q8 -12 0 -24l-104 -155
q-6 -8 -15 -8h-62z" />
    <glyph glyph-name="endash.case" horiz-adv-x="539" 
d="M72 300q-8 0 -13.5 5t-5.5 13v37q0 8 5.5 13.5t13.5 5.5h395q8 0 13.5 -5.5t5.5 -13.5v-37q0 -8 -5.5 -13t-13.5 -5h-395z" />
    <glyph glyph-name="emdash.case" horiz-adv-x="759" 
d="M72 300q-8 0 -13.5 5t-5.5 13v37q0 8 5.5 13.5t13.5 5.5h615q8 0 13.5 -5.5t5.5 -13.5v-37q0 -8 -5.5 -13t-13.5 -5h-615z" />
    <glyph glyph-name="bullet.case" horiz-adv-x="389" 
d="M192 185q-52 0 -90.5 38.5t-38.5 90.5q0 54 38.5 93.5t90.5 39.5q55 0 94 -39t39 -94q0 -52 -39.5 -90.5t-93.5 -38.5z" />
    <glyph glyph-name="periodcentered.case" horiz-adv-x="258" 
d="M128 257q-36 0 -62.5 26.5t-26.5 62.5q0 38 26.5 65t62.5 27q38 0 65 -27t27 -65q0 -36 -27 -62.5t-65 -26.5z" />
    <glyph glyph-name="parenleft.case" horiz-adv-x="342" 
d="M291 -49q-38 2 -70.5 13.5t-66 38.5t-57 69t-39 112t-15.5 161q0 66 7.5 120.5t21.5 94t33 70.5t40 50.5t47 32.5t49.5 19t49.5 7q8 0 13.5 -4t5.5 -11l3 -66q1 -6 -3 -11.5t-9 -6.5q-72 -19 -103.5 -92.5t-31.5 -202.5q0 -130 32 -202.5t103 -91.5q6 -2 9.5 -7.5
t2.5 -11.5l-3 -65q-1 -16 -19 -16z" />
    <glyph glyph-name="a.alt" 
d="M440 381v-362q0 -8 -6 -13.5t-13 -5.5h-39q-14 0 -19 19l-10 31q-2 -2 -5.5 -6t-16.5 -14.5t-27 -18.5t-36 -14.5t-46 -6.5q-81 0 -136.5 61.5t-55.5 148.5t55.5 148.5t137.5 61.5q44 0 79.5 -18t49.5 -37l13 33q4 12 17 12h39q8 0 13.5 -5.5t5.5 -13.5zM321 163v78
q-6 22 -26.5 41.5t-54.5 19.5q-40 0 -66.5 -30.5t-26.5 -73.5q0 -42 25.5 -71t64.5 -29q36 0 56.5 20.5t27.5 44.5z" />
    <glyph glyph-name="agrave.alt" 
d="M440 381v-362q0 -8 -6 -13.5t-13 -5.5h-39q-14 0 -19 19l-10 31q-2 -2 -5.5 -6t-16.5 -14.5t-27 -18.5t-36 -14.5t-46 -6.5q-81 0 -136.5 61.5t-55.5 148.5t55.5 148.5t137.5 61.5q44 0 79.5 -18t49.5 -37l13 33q4 12 17 12h39q8 0 13.5 -5.5t5.5 -13.5zM321 163v78
q-6 22 -26.5 41.5t-54.5 19.5q-40 0 -66.5 -30.5t-26.5 -73.5q0 -42 25.5 -71t64.5 -29q36 0 56.5 20.5t27.5 44.5zM337 528l-175 77q-16 8 -6 27l28 51q4 6 11.5 6.5t14.5 -3.5l164 -97q5 -2 7 -7.5t-1 -11.5l-18 -36q-6 -14 -25 -6z" />
    <glyph glyph-name="aacute.alt" 
d="M440 381v-362q0 -8 -6 -13.5t-13 -5.5h-39q-14 0 -19 19l-10 31q-2 -2 -5.5 -6t-16.5 -14.5t-27 -18.5t-36 -14.5t-46 -6.5q-81 0 -136.5 61.5t-55.5 148.5t55.5 148.5t137.5 61.5q44 0 79.5 -18t49.5 -37l13 33q4 12 17 12h39q8 0 13.5 -5.5t5.5 -13.5zM321 163v78
q-6 22 -26.5 41.5t-54.5 19.5q-40 0 -66.5 -30.5t-26.5 -73.5q0 -42 25.5 -71t64.5 -29q36 0 56.5 20.5t27.5 44.5zM176 528q-18 -8 -26 6l-17 36q-6 11 6 19l163 97q6 4 14 4q9 0 12 -7l29 -51q9 -20 -6 -27z" />
    <glyph glyph-name="acircumflex.alt" 
d="M440 381v-362q0 -8 -6 -13.5t-13 -5.5h-39q-14 0 -19 19l-10 31q-2 -2 -5.5 -6t-16.5 -14.5t-27 -18.5t-36 -14.5t-46 -6.5q-81 0 -136.5 61.5t-55.5 148.5t55.5 148.5t137.5 61.5q44 0 79.5 -18t49.5 -37l13 33q4 12 17 12h39q8 0 13.5 -5.5t5.5 -13.5zM321 163v78
q-6 22 -26.5 41.5t-54.5 19.5q-40 0 -66.5 -30.5t-26.5 -73.5q0 -42 25.5 -71t64.5 -29q36 0 56.5 20.5t27.5 44.5zM129 529l-26 37q-3 6 -1 11t7 8l130 101q10 8 21 0l130 -101q5 -4 7 -8.5t-1 -10.5l-26 -37q-8 -12 -23 -3l-97 61l-98 -61q-15 -9 -23 3z" />
    <glyph glyph-name="atilde.alt" 
d="M440 381v-362q0 -8 -6 -13.5t-13 -5.5h-39q-14 0 -19 19l-10 31q-2 -2 -5.5 -6t-16.5 -14.5t-27 -18.5t-36 -14.5t-46 -6.5q-81 0 -136.5 61.5t-55.5 148.5t55.5 148.5t137.5 61.5q44 0 79.5 -18t49.5 -37l13 33q4 12 17 12h39q8 0 13.5 -5.5t5.5 -13.5zM321 163v78
q-6 22 -26.5 41.5t-54.5 19.5q-40 0 -66.5 -30.5t-26.5 -73.5q0 -42 25.5 -71t64.5 -29q36 0 56.5 20.5t27.5 44.5zM127 562l-29 21q-5 4 -7 11t1 12q23 42 45 60q28 24 59 24q18 0 33.5 -8.5t25.5 -19t23 -19t25 -8.5t21 9.5t14 19t13 15t17 -2.5l28 -20q13 -10 1 -31
q0 -1 -2 -4q-7 -12 -13 -20.5t-18.5 -22.5t-28.5 -21.5t-35 -7.5q-18 0 -34.5 8.5t-27.5 19.5t-23.5 19.5t-23.5 8.5q-12 0 -21 -9.5t-13 -19.5t-12 -15.5t-18 1.5z" />
    <glyph glyph-name="adieresis.alt" 
d="M440 381v-362q0 -8 -6 -13.5t-13 -5.5h-39q-14 0 -19 19l-10 31q-2 -2 -5.5 -6t-16.5 -14.5t-27 -18.5t-36 -14.5t-46 -6.5q-81 0 -136.5 61.5t-55.5 148.5t55.5 148.5t137.5 61.5q44 0 79.5 -18t49.5 -37l13 33q4 12 17 12h39q8 0 13.5 -5.5t5.5 -13.5zM321 163v78
q-6 22 -26.5 41.5t-54.5 19.5q-40 0 -66.5 -30.5t-26.5 -73.5q0 -42 25.5 -71t64.5 -29q36 0 56.5 20.5t27.5 44.5zM84 615q0 26 18.5 44.5t44.5 18.5t45 -18.5t19 -44.5t-19 -45t-45 -19t-44.5 18.5t-18.5 45.5zM285 615q0 26 18.5 44.5t44.5 18.5t45 -18.5t19 -44.5
t-19 -45t-45 -19t-44.5 18.5t-18.5 45.5z" />
    <glyph glyph-name="aring.alt" 
d="M440 381v-362q0 -8 -6 -13.5t-13 -5.5h-39q-14 0 -19 19l-10 31q-2 -2 -5.5 -6t-16.5 -14.5t-27 -18.5t-36 -14.5t-46 -6.5q-81 0 -136.5 61.5t-55.5 148.5t55.5 148.5t137.5 61.5q44 0 79.5 -18t49.5 -37l13 33q4 12 17 12h39q8 0 13.5 -5.5t5.5 -13.5zM321 163v78
q-6 22 -26.5 41.5t-54.5 19.5q-40 0 -66.5 -30.5t-26.5 -73.5q0 -42 25.5 -71t64.5 -29q36 0 56.5 20.5t27.5 44.5zM247 484q-47 0 -80 33t-33 80t33 80t80 33q46 0 79.5 -33t33.5 -80t-33.5 -80t-79.5 -33zM212 562q16 -15 35 -15t33.5 15.5t14.5 34.5t-14.5 33.5
t-33.5 14.5t-34.5 -14.5t-15.5 -33.5t15 -35z" />
    </font>
</defs>
</svg>
